<svg width="201" height="201" viewBox="0 0 201 201" fill="none" xmlns="http://www.w3.org/2000/svg">
<path d="M68.9433 152.806C70.7642 152.185 72.6296 151.692 74.5249 151.332L74.7543 152.143C74.7799 152.239 74.8404 152.322 74.9247 152.378C75.0089 152.434 75.1113 152.459 75.2131 152.448L82.7171 151.606C84.7815 147.068 88.5718 140.192 88.6264 140.087C88.5718 138.371 88.6264 136.928 88.6264 135.286C84.3337 136.823 76.3927 139.74 72.242 141.603C72.1482 141.662 72.0756 141.747 72.0345 141.847C71.9934 141.947 71.9857 142.057 72.0127 142.161C72.0127 142.161 72.0891 142.425 72.1874 142.804C70.1558 142.804 64.0717 142.519 62.6081 143.857C62.3805 144.162 62.2687 144.534 62.2913 144.91C62.2039 146.363 62.9576 157.65 64.1591 160.967C64.7817 162.704 66.0925 162.514 66.9881 160.851C68.0248 158.345 68.6903 155.712 68.9652 153.028C68.9652 152.891 68.9324 152.901 68.9433 152.806V152.806ZM67.6872 143.383C69.0198 143.277 69.4349 143.299 72.2966 143.214C72.81 145.089 73.8695 148.942 74.4157 150.911C72.4885 151.199 70.5863 151.625 68.7249 152.185C68.1448 149.281 67.7979 146.338 67.6872 143.383Z" fill="black"/>
<path d="M169.478 51.2309C169.751 50.8624 169.401 50.3886 169.106 50.0201C169.942 49.1918 170.868 48.4538 171.87 47.8195C173.56 47.0076 175.105 45.9413 176.446 44.6607C177.003 44.1027 178.052 42.955 177.659 42.2811C177.266 41.6072 176.567 41.5651 175.616 41.9547C176.028 41.538 176.364 41.0575 176.61 40.5332C176.916 39.712 176.195 39.0486 174.633 39.6593C175.201 38.7854 175.332 37.8694 174.371 37.4271C173.596 37.0691 172.46 37.922 171.804 38.48C170.517 39.5639 169.309 40.7319 168.189 41.9757C167.501 40.5859 166.408 38.9854 165.043 39.4909C163.678 39.9963 164.737 42.26 165.436 43.492L162.957 45.145C162.582 44.95 162.158 44.8589 161.733 44.8818C158.915 45.3451 145.972 54.8425 144.661 54.8425C143.656 54.8425 129.303 48.2091 116.895 46.2927C116.871 46.221 116.826 46.1572 116.766 46.1088C116.707 46.0604 116.634 46.0292 116.556 46.019C114.392 45.663 112.198 45.5043 110.002 45.5452C109.936 45.5495 109.871 45.5677 109.813 45.5986C109.754 45.6296 109.703 45.6724 109.664 45.7242H108.746C108.528 44.8713 107.72 42.9023 107.436 42.1442C108.178 41.523 109.205 41.2071 109.74 40.2068C110.723 38.3537 110.68 35.1318 110.407 33.068C111.641 32.1625 111.674 30.7095 111.39 29.2249C111.28 28.6247 110.942 27.2664 110.418 26.9295C110.123 26.74 109.5 26.9295 108.965 27.119C108.43 25.9187 108.43 26.4662 108.648 25.9819C108.749 25.7586 108.809 25.5197 108.823 25.2764C109.402 25.4449 110.603 24.3288 110.188 22.8547C109.971 22.327 109.704 21.8195 109.391 21.3385C109.544 20.9805 109.871 20.5488 108.845 19.2326C108.402 18.7728 107.828 18.4503 107.195 18.306H106.693C106.331 17.7988 105.798 17.4271 105.185 17.2531C104.26 17.0257 103.28 17.1581 102.455 17.6216C102.236 17.7796 102.062 17.9902 101.843 18.1376C101.349 17.8485 100.782 17.6956 100.205 17.6956C99.6268 17.6956 99.0601 17.8485 98.5662 18.1376C98.2771 18.2469 98.0139 18.4115 97.7924 18.6214C97.5709 18.8313 97.3957 19.0822 97.2773 19.359C96.7421 19.181 96.1743 19.1124 95.6101 19.1578C95.0459 19.2031 94.4977 19.3613 94.0004 19.6222C92.1135 20.6085 90.7021 22.2677 90.0682 24.2445C90.0506 24.5426 90.0506 24.8414 90.0682 25.1395H89.9481C88.3096 24.9079 86.2234 28.6563 87.8946 31.5729C88.0912 31.9203 88.3424 32.2467 88.5827 32.6258C89.2818 33.6787 89.0087 33.9946 90.5707 35.2792C91.0294 35.6582 91.1059 35.6266 91.3899 35.8583C91.6739 36.0899 91.5646 35.9741 91.7285 36.5637C91.8178 36.9111 91.9777 37.2379 92.199 37.5253C92.4202 37.8126 92.6984 38.0548 93.0174 38.2379C93.1335 39.2678 93.589 40.2346 94.3172 40.9965C94.5478 41.2453 94.8168 41.4584 95.1146 41.6283C95.1949 41.6719 95.2846 41.6971 95.3767 41.702C95.7044 43.6604 96.1086 46.2085 96.2833 47.293L95.3112 47.7984C94.0393 48.2917 92.8023 48.8651 91.6083 49.5147C91.5147 49.5772 91.4485 49.671 91.4226 49.7779C90.2648 50.3675 89.1725 50.9256 88.5499 51.2836C79.8772 56.2429 55.246 88.9361 54.9948 90.4313C54.9671 90.517 54.9671 90.6088 54.9948 90.6945C55.3479 91.2374 55.778 91.7301 56.2728 92.158C56.1203 92.4262 55.9371 92.6769 55.7266 92.9056C53.5421 94.2849 50.2652 96.3381 48.5066 98.1702C48.3833 98.2762 48.2907 98.4114 48.2381 98.5624C48.1856 98.7134 48.1747 98.875 48.2067 99.0313C48.2387 99.1876 48.3124 99.3331 48.4205 99.4535C48.5287 99.574 48.6675 99.6651 48.8234 99.718C49.1511 99.8233 49.2057 99.7917 51.3356 98.6651C50.7503 99.1601 50.2715 99.7611 49.9266 100.434C49.7846 101.013 50.3307 101.35 51.0189 101.245C51.4061 101.147 51.7747 100.991 52.1112 100.781C51.9142 101.075 51.8093 101.417 51.8093 101.766C51.8093 102.115 51.9142 102.457 52.1112 102.75C53.2035 104.077 56.0653 99.897 57.5726 98.8652C58.1843 99.6127 59.0144 101.361 60.3361 100.897C61.483 100.487 60.2269 98.0544 60.3361 97.349C60.7805 96.9376 61.2551 96.5576 61.7561 96.2118C62.5987 96.8142 63.5621 97.2409 64.5851 97.4648C66.3874 97.4648 85.1966 79.165 86.6275 77.7014C86.1141 82.3553 83.5254 102.329 84.0715 106.215C84.3228 107.973 88.7028 108.226 90.5488 108.32C89.9917 120.955 89.6204 140.098 89.5221 140.298C86.6275 146.31 85.841 147.952 84.8689 149.774C83.0994 153.038 75.65 165.083 74.8089 167.821C74.6888 168.253 74.6779 168.421 75.1475 169.221C73.74 170.648 72.4336 172.164 71.2371 173.76C70.6364 174.812 73.2142 184.626 75.0383 188.1C75.4534 188.88 76.1306 190.08 77.0372 190.048C79.7679 189.954 79.757 180.498 79.6805 177.855C79.6801 177.774 79.649 177.695 79.5931 177.634C80.0881 176.922 80.628 176.24 81.2097 175.592C81.557 175.822 81.9222 176.026 82.302 176.202C82.6734 176.36 83.0885 176.087 83.3943 175.844C87.0316 173.086 106.649 149.521 110.854 138.402C112.766 133.327 115.311 126.315 116.032 121.345C116.473 118.203 116.513 115.02 116.152 111.869C116.152 111.824 116.17 111.781 116.203 111.75C116.236 111.718 116.28 111.7 116.327 111.7C116.373 111.7 116.418 111.718 116.45 111.75C116.483 111.781 116.502 111.824 116.502 111.869C117.049 115.038 117.155 118.264 116.818 121.461C116.01 128.358 110.363 142.73 107.348 148.016C109.948 147.552 115.235 146.541 117.79 145.804C126.31 143.309 134.175 135.865 134.863 127.505C135.086 123.566 135.086 119.619 134.863 115.68C134.789 110.243 134.056 104.833 132.678 99.5601C134.994 98.3492 137.113 96.9278 137.801 95.6222C139.276 92.8319 135.376 76.7748 134.524 72.2683C139.188 72.7632 147.129 73.6582 150.832 70.8679C155.07 67.5828 164.224 58.3382 169.478 51.2309V51.2309ZM79.0907 177.276C77.1246 176.129 74.372 173.402 73.9569 171.264C74.4048 170.717 74.8745 170.211 75.3114 169.643C76.7917 171.82 78.6373 173.745 80.7728 175.339C80.1729 175.952 79.6112 176.599 79.0907 177.276V177.276ZM165.928 43.7868C165.984 43.752 166.025 43.6977 166.041 43.6351C166.057 43.5724 166.048 43.5061 166.015 43.4498C165.633 42.7654 164.486 40.3542 165.283 40.0805C165.742 39.912 166.146 40.1858 166.485 40.5543C167.002 41.1866 167.404 41.8986 167.675 42.6602C167.696 42.7221 167.733 42.7775 167.783 42.8206C167.834 42.8636 167.895 42.8926 167.961 42.9045C168.028 42.9164 168.096 42.9108 168.159 42.8881C168.222 42.8655 168.278 42.8267 168.32 42.776C169.412 41.6072 171.968 38.9433 173.41 38.2273C174.502 37.6798 174.764 38.6906 172.088 41.0492C171.473 41.501 170.883 41.9824 170.319 42.4917C170.288 42.533 170.271 42.5828 170.271 42.6338C170.271 42.6849 170.288 42.7346 170.319 42.776C170.319 43.0497 170.548 43.3551 170.941 43.0708C171.891 42.2674 172.894 41.5252 173.945 40.8491C174.481 40.4818 175.105 40.2501 175.758 40.1753C175.431 41.1439 172.383 43.7762 172.121 44.0711C172.038 44.1429 171.987 44.2433 171.98 44.3507C171.973 44.4581 172.01 44.5639 172.083 44.6453C172.156 44.7268 172.259 44.7773 172.371 44.7861C172.482 44.7949 172.592 44.7612 172.678 44.6923C173.89 43.9342 176.009 42.1653 176.741 42.4285C177.473 42.6917 175.299 44.6502 174.753 45.1135C171.618 47.7352 172.427 46.0506 168.8 49.6094C167.222 47.9426 165.409 46.4966 163.415 45.3135L165.928 43.7868ZM118.468 94.1481C118.282 92.695 118.053 91.1262 117.769 89.4942L118.238 88.894C120.423 86.188 121.078 81.8815 120.871 78.5016C122.039 83.4398 122.968 88.2938 123.678 93.1162L118.468 94.1481ZM102.225 58.096C99.3527 55.9902 94.7323 52.3576 92.0452 49.8727L96.4144 47.7668C100.426 51.3792 103.861 55.5449 106.605 60.1281C110.802 67.56 113.915 75.5143 115.857 83.7662L100.281 62.5288L102.313 58.4645C102.34 58.4019 102.346 58.3329 102.33 58.2668C102.314 58.2008 102.278 58.1411 102.225 58.096ZM109.609 46.1559C109.675 46.2717 110.428 47.8195 111.575 50.5255C111.575 50.6413 111.368 53.2736 111.27 54.2002C109.875 53.6675 108.561 52.9594 107.359 52.0943C107.599 51.1783 108.681 47.0193 108.757 46.0821L109.609 46.1559ZM105.732 57.4642C105.808 57.2747 105.885 57.022 105.972 56.7272L106.704 57.0957C107.119 57.3589 106.955 56.5587 107.326 58.8752C107.326 59.2647 107.436 59.6964 107.457 60.1703C106.955 59.2963 106.332 58.3592 105.743 57.4642H105.732ZM105.12 56.5798C103.056 53.7583 100.707 51.1413 98.1074 48.7671L106.332 52.2102C106.016 52.9367 105.557 55.1583 105.131 56.5798H105.12ZM113.52 62.7499C112.427 59.8754 111.586 56.664 111.171 55.8217C111.196 55.559 111.196 55.2947 111.171 55.032C111.329 55.0887 111.495 55.1241 111.663 55.1373C111.768 55.1384 111.87 55.1028 111.951 55.037C112.031 54.9713 112.084 54.8797 112.1 54.7793C112.187 54.4318 112.329 52.6734 112.351 52.2839C115.528 60.0171 118.181 67.9412 120.292 76.0062C114.12 63.3501 115.071 67.0142 113.531 62.7499H113.52ZM122.553 82.8502C120.062 71.3418 115.682 56.9904 110.702 46.3559C112.531 46.3569 114.357 46.4977 116.163 46.7771C117.091 54.7793 116.316 54.5055 116.939 54.8214C117.561 55.1373 121.308 56.5903 121.865 56.8114C121.81 57.6222 122.597 80.8075 122.564 82.8502H122.553ZM109.981 27.6034C110.55 28.8012 110.751 30.1314 110.56 31.436C110.471 31.768 110.288 32.0698 110.032 32.3076C109.775 32.5455 109.456 32.7102 109.108 32.7833C108.76 32.8564 108.399 32.8351 108.063 32.7218C107.727 32.6085 107.431 32.4076 107.206 32.1414C106.685 31.0831 106.293 29.9701 106.037 28.8247C106.332 28.4562 109.478 27.7192 109.981 27.6034V27.6034ZM94.9507 38.1326C94.5517 37.9575 94.1433 37.8028 93.7274 37.6693C93.4482 37.5587 93.199 37.3879 92.9988 37.17C92.7987 36.9522 92.653 36.6931 92.5729 36.4125C92.4927 36.132 92.4803 35.8375 92.5365 35.5516C92.5927 35.2657 92.7161 34.996 92.8972 34.7632C93.5854 34.2052 94.208 34.2368 94.776 35.0686C95.1364 35.7109 95.1255 35.7635 95.2893 35.8267C95.3363 35.8466 95.3872 35.8567 95.4386 35.8562C95.4899 35.8556 95.5406 35.8445 95.5871 35.8236C95.6337 35.8027 95.675 35.7724 95.7085 35.7348C95.7419 35.6972 95.7666 35.6531 95.7809 35.6056C95.9428 34.9465 95.9688 34.2632 95.8573 33.5945C95.7263 32.868 95.7044 29.646 95.7263 29.5407C96.0453 29.7028 96.4037 29.7792 96.7639 29.7618C98.741 29.6881 99.1342 28.7089 99.9206 27.9087C100.827 27.9929 101.013 28.4141 102.04 27.9087C102.52 27.6451 102.961 27.3191 103.35 26.94C103.664 27.0639 103.968 27.2118 104.257 27.3822C104.912 27.6857 105.65 27.7789 106.364 27.6481C107.077 27.5174 107.729 27.1696 108.222 26.6557C108.342 26.8768 108.451 27.098 108.55 27.3296C107.546 27.6298 106.601 28.0888 105.753 28.6879C105.568 28.909 105.841 30.1093 105.906 30.3936C104.991 30.5046 104.106 30.7795 103.296 31.2043C103.132 30.6568 102.772 29.6355 102.204 29.3512C102.033 29.3008 101.85 29.3008 101.679 29.3512C100.696 29.4986 97.1681 30.52 96.7421 31.078C96.3707 31.4676 97.4302 34.4789 97.7579 34.9738C99.014 36.848 102.695 36.3005 103.383 34.1104C103.554 33.3754 103.554 32.6132 103.383 31.8782C103.7 31.8782 104.65 31.5518 104.759 31.5202C105.513 33.1523 105.732 33.247 106.605 35.0054C106.485 35.1002 106.289 35.2581 106.125 35.3634C105.349 35.8583 105.185 35.774 105.229 35.9846C105.242 36.0264 105.27 36.0623 105.308 36.0856C105.346 36.1088 105.392 36.1179 105.437 36.111C105.895 36.0478 106.343 35.9275 106.769 35.753C107.024 35.6613 107.235 35.481 107.359 35.2476C107.665 34.5842 105.972 32.0888 105.306 31.3412C105.437 31.3412 105.743 31.1306 105.972 31.0148C106.278 32.1941 106.485 33.1207 107.665 33.584C108.006 33.708 108.369 33.7645 108.733 33.7501C109.098 33.7356 109.455 33.6504 109.784 33.4997C109.959 35.3529 109.926 38.3642 109.008 40.0068C108.539 40.8597 107.381 41.1861 106.638 41.8915C106.42 42.0916 106.562 42.3759 106.638 42.6812C107.851 45.9347 107.873 45.9242 107.807 46.3454C107.485 48.0935 107.037 49.8175 106.463 51.5047C106.19 51.3889 103.121 49.82 97.1135 47.5668C96.9278 46.377 95.9338 40.0278 95.617 38.8591C95.6389 38.4485 95.5843 38.3537 94.9507 38.0799V38.1326ZM102.597 33.8367C102.247 34.9843 100.598 35.4792 99.4182 35.1633C98.2385 34.8475 98.1621 34.2684 97.605 32.8996C97.3439 32.3766 97.1636 31.8197 97.0698 31.2465C97.4302 30.8674 101.373 30.0882 101.865 30.0145C102.554 31.1514 102.813 32.4837 102.597 33.784V33.8367ZM59.8555 97.0541C59.4404 97.4437 59.9975 98.7178 60.0849 99.8233C60.0849 99.9181 60.0849 100.329 60.0193 100.36C59.4186 100.55 58.8615 99.6759 58.5229 99.1495C58.1843 98.623 57.8457 97.907 57.3105 98.0965C56.2182 98.5914 53.6841 101.834 52.6901 102.171C52.1876 101.245 55.0604 98.6019 55.1587 98.4545C55.2008 98.3868 55.2229 98.3093 55.2225 98.2304C55.2221 98.1514 55.1993 98.0741 55.1565 98.0068C55.1137 97.9395 55.0526 97.8848 54.9798 97.8486C54.907 97.8125 54.8253 97.7962 54.7436 97.8017C54.547 97.8017 54.4159 97.9702 54.1101 98.2334C53.1798 99.1086 52.115 99.8402 50.9533 100.402C52.0066 99.2377 53.1338 98.137 54.3285 97.1068C54.3875 97.0483 54.429 96.9755 54.4487 96.8962C54.4487 96.8962 54.2193 96.3381 53.7715 96.5593C53.1379 96.8962 50.0577 98.6125 49.0855 99.0547C48.9545 98.9705 49.0309 98.8441 49.0855 98.7178C50.6257 96.8962 54.0118 94.6851 56.0871 93.2847C56.3307 93.0429 56.5334 92.7658 56.6879 92.4634C58.1252 93.7525 59.6585 94.9385 61.2755 96.0117C60.7773 96.3266 60.3028 96.6749 59.8555 97.0541V97.0541ZM85.2731 106.625C85.0328 106.478 84.858 106.341 84.8252 106.151C84.2245 101.855 87.5669 77.5119 87.5122 76.5537C87.5123 76.4975 87.5006 76.4419 87.478 76.3901C87.4553 76.3383 87.4222 76.2914 87.3804 76.2521C87.3387 76.2129 87.2892 76.1821 87.235 76.1615C87.1807 76.141 87.1227 76.1312 87.0644 76.1326C86.5073 76.1326 87.4904 76.1326 73.5746 88.9782C72.6571 89.81 65.6446 96.275 64.4759 96.7067C62.8702 96.5908 56.8299 91.9475 55.8468 90.4839C57.7474 86.7776 80.7947 56.285 88.7684 51.6205C89.3801 51.2625 90.4287 50.7045 91.5756 50.1148C91.9721 50.4754 92.3997 50.803 92.8535 51.0941C95.3877 53.4105 98.9157 56.2955 101.592 58.4645L99.5056 62.4551C99.4739 62.5079 99.4573 62.5678 99.4573 62.6288C99.4573 62.6898 99.4739 62.7497 99.5056 62.8026C116.447 86.2301 116.196 85.9669 116.305 85.9669C117.391 91.3805 118.066 96.8632 118.326 102.371C118.326 103.856 118.326 103.73 118.391 103.624C118.457 103.519 118.391 103.698 118.391 103.698C115.748 106.478 89.5876 109.068 85.2731 106.625V106.625ZM145.655 71.7419C140.707 72.4052 135.114 71.4155 134.033 71.3734C133.432 68.5664 132.234 65.9099 130.516 63.5712C130.489 63.5371 130.451 63.5138 130.407 63.506C130.364 63.4982 130.319 63.5064 130.282 63.529C130.245 63.5517 130.218 63.587 130.207 63.628C130.195 63.669 130.2 63.7126 130.221 63.7502C130.854 64.9926 132.973 70.352 133.498 71.6576C133.334 72.163 138.435 92.495 136.993 95.2326C135.704 97.7069 128.2 100.824 125.491 101.719C124.956 95.8569 124.08 90.0286 122.87 84.2611C123.241 81.2287 122.76 63.2027 122.618 56.5377C122.614 56.4602 122.587 56.3855 122.541 56.3221C122.495 56.2588 122.431 56.2094 122.356 56.1797L117.452 54.1896C117.43 51.6875 117.266 49.1883 116.96 46.7034C129.205 48.746 143.47 55.4953 144.661 55.5058C146.387 55.5058 159.21 46.0295 161.864 45.6505C163.044 45.4715 168.112 49.7358 168.702 50.9151C163.525 57.8854 154.426 67.0458 150.21 70.2151C148.851 71.0906 147.283 71.6162 145.655 71.7419V71.7419Z" fill="black"/>
<path d="M101.472 31.7309C101.458 31.6617 101.431 31.5959 101.39 31.537C101.35 31.4782 101.299 31.4275 101.238 31.3879C101.178 31.3483 101.11 31.3206 101.039 31.3062C100.967 31.2919 100.894 31.2913 100.822 31.3044C100.75 31.3176 100.682 31.3442 100.621 31.3828C100.56 31.4214 100.507 31.4712 100.466 31.5294C100.425 31.5875 100.396 31.6529 100.381 31.7218C100.366 31.7907 100.366 31.8618 100.379 31.9309C100.598 32.9839 100.642 33.226 101.122 33.226C101.213 33.2263 101.303 33.2048 101.383 33.1633C101.463 33.1219 101.531 33.0619 101.581 32.9887C101.63 32.9155 101.661 32.8315 101.668 32.7442C101.676 32.657 101.661 32.5692 101.625 32.489C101.592 32.3205 101.494 31.8256 101.472 31.7309V31.7309ZM104.814 38.7012C105.524 38.9013 106.201 38.5749 106.18 38.4064C106.158 38.2379 106.18 38.3222 105.218 37.9747C104.574 37.7431 103.864 36.9218 103.613 37.0481C103.361 37.1745 103.744 37.8484 103.831 37.9747C104.065 38.3165 104.411 38.5724 104.814 38.7012V38.7012ZM124.792 28.6985C123.361 34.479 122.313 39.3856 122.138 40.3648C122.022 40.7909 122 41.2356 122.072 41.6705C122.651 42.8603 130.133 45.2083 131.084 44.745C132.034 44.2817 134.503 38.9223 137.375 33.3945C139.135 33.4487 140.896 33.3252 142.629 33.026C144.454 32.7032 146.23 32.1621 147.916 31.415C151.608 29.7724 155.649 22.7389 156.195 19.2011C156.605 15.3601 155.761 11.4916 153.781 8.13488C144.617 -7.18515 117.736 1.05924 119.921 18.0745C120.544 21.9679 122.225 25.6331 124.792 28.6985V28.6985ZM131.455 41.2388C131.455 41.4072 131.258 41.3862 130.363 41.2388C128.531 41.0168 126.757 40.4707 125.131 39.6278C124.366 39.2277 124.159 39.1435 124.235 38.9645C124.312 38.7855 124.475 38.8486 125.655 39.1645C125.764 39.1645 129.15 40.2174 130.123 40.5438C131.379 41.0914 131.455 41.0914 131.455 41.2388V41.2388ZM131.258 24.1077C132.425 24.166 133.587 23.934 134.634 23.4338C135.606 23.888 136.658 24.163 137.736 24.2446C135.901 27.5402 132.176 34.2579 130.974 37.8378L126.343 36.6059C127.435 34.0157 129.849 27.9509 131.237 24.1077H131.258ZM130.876 23.2338C130.061 23.115 129.308 22.7418 128.734 22.1712C128.16 21.6006 127.796 20.8643 127.698 20.075C127.392 17.9692 128.79 15.6106 130.898 16.1687C132.22 16.5161 132.384 17.5269 132.154 18.801C131.958 19.7276 131.248 22.0545 130.854 23.1917L130.876 23.2338ZM133.847 20.7068C133.964 20.0178 134.232 19.3608 134.634 18.7799C134.825 18.4633 135.104 18.2046 135.44 18.0334C135.776 17.8622 136.155 17.7852 136.534 17.8112C137.343 18.0429 137.692 19.517 137.026 20.4435C136.385 21.2627 135.588 21.9561 134.677 22.4862C134.364 22.3089 134.114 22.0433 133.962 21.7252C133.81 21.4072 133.762 21.0517 133.825 20.7068H133.847ZM123.809 7.32413C128.703 1.64888 137.911 -0.60438 144.563 1.73311C148.176 2.92885 151.216 5.34997 153.115 8.54552C154.998 11.7396 155.804 15.4195 155.42 19.0747C154.917 22.3493 151.051 29.1512 147.654 30.6569C144.548 32.0226 141.159 32.6853 137.747 32.5943C137.375 32.5943 136.982 32.5943 136.84 32.847C136.196 34.1105 135.016 36.5533 133.858 38.8486C133.059 38.4765 132.229 38.1666 131.379 37.9221C132.646 34.4264 136.643 27.5613 138.544 24.2341C140.191 24.3701 141.846 24.0945 143.35 23.4338C143.756 23.2277 144.093 22.914 144.321 22.5297C144.549 22.1455 144.659 21.7065 144.637 21.2643C144.615 20.8222 144.463 20.3952 144.198 20.0334C143.934 19.6717 143.567 19.3903 143.143 19.2222C141.45 18.4219 139.931 20.3383 139.047 21.9492C138.806 22.3704 138.533 22.8653 138.227 23.4233C137.344 23.3674 136.473 23.1937 135.639 22.9074C136.469 22.3446 137.206 21.6629 137.823 20.8858C138.169 20.3823 138.344 19.7879 138.325 19.1843C138.305 18.5808 138.092 17.9981 137.714 17.5164C137.417 17.1842 137.005 16.9678 136.555 16.9077C136.104 16.8476 135.646 16.948 135.267 17.19C134.502 17.6431 133.889 18.2994 133.502 19.0801C133.114 19.8608 132.969 20.7328 133.083 21.5912C133.201 22.0758 133.472 22.5133 133.858 22.8442C133.142 23.1303 132.373 23.2735 131.597 23.2654C132.034 22.0229 132.744 19.7802 132.93 18.8642C133.046 18.3419 133.072 17.8046 133.006 17.2742C132.922 16.8189 132.702 16.3968 132.375 16.0587C132.047 15.7206 131.626 15.4809 131.16 15.3685C128.506 14.6419 126.551 17.4743 126.933 20.1171C127.041 21.0642 127.463 21.9526 128.136 22.6505C128.808 23.3484 129.697 23.8188 130.669 23.9919C129.271 27.7824 127.086 33.8999 125.994 36.5111L123.591 35.911C125.131 28.4563 125.316 28.6353 125.098 28.5405C122.616 25.4902 121.028 21.8542 120.499 18.0113C120.242 16.1058 120.404 14.1694 120.974 12.328C121.544 10.4867 122.51 8.78176 123.809 7.32413V7.32413ZM138.97 23.4865C139.735 22.1493 141.264 19.2222 142.749 19.9381C143.046 20.0535 143.305 20.245 143.498 20.4918C143.69 20.7386 143.809 21.0313 143.842 21.3385C143.82 23.1917 140.827 23.5181 138.926 23.4865H138.97ZM180.783 28.1299C182.099 27.3837 183.654 27.1289 185.152 27.4139C186.798 27.4423 188.37 28.0766 189.546 29.1867C190.722 30.2968 191.412 31.7985 191.476 33.384C190.487 32.8305 189.33 32.6222 188.199 32.7943C185.458 33.026 181.875 34.4579 182.356 37.006C182.749 39.1119 185.633 38.8276 187.817 38.259C190.002 37.6904 191.739 36.6586 192.186 34.6264C194.841 36.4901 195.463 39.7541 195.572 42.9445C195.572 42.9892 195.591 43.032 195.624 43.0636C195.656 43.0952 195.701 43.113 195.747 43.113C195.794 43.113 195.838 43.0952 195.871 43.0636C195.904 43.032 195.922 42.9892 195.922 42.9445C195.998 39.3751 195.332 35.8794 192.307 33.8473C192.338 32.9331 192.176 32.0223 191.831 31.1701C191.487 30.3179 190.966 29.542 190.301 28.8894C189.637 28.2368 188.841 27.721 187.964 27.3732C187.086 27.0255 186.144 26.8531 185.196 26.8664C183.679 26.6529 182.133 26.9584 180.827 27.7298C180.422 27.9193 180.608 28.2036 180.783 28.1299V28.1299ZM190.745 35.6793C189.51 37.2377 186.015 38.0484 184.398 37.7852C183.798 37.6904 183.306 37.4483 183.175 36.8481C182.782 34.7422 186.55 33.5946 188.8 33.5208C189.717 33.4531 190.63 33.6789 191.4 34.1631C191.317 34.7136 191.092 35.2351 190.745 35.6793V35.6793ZM175.78 15.8212C176.949 14.4314 176.162 12.0096 172.897 11.9991C171.629 11.9991 171.018 13.2416 171.105 14.4314C171.302 17.2637 174.611 17.1795 175.78 15.8212V15.8212ZM171.87 14.3787C171.87 13.6838 172.208 12.7783 172.962 12.7888C174.721 12.7888 175.529 13.5785 175.529 14.4524C175.485 16.4424 171.728 17.4743 171.87 14.3787V14.3787ZM171.422 133.749C161.821 130.053 157.364 147.942 149.522 163.315C149.472 163.961 149.494 164.61 149.587 165.252C149.587 166.863 149.773 177.529 150.745 178.74C151.007 179.224 152.11 178.74 152.624 178.435C156.984 175.833 161.093 172.858 164.901 169.548C164.933 169.512 164.958 169.47 164.973 169.425C164.988 169.38 164.993 169.332 164.988 169.285C167.02 166.494 174.633 151.964 176.479 144.678C177.768 139.519 176.49 135.675 171.422 133.749V133.749ZM174.852 147.121C169.712 146.486 164.742 144.921 160.204 142.509C162.76 137.844 165.917 132.527 171.127 134.528C176.927 136.749 176.807 141.351 174.852 147.089V147.121ZM156.676 174.497C156.341 174.226 155.974 173.992 155.584 173.802C154.108 173.078 152.402 172.92 150.81 173.36C150.701 172.107 150.079 163.957 150.079 163.883C158.26 166.768 155.737 165.515 163.841 169.401C162.989 170.18 159.789 172.338 156.676 174.476V174.497ZM162.312 144.025C163.378 144.586 164.471 145.096 165.589 145.552C163.085 149.343 160.873 153.305 158.97 157.408C157.135 161.103 157.2 161.082 155.333 165.115C154.24 164.778 153.148 164.462 152.056 164.146C153.235 161.883 161.624 145.331 162.312 144.004V144.025ZM155.759 165.22C159.308 159.082 162.924 151.448 166.026 145.689C167.118 146.131 168.211 146.489 169.303 146.805C168.724 147.858 167.031 150.658 166.583 151.469C166.135 152.28 161.646 160.809 161.329 161.461C160.827 162.514 159.45 165.452 159.024 166.389C157.91 165.915 156.84 165.557 155.715 165.199L155.759 165.22ZM159.418 166.526C160.084 165.357 162.826 160.451 163.164 159.819C163.678 158.84 169.401 147.563 169.718 146.91C170.723 147.184 171.782 147.415 172.46 147.542C170.461 152.806 164.704 162.946 162.629 167.947C160.739 167.095 160.313 166.884 159.374 166.505L159.418 166.526ZM160.084 142.814L162.039 143.867C158.099 150.335 154.667 157.079 151.772 164.041L150.133 163.557C156.479 150.522 156.774 148.816 160.04 142.793L160.084 142.814ZM164.584 168.864L162.935 168.105C164.715 164.736 170.286 156.092 172.831 147.616C173.443 147.721 174.043 147.816 174.622 147.889C171.815 155.109 168.445 162.113 164.541 168.842L164.584 168.864ZM130.363 175.697C130.798 175.35 131.109 174.879 131.252 174.352C131.396 173.825 131.363 173.268 131.16 172.759C131.068 172.026 130.718 171.344 130.171 170.827C129.623 170.31 128.908 169.989 128.146 169.915C127.383 169.842 126.617 170.021 125.973 170.423C125.33 170.825 124.848 171.426 124.606 172.128C123.208 171.254 121.69 170.327 120.237 169.443C121.33 168.042 124.541 168.663 124.869 169.811C124.876 169.856 124.901 169.896 124.939 169.923C124.977 169.949 125.024 169.96 125.071 169.953C125.117 169.946 125.159 169.922 125.186 169.885C125.214 169.849 125.225 169.803 125.218 169.759C125.054 167.926 121.1 166.852 119.505 169.011C118.096 168.179 116.349 167.168 114.885 166.4C116.141 165.347 118.948 165.936 119.254 167.031C119.269 167.069 119.296 167.1 119.332 167.12C119.369 167.139 119.411 167.146 119.451 167.138C119.492 167.131 119.529 167.11 119.555 167.078C119.58 167.047 119.594 167.008 119.593 166.968C119.451 165.263 115.792 164.115 114.131 165.989C113.436 165.613 112.704 165.303 111.947 165.062C111.808 165.007 111.656 164.992 111.509 165.018C111.362 165.044 111.226 165.111 111.117 165.21C108.353 168.527 99.036 177.14 94.7323 178.14C94.6242 178.155 94.5222 178.198 94.4367 178.264C94.3511 178.33 94.2851 178.416 94.2453 178.515C94.2054 178.613 94.1931 178.719 94.2096 178.824C94.226 178.928 94.2707 179.026 94.3391 179.108C95.2842 180.033 96.3664 180.817 97.5505 181.435C96.4582 182.488 95.6062 183.436 94.9727 184.12C94.645 184.457 94.4702 190.901 94.7542 192.323C94.7965 192.462 94.8896 192.581 95.0163 192.66C96.3926 193.565 114.12 200.957 115.934 199.967C117.146 199.304 131.619 184.784 131.848 184.341C132.198 183.647 132.078 179.014 132.056 177.161C131.968 176.603 130.887 176.002 130.363 175.697V175.697ZM95.4096 189.606V187.258C99.9426 189.364 110.319 193.66 114.252 194.86C115.256 195.176 115.344 195.134 115.868 194.86C118.872 193.007 129.478 181.488 131.422 179.73V181.951C125.524 187.648 115.508 197.629 115.322 197.061C114.241 196.998 96.3489 190.027 95.4096 189.606ZM130.09 172.149C130.482 172.786 130.693 173.513 130.701 174.254C130.698 174.49 130.638 174.722 130.526 174.932C130.414 175.142 130.254 175.325 130.057 175.465C129.139 174.876 127.403 173.781 125.349 172.496C126.474 170.359 128.976 170.327 130.046 172.149H130.09ZM95.1365 178.887C99.7896 177.561 108.626 169.348 111.597 165.789C112.312 165.981 113.002 166.253 113.651 166.6C112.559 168.558 113.727 170.706 114.142 170.401C114.372 170.232 113.957 170.169 113.891 169.137C113.863 168.384 114.04 167.636 114.404 166.968C115.912 167.726 117.681 168.716 119.178 169.548C118.26 171.517 119.363 173.465 119.746 173.181C120.128 172.896 119.571 172.959 119.505 171.928C119.479 171.251 119.613 170.577 119.899 169.959C121.439 170.832 123.012 171.738 124.454 172.591C124.231 173.116 124.143 173.684 124.196 174.248C124.25 174.813 124.443 175.356 124.759 175.834C124.774 175.852 124.792 175.867 124.812 175.878C124.832 175.89 124.855 175.897 124.878 175.9C124.902 175.903 124.925 175.901 124.948 175.895C124.971 175.889 124.992 175.879 125.011 175.865C125.029 175.852 125.045 175.834 125.057 175.815C125.068 175.795 125.076 175.773 125.079 175.751C125.082 175.728 125.08 175.706 125.074 175.684C125.068 175.662 125.058 175.641 125.043 175.623C124.847 175.205 124.75 174.75 124.76 174.291C124.769 173.832 124.885 173.38 125.098 172.97C127.643 174.465 129.697 175.718 130.33 176.129C130.21 176.234 118.817 186.005 114.94 188.911C112.395 188.269 99.036 181.878 95.1365 178.887ZM95.5516 184.752C100.5 186.858 111.739 191.744 114.328 192.217C114.776 192.302 114.951 192.333 115.803 191.68C119.44 188.869 131.269 176.939 131.379 177.066C131.384 177.097 131.384 177.129 131.379 177.161V179.266C128.943 181.151 115.398 194.86 115.18 194.207C114.088 194.207 96.338 187.226 95.4314 186.837C95.4096 186.395 95.5079 185.215 95.5516 184.752V184.752ZM115.442 199.261C114.35 199.862 97.7143 193.344 95.486 192.017C95.4024 191.346 95.3622 190.671 95.3659 189.996C100.15 192.27 114.066 197.935 115.344 197.882C117.212 197.787 130.417 183.457 131.357 182.457C131.368 182.995 131.313 183.532 131.193 184.057C131.007 184.405 116.163 198.872 115.442 199.261V199.261ZM24.946 139.908C25.0225 141.035 25.0771 142.014 25.0771 142.93C25.0771 143.07 25.1346 143.204 25.2371 143.302C25.3395 143.401 25.4784 143.457 25.6232 143.457C25.7681 143.457 25.907 143.401 26.0094 143.302C26.1118 143.204 26.1694 143.07 26.1694 142.93C26.1694 141.951 26.1148 140.982 26.0383 139.834C26.0282 139.695 25.9609 139.565 25.8513 139.473C25.7417 139.381 25.5988 139.335 25.4539 139.345C25.3091 139.355 25.1742 139.419 25.079 139.525C24.9837 139.631 24.9359 139.769 24.946 139.908V139.908ZM191.378 118.797C191.307 118.801 191.237 118.819 191.173 118.849C191.109 118.879 191.052 118.922 191.005 118.974C190.958 119.026 190.922 119.086 190.9 119.152C190.878 119.217 190.87 119.286 190.876 119.355C190.941 120.324 191.007 121.366 191.007 122.377C191.007 122.517 191.064 122.651 191.167 122.749C191.269 122.848 191.408 122.903 191.553 122.903C191.698 122.903 191.837 122.848 191.939 122.749C192.041 122.651 192.099 122.517 192.099 122.377C192.099 121.324 192.033 120.271 191.957 119.281C191.953 119.213 191.934 119.145 191.903 119.084C191.871 119.022 191.827 118.967 191.773 118.922C191.72 118.876 191.657 118.842 191.589 118.821C191.521 118.799 191.449 118.791 191.378 118.797V118.797ZM22.117 137.286C22.2618 137.286 22.4008 137.231 22.5032 137.132C22.6056 137.033 22.6631 136.9 22.6631 136.76C22.6631 136.62 22.6056 136.486 22.5032 136.388C22.4008 136.289 22.2618 136.233 22.117 136.233C20.7953 136.233 19.6921 136.328 18.5998 136.307C18.454 136.307 18.3139 136.362 18.2097 136.461C18.1056 136.559 18.0456 136.693 18.0428 136.834C18.0428 136.973 18.1003 137.107 18.2027 137.206C18.3051 137.305 18.4441 137.36 18.5889 137.36C19.714 137.381 20.9482 137.339 22.117 137.286ZM187.992 115.68C186.681 115.68 185.578 115.754 184.475 115.765C184.33 115.765 184.191 115.82 184.089 115.919C183.986 116.018 183.929 116.151 183.929 116.291C183.929 116.431 183.986 116.565 184.089 116.663C184.191 116.762 184.33 116.818 184.475 116.818C185.654 116.818 186.878 116.818 188.058 116.733C188.202 116.725 188.338 116.661 188.434 116.557C188.53 116.452 188.58 116.315 188.571 116.175C188.562 116.036 188.496 115.905 188.388 115.812C188.279 115.719 188.137 115.672 187.992 115.68V115.68ZM24.6511 130.779C24.7166 131.748 24.7822 132.79 24.7822 133.801C24.785 133.94 24.8434 134.072 24.9452 134.17C25.0471 134.269 25.1844 134.325 25.3283 134.328C25.4732 134.328 25.6121 134.272 25.7145 134.173C25.8169 134.075 25.8745 133.941 25.8745 133.801C25.8745 132.748 25.8089 131.695 25.7434 130.706C25.7333 130.566 25.666 130.436 25.5564 130.344C25.4468 130.252 25.3039 130.206 25.159 130.216C25.0142 130.226 24.8793 130.291 24.784 130.396C24.6888 130.502 24.641 130.64 24.6511 130.779V130.779ZM191.804 113.248C191.804 112.195 191.739 111.142 191.662 110.153C191.652 110.013 191.585 109.883 191.475 109.791C191.365 109.699 191.223 109.653 191.078 109.663C190.933 109.673 190.798 109.738 190.703 109.843C190.607 109.949 190.56 110.087 190.57 110.226C190.635 111.195 190.701 112.237 190.701 113.248C190.701 113.388 190.758 113.522 190.861 113.62C190.963 113.719 191.102 113.775 191.247 113.775C191.393 113.775 191.533 113.72 191.637 113.621C191.741 113.523 191.801 113.389 191.804 113.248V113.248ZM32.7122 137.149C32.7839 137.147 32.8544 137.13 32.9196 137.101C32.9848 137.072 33.0434 137.031 33.0921 136.981C33.1408 136.93 33.1786 136.87 33.2034 136.805C33.2282 136.74 33.2394 136.671 33.2365 136.602C33.2255 136.464 33.1608 136.336 33.0554 136.242C32.9501 136.148 32.8119 136.096 32.6685 136.097C31.3468 136.149 30.2436 136.191 29.1404 136.17C28.9956 136.17 28.8567 136.226 28.7542 136.324C28.6518 136.423 28.5943 136.557 28.5943 136.697C28.5943 136.836 28.6518 136.97 28.7542 137.069C28.8567 137.168 28.9956 137.223 29.1404 137.223C30.3092 137.244 31.5325 137.202 32.7122 137.149ZM198.587 115.544C197.495 115.596 196.282 115.628 195.07 115.628C194.998 115.625 194.926 115.636 194.858 115.661C194.791 115.685 194.729 115.723 194.677 115.771C194.625 115.819 194.584 115.877 194.556 115.941C194.527 116.005 194.513 116.074 194.513 116.144C194.513 116.284 194.57 116.419 194.672 116.52C194.774 116.62 194.913 116.678 195.059 116.681C196.304 116.681 197.309 116.681 198.631 116.596C198.703 116.594 198.773 116.577 198.838 116.548C198.903 116.519 198.962 116.478 199.011 116.427C199.059 116.377 199.097 116.317 199.122 116.252C199.147 116.187 199.158 116.118 199.155 116.049C199.142 115.912 199.076 115.785 198.971 115.691C198.867 115.598 198.73 115.546 198.587 115.544V115.544ZM7.6114 105.951C7.7534 106.057 38.5559 101.655 39.8776 100.876C39.9508 100.825 40.0092 100.756 40.0474 100.677C40.0857 100.598 40.1024 100.511 40.0961 100.424C40.0961 99.0653 38.2501 86.3144 37.3653 83.1346C37.2561 82.745 37.1469 82.3554 36.8957 82.2185C35.2245 81.2498 5.77636 86.5987 4.01777 87.6937C3.97011 87.7209 3.92893 87.7574 3.89693 87.801C3.86494 87.8445 3.84284 87.8941 3.83208 87.9464C3.4607 89.2205 6.66111 105.32 7.6114 105.951V105.951ZM4.49838 88.1991C6.59557 87.2831 33.3239 82.566 36.3823 82.9345C37.125 84.7771 39.113 98.2756 39.2441 100.255C37.7258 100.687 8.02647 105.604 7.91724 105.625C7.80801 105.646 7.79709 105.772 7.56771 105.109C6.6065 102.329 4.44376 90.5787 4.49838 88.1991V88.1991Z" fill="black"/>
<path d="M42.2806 101.813C42.34 101.707 42.3665 101.586 42.357 101.466C42.357 99.7918 39.8666 81.2077 38.9818 79.7231C38.9125 79.6136 38.8143 79.5238 38.6973 79.4628C38.5802 79.4018 38.4485 79.3717 38.3155 79.3756C34.6564 78.9439 3.7883 84.7561 1.75664 86.1143C1.47264 86.3039 1.51633 86.7777 1.5491 87.2831C1.72387 90.0523 4.82597 108.268 5.91826 108.163C6.03841 108.163 5.99472 108.078 5.71072 108.636C4.00675 112.016 0.773579 122.84 0.839116 125.02C0.839116 125.936 1.05757 127.126 1.99694 127.063C8.73636 126.262 41.7781 121.208 51.281 119.324C51.6524 119.25 51.8927 118.923 51.8818 118.386C51.7696 117.492 51.4883 116.625 51.0516 115.828C49.719 113.417 44.1921 103.867 42.2806 101.813ZM5.9838 107.836C5.13181 106.783 1.99694 88.6414 2.23725 86.6303C4.64028 85.4299 35.0933 79.7547 38.2828 80.218C39.1566 82.5344 41.4176 99.2653 41.5596 101.276C37.6929 102.561 10.9209 106.731 5.9838 107.836ZM6.4644 108.152C7.38193 107.931 38.6323 102.887 41.4941 102.161C43.0561 103.561 50.1123 115.659 50.571 116.691C44.3013 117.744 7.10885 123.735 1.63649 124.535C1.71295 121.345 5.10996 110.195 6.4644 108.152V108.152Z" fill="black"/>
<path d="M10.5714 119.071C11.5217 118.934 31.6854 116.596 38.9709 114.691C39.0158 114.679 39.0543 114.652 39.0778 114.613C39.1014 114.575 39.1081 114.529 39.0965 114.485C39.0849 114.442 39.056 114.405 39.0161 114.382C38.9761 114.36 38.9284 114.353 38.8835 114.364C37.4526 114.649 19.9979 116.891 10.5496 118.744C10.5235 118.74 10.4966 118.741 10.4711 118.748C10.4456 118.755 10.4221 118.768 10.4023 118.785C10.3825 118.802 10.367 118.823 10.3569 118.846C10.3469 118.87 10.3425 118.896 10.3442 118.921C10.3459 118.947 10.3536 118.971 10.3668 118.994C10.3799 119.016 10.3981 119.035 10.42 119.049C10.4419 119.064 10.4669 119.073 10.4931 119.077C10.5194 119.081 10.5461 119.079 10.5714 119.071V119.071ZM25.3064 45.8085C24.8984 46.6968 24.5553 47.6116 24.2796 48.5461C24.2634 48.696 24.3063 48.8464 24.3998 48.9672C25.503 50.5677 36.8082 62.8553 39.7574 64.5821C40.1615 64.8242 40.6421 64.9927 40.937 64.6452C43.0794 62.0755 45.8753 60.0841 49.0527 58.8647C51.6389 57.9827 54.3503 57.4891 57.092 57.4011C59.2766 57.2116 59.6589 57.001 60.4999 55.6217C61.4921 53.8064 62.8084 52.174 64.3885 50.7993C66.4032 49.1012 68.6395 47.6641 71.0405 46.5244C71.1486 46.4654 71.2331 46.3732 71.2806 46.2626C71.3281 46.1519 71.3359 46.0291 71.3027 45.9137C70.9334 45.008 70.4452 44.1517 69.8499 43.3657C70.2431 43.2393 70.6801 43.1235 70.6801 42.7444C70.6801 41.6915 61.1553 28.4036 58.512 25.8977C58.2389 25.6345 57.8457 25.287 57.4852 25.308C52.0238 25.6029 46.7043 30.5727 43.6241 34.9107C40.096 34.7844 37.8131 34.479 33.7935 36.111C30.9558 37.2722 28.3974 38.9856 26.2785 41.144C25.9508 41.4704 23.7226 43.7447 23.6898 43.9237C23.657 44.1027 23.7226 44.1027 25.3064 45.8085V45.8085ZM68.9979 45.5136C64.4431 46.2612 61.5376 49.9149 59.3967 53.8844C58.4464 55.6533 58.5338 55.7375 57.5289 55.7165C55.7717 55.6205 54.009 55.684 52.2641 55.906C50.9842 56.0904 49.7259 56.3936 48.5066 56.8115C45.7322 57.7591 42.5536 60.7915 40.8606 63.0448C40.8246 63.0911 40.7789 63.1296 40.7264 63.1578C40.6739 63.1859 40.6159 63.203 40.5561 63.208C40.4962 63.2129 40.436 63.2056 40.3793 63.1866C40.3226 63.1676 40.2707 63.1372 40.2271 63.0974C36.6771 59.5702 30.3965 53.379 27.2397 49.8201C27.0868 49.6622 27.349 49.4305 27.5019 49.599C29.5445 51.7048 34.8202 56.7483 40.4783 62.234C42.3898 59.886 45.339 57.0431 48.2554 56.0534C49.8457 55.5066 51.5005 55.1529 53.1816 55.0005C54.7559 54.8852 56.3369 54.8852 57.9112 55.0005C58.5557 54.2845 61.7451 46.1559 68.9761 45.2504C68.9973 45.2654 69.0147 45.2848 69.027 45.3071C69.0393 45.3295 69.0463 45.3542 69.0473 45.3795C69.0484 45.4048 69.0435 45.43 69.033 45.4532C69.0226 45.4764 69.0069 45.4971 68.987 45.5136H68.9979ZM57.4743 26.1609C59.6589 27.635 68.5501 40.3227 69.7079 42.5444C67.6989 43.158 65.7593 43.9659 63.9188 44.9556C62.1759 45.7978 60.6499 47.0042 59.4519 48.4869C58.2539 49.9696 57.4141 51.6912 56.9937 53.5264C53.0724 47.3773 47.6 40.607 43.9627 35.6267C44.1811 35.4898 50.3198 26.5716 57.4743 26.1609V26.1609ZM34.0338 36.6901C38.0206 35.1423 40.2271 35.5003 43.5258 35.6372C46.8026 41.0282 52.6901 48.6303 56.5677 53.6106C52.9888 52.7942 49.2227 53.2936 46.0053 55.011C44.0719 56.0639 41.7126 58.5909 40.2598 60.1598C38.1626 58.5383 26.0601 46.1138 24.1158 44.008C27.1087 40.7439 29.8722 38.2906 34.0338 36.648V36.6901ZM14.0449 63.466C13.7749 63.2833 13.4558 63.1802 13.1262 63.1689C12.7966 63.1577 12.4707 63.239 12.188 63.4028C11.9822 63.4913 11.7964 63.618 11.6414 63.7757C11.4863 63.9334 11.365 64.119 11.2844 64.3218C11.2038 64.5247 11.1654 64.7409 11.1714 64.9581C11.1775 65.1753 11.2278 65.3892 11.3196 65.5876C11.4114 65.786 11.5429 65.9651 11.7065 66.1145C11.8701 66.264 12.0626 66.3809 12.273 66.4586C12.4835 66.5364 12.7078 66.5734 12.9331 66.5675C13.1584 66.5617 13.3803 66.5132 13.5861 66.4247C13.915 66.3554 14.2142 66.1914 14.4441 65.9544C14.674 65.7174 14.8238 65.4187 14.8735 65.0978C14.9233 64.7769 14.8707 64.449 14.7227 64.1575C14.5747 63.8661 14.3383 63.6249 14.0449 63.466V63.466ZM13.324 65.5718C12.5594 65.8035 12.1006 65.5718 11.9149 65.2138C11.5654 64.4662 12.0023 63.3186 13.1383 63.6555C13.9357 63.9398 14.5801 65.2349 13.324 65.6245V65.5718ZM69.5878 15.2842C69.9045 15.9054 71.3791 15.6738 72.0236 15.4737C72.3622 15.3685 72.5806 15.2526 72.6134 14.9368C72.7117 14.1471 72.821 7.30307 72.4496 6.63973C72.4112 6.57017 72.3524 6.51308 72.2805 6.47562C72.2086 6.43816 72.1268 6.42199 72.0454 6.42914C70.88 6.42603 69.7205 6.58924 68.6047 6.91349C68.1569 7.17672 69.1946 14.5893 69.5878 15.2842ZM68.8341 7.16619C69.8431 7.02704 70.8635 6.98121 71.8816 7.02931C71.9471 7.80847 71.7724 14.5577 71.7614 14.663C71.2999 14.8224 70.8072 14.88 70.3196 14.8315C70.2431 14.5893 70.1121 13.9365 69.9482 13.1152C69.4669 11.1528 69.095 9.16695 68.8341 7.16619V7.16619ZM12.9854 54.5793C13.0902 54.631 13.2062 54.658 13.324 54.658C13.4417 54.658 13.5578 54.631 13.6626 54.5793C14.0846 54.3284 14.4193 53.9618 14.6238 53.5264C14.6516 53.4567 14.6602 53.3813 14.6487 53.3075C14.6372 53.2336 14.606 53.164 14.5583 53.1052C14.034 52.505 8.31038 46.1138 7.61131 46.5139C6.75301 47.0495 5.93868 47.648 5.17551 48.3039C5.14475 48.3304 5.12011 48.3628 5.10318 48.3991C5.08624 48.4354 5.0774 48.4747 5.0772 48.5145C5.05536 49.062 11.4125 53.9686 12.9854 54.5793V54.5793ZM7.74239 46.7877C8.53976 47.3457 11.2268 50.5466 13.7172 53.379C13.6101 53.5416 13.4774 53.6872 13.324 53.8107C10.7056 52.1952 8.20566 50.4081 5.84181 48.4618C6.43439 47.8621 7.06944 47.3027 7.74239 46.7877V46.7877ZM24.9022 23.5602C25.1425 19.4749 27.6111 17.5796 30.1889 17.0952C29.4571 19.6854 29.5772 23.0548 32.2315 23.4865C33.4986 23.6865 34.1212 23.0548 35.0387 22.3177C38.96 19.159 35.7924 16.0002 31.3686 16.2213C33.0179 11.8622 36.83 8.31387 41.8873 8.19805C41.9337 8.19805 41.9781 8.1803 42.0109 8.14871C42.0437 8.11712 42.0621 8.07427 42.0621 8.02959C42.0621 7.98491 42.0437 7.94205 42.0109 7.91046C41.9781 7.87887 41.9337 7.86112 41.8873 7.86112C36.4259 7.75582 32.1332 11.5463 30.4401 16.2845C27.5237 16.7688 24.6292 18.8747 24.5527 23.497C24.5484 23.5191 24.5487 23.5419 24.5535 23.5639C24.5583 23.5859 24.5675 23.6068 24.5807 23.6254C24.5939 23.644 24.6108 23.6599 24.6303 23.6722C24.6499 23.6845 24.6718 23.6929 24.6947 23.6971C24.7177 23.7012 24.7412 23.701 24.7641 23.6963C24.7869 23.6917 24.8086 23.6828 24.8279 23.6701C24.8472 23.6574 24.8636 23.6411 24.8764 23.6223C24.8892 23.6034 24.8979 23.5823 24.9022 23.5602V23.5602ZM31.1174 16.9689C32.7449 16.8636 35.1698 17.348 35.8361 18.7694C36.2184 19.5801 35.8361 20.5804 34.4816 21.6755C34.1139 22.0306 33.6944 22.3321 33.2364 22.5704C31.598 23.2443 29.7848 21.2964 31.1174 16.9689ZM34.2413 165.884C33.186 165.611 32.0848 165.545 31.0026 165.689C29.9203 165.833 28.8788 166.184 27.9394 166.721C27 167.259 26.1817 167.972 25.5325 168.82C24.8834 169.667 24.4165 170.63 24.1595 171.654C23.6743 173.78 24.0852 176.006 25.302 177.84C26.5188 179.674 28.4417 180.968 30.6477 181.435C32.8537 181.903 35.1621 181.507 37.0651 180.334C38.9681 179.161 40.3098 177.308 40.795 175.181C41.0023 174.155 40.9969 173.1 40.7792 172.077C40.5615 171.053 40.1358 170.081 39.5266 169.217C38.9173 168.353 38.1367 167.613 37.2296 167.041C36.3224 166.469 35.3069 166.076 34.2413 165.884V165.884ZM37.6165 174.465C37.1782 176.15 36.129 177.628 34.6586 178.632C33.1881 179.637 31.3935 180.101 29.5991 179.94C27.9519 179.32 26.5845 178.159 25.7374 176.663C24.8902 175.167 24.6177 173.43 24.9678 171.759C25.3765 170.033 26.416 168.507 27.8961 167.459C29.3763 166.411 31.1982 165.912 33.0289 166.052C34.6923 166.715 36.06 167.922 36.8912 169.46C37.7223 170.999 37.9637 172.772 37.5728 174.465H37.6165Z" fill="black"/>
<path d="M48.7905 168.885C47.8396 168.568 46.8205 168.492 45.8304 168.663C45.4201 167.757 44.915 166.892 44.3231 166.084C45.0331 165.463 46.9773 163.736 46.5077 162.925C44.8361 160.998 42.8515 159.344 40.6311 158.029C39.704 157.528 38.683 157.21 37.6274 157.092C36.9283 157.187 35.268 159.808 34.8966 160.398C34.6563 160.398 33.8043 160.135 33.7388 160.103C33.7388 159.345 33.5094 156.607 32.7994 156.292C32.0055 156.01 31.181 155.816 30.3418 155.712C29.5663 155.597 22.5865 156.829 22.0732 157.734C21.7346 158.345 22.521 160.651 22.7504 161.293C22.1613 161.606 21.5956 161.957 21.0573 162.346C19.965 163.093 20.26 163.062 20.0634 162.978C19.8257 162.868 19.5711 162.797 19.3097 162.767C18.4371 162.274 17.4141 162.088 16.4151 162.241C15.4102 162.556 13.0399 167.758 12.6576 169.095C12.5325 169.432 12.4987 169.795 12.5593 170.148C12.8215 170.843 14.5691 171.401 15.301 171.622C15.0989 172.977 15.0989 174.353 15.301 175.708C14.3398 175.96 12.3409 176.529 12.4501 177.476C12.5593 178.424 15.1153 184.678 16.1748 185.173C16.7552 185.486 17.397 185.679 18.0592 185.739C18.7213 185.798 19.389 185.724 20.0197 185.521C20.3748 185.35 20.7178 185.156 21.0464 184.942C21.4833 185.258 21.9421 185.542 22.4118 185.816C22.0732 186.626 21.3195 188.437 21.5598 189.259C21.6799 189.69 22.0404 189.827 22.5429 190.006C23.9301 190.491 31.4013 192.217 32.5373 192.028C32.9633 191.965 33.1927 191.533 33.3237 191.122C33.5664 190.188 33.7092 189.232 33.7497 188.269C34.3107 188.215 34.8685 188.135 35.4209 188.027C35.7583 188.599 36.1899 189.115 36.6989 189.553C37.256 189.932 37.7257 189.743 38.3592 189.353C38.665 189.732 39.1238 190.259 39.6153 190.312C40.8496 190.448 45.9506 185.816 46.4749 184.868C46.9118 184.078 45.3171 182.667 44.6071 182.046C45.3751 180.932 45.9781 179.72 46.3984 178.445C47.1863 178.56 47.9835 178.602 48.7796 178.571C49.1401 178.571 49.5551 178.445 49.7081 178.119C50.3744 176.655 50.1778 171.106 49.7081 169.695C49.6425 169.285 49.151 169.011 48.7905 168.885V168.885ZM49.0527 169.853C49.4241 171.222 49.5442 176.392 48.9981 177.729C48.0537 177.819 47.1008 177.776 46.1691 177.603C46.0696 177.586 45.9673 177.606 45.8824 177.659C45.7975 177.712 45.7361 177.793 45.7103 177.887C45.2753 179.311 44.6 180.655 43.7114 181.867C43.6481 181.947 43.6196 182.048 43.6318 182.148C43.644 182.248 43.696 182.34 43.7769 182.404C44.5433 182.99 45.1944 183.703 45.6994 184.51C45.1532 185.373 40.8824 189.143 39.7027 189.459C39.5279 189.459 39.0473 188.827 38.9272 188.658C38.5237 188.074 38.1589 187.466 37.8349 186.837C37.7876 186.745 37.7065 186.674 37.6075 186.637C37.5085 186.6 37.3987 186.6 37.2997 186.637C34.132 187.785 32.9305 187.111 32.9305 187.869C32.9319 189.004 32.7401 190.131 32.3625 191.207C29.7956 190.937 27.2677 190.394 24.8257 189.585C24.9437 188.461 25.2692 187.366 25.7869 186.353C26.1146 185.647 24.8039 185.847 22.3572 183.446C22.2784 183.376 22.175 183.337 22.0677 183.337C21.9604 183.337 21.857 183.376 21.7782 183.446C20.686 184.31 19.266 185.152 18.982 185.015C18.4249 184.752 15.858 179.14 15.7051 178.003C16.482 177.481 17.364 177.122 18.2938 176.95C18.393 176.923 18.4787 176.862 18.5349 176.779C18.5911 176.696 18.6141 176.596 18.5997 176.497C18.332 175.006 18.332 173.482 18.5997 171.991C18.6164 171.899 18.5964 171.804 18.5437 171.726C18.491 171.648 18.4095 171.592 18.3157 171.57C17.4922 171.362 16.6995 171.054 15.9563 170.653C15.716 170.485 15.7379 170.496 15.7597 170.317C16.4667 167.859 17.6005 165.534 19.1131 163.441C19.7029 163.283 21.2976 164.41 21.8438 164.81C21.9009 164.863 21.9773 164.893 22.0568 164.893C22.1363 164.893 22.2127 164.863 22.2698 164.81C22.7717 164.308 23.3121 163.843 23.8864 163.42C25.5466 162.209 25.9945 162.367 25.8525 161.946C25.3504 160.889 25.0683 159.748 25.0223 158.587C25.1916 158.451 25.3837 158.344 25.5903 158.271C26.6101 157.882 27.6578 157.566 28.7252 157.323C30.019 156.976 31.3488 156.768 32.6902 156.702C32.9196 156.797 33.1271 157.755 33.1817 158.05C33.5859 160.156 33.3128 160.588 33.6296 160.619C36.7426 160.914 37.3761 161.746 37.5946 161.377C38.2003 160.356 38.9062 159.394 39.7027 158.503C39.9321 158.282 39.9212 158.176 40.6093 158.555C42.6651 159.85 44.5063 161.437 46.0708 163.262C46.2346 163.536 44.8146 164.989 43.7769 165.842C43.4165 166.147 43.9299 166.284 44.8692 168.011C45.8086 169.737 45.5901 170.222 46.0926 170.116C47.0612 169.893 48.058 169.804 49.0527 169.853V169.853ZM200.651 81.871C198.362 80.9695 195.961 80.3572 193.508 80.0495C191.717 79.7757 189.608 79.502 187.828 79.2808C189.543 76.9433 194.622 71.0259 195.474 69.5834C195.714 69.1938 195.256 68.6463 194.917 68.3199C193.016 66.3615 189.346 65.6244 186.528 65.2033C184.912 64.9506 178.161 64.1503 177.014 64.6768C175.638 65.3086 165.458 80.0495 165.152 82.2922C165.152 82.6712 165.283 82.8187 165.665 82.9555C167.271 83.5241 174.513 84.4086 176.13 84.7771C173.945 88.4623 164.235 100.918 163.284 102.677C163.055 103.119 163.197 103.382 163.47 103.466C164.453 103.843 165.464 104.145 166.496 104.372C166.889 104.488 167.752 103.972 169.008 103.235C174.644 99.9708 198.827 84.577 200.684 82.587C200.735 82.5403 200.776 82.4835 200.802 82.4205C200.829 82.3575 200.841 82.2897 200.838 82.2218C200.835 82.1539 200.816 82.0874 200.784 82.0269C200.752 81.9664 200.707 81.9132 200.651 81.871V81.871ZM177.178 94.5061C167.894 100.413 164.759 102.14 164.65 102.213C166.146 100.013 175.441 87.7358 177.036 84.7982C177.064 84.7414 177.078 84.6794 177.078 84.6167C177.078 84.5539 177.063 84.4921 177.035 84.4355C177.006 84.379 176.965 84.3293 176.915 84.29C176.864 84.2508 176.805 84.2229 176.741 84.2085C175.649 83.8295 167.697 83.0082 165.818 82.3659C166.059 80.4075 175.977 65.6034 177.178 65.0137C178.38 64.4241 190.034 65.7613 192.219 67.267C191.072 69.4255 184.737 76.9855 183.71 78.7439C183.503 79.1018 183.437 79.4493 183.841 79.5441C184.245 79.6388 194.513 80.797 196.752 81.5025C194.021 83.7031 180.237 92.5266 177.178 94.464V94.5061ZM107.108 30.1304C107.108 30.2252 107.173 30.341 107.337 30.9517C107.38 31.0842 107.475 31.1954 107.601 31.2622C107.727 31.3289 107.875 31.346 108.014 31.3097C108.154 31.2706 108.271 31.1798 108.34 31.0574C108.41 30.935 108.426 30.7909 108.386 30.6569C108.277 30.2462 108.178 29.8988 108.113 29.7303C108.049 29.6147 107.943 29.526 107.815 29.4817C107.688 29.4374 107.547 29.4405 107.422 29.4904C107.296 29.5404 107.195 29.6336 107.137 29.752C107.079 29.8703 107.068 30.0052 107.108 30.1304V30.1304Z" fill="black"/>
</svg>
