<svg width="201" height="201" viewBox="0 0 201 201" fill="none" xmlns="http://www.w3.org/2000/svg">
<path fill-rule="evenodd" clip-rule="evenodd" d="M53.6726 69.7961C53.8641 69.9141 54.0716 69.9809 54.283 69.9928C54.4943 70.0046 54.7054 69.9613 54.904 69.8653C54.9427 69.8527 54.9773 69.8233 55.0018 69.782C55.0265 69.7405 55.0399 69.6895 55.0399 69.6372C55.0399 69.5846 55.0265 69.5336 55.0018 69.4923C54.9773 69.4508 54.9427 69.4216 54.904 69.4088C54.0859 68.9463 53.3901 68.1765 52.9042 67.1957C52.8916 67.1452 52.8663 67.1016 52.8325 67.0725C52.7988 67.0433 52.7582 67.03 52.718 67.0348C52.6777 67.0395 52.6398 67.0622 52.6105 67.0991C52.5812 67.1358 52.5623 67.1844 52.5569 67.2372C52.506 67.7651 52.5873 68.3005 52.7886 68.7622C52.99 69.224 53.3002 69.5869 53.6726 69.7961ZM132.874 36.0324C123.402 37.6507 117.171 38.7988 117.171 38.7988C117.002 38.7988 117.065 39.0201 117.065 39.2414V100.71C117.065 100.821 117.329 100.918 117.423 100.932C125.222 102.094 136.716 103.255 148.493 104.293C156.493 104.984 195.173 107.723 195.173 107.723C195.282 107.723 195.387 107.669 195.467 107.571C195.509 107.524 195.544 107.464 195.569 107.397C195.592 107.33 195.603 107.258 195.603 107.184C195.666 101.997 196.424 28.0514 196.424 28.0514C196.424 27.9737 196.413 27.897 196.39 27.8258C196.365 27.7546 196.33 27.69 196.288 27.6364C196.246 27.5816 196.194 27.5389 196.139 27.5104C196.082 27.482 196.022 27.4682 195.961 27.4705C183.532 28.494 169.354 30.3198 156.482 32.2286C147.683 33.5703 139.484 34.8982 132.874 36.0324ZM195.551 28.7015L194.773 106.644C192.731 106.534 156.535 104.182 148.525 103.56C136.832 102.647 125.37 101.609 117.592 100.544V39.684C119.318 39.3659 156.051 33.3905 164.46 32.2425C174.891 30.8039 185.742 29.5037 195.551 28.7015Z" fill="black"/>
<path fill-rule="evenodd" clip-rule="evenodd" d="M134.19 68.4404C134.168 75.4318 136.253 82.1501 139.989 87.1273C141.839 89.5997 144.045 91.5638 146.478 92.9055C148.911 94.246 151.523 94.9366 154.161 94.9366C156.8 94.9366 159.412 94.246 161.846 92.9055C164.279 91.5638 166.484 89.5997 168.333 87.1273C171.151 83.3811 173.051 78.6149 173.793 73.4393C174.534 68.2636 174.08 62.9149 172.491 58.0803C173.921 58.0868 175.324 57.5559 176.532 56.5502C177.74 55.5445 178.705 54.1058 179.312 52.4037C179.919 50.7016 180.144 48.8066 179.958 46.9426C179.773 45.0786 179.188 43.3229 178.268 41.8824C177.349 40.4416 176.136 39.3763 174.771 38.8117C173.408 38.2469 171.949 38.2061 170.567 38.6948C169.186 39.1831 167.94 40.1803 166.975 41.5685C166.011 42.957 165.368 44.6784 165.123 46.5307C162.112 43.9494 158.628 42.4827 155.036 42.2848C151.443 42.0871 147.878 43.1655 144.712 45.4065C141.548 47.6475 138.901 50.9684 137.051 55.0194C135.201 59.0704 134.216 63.7021 134.2 68.4266L134.19 68.4404ZM170.523 46.1295L171.775 49.8641L174.343 41.3437L175.775 42.5194L172.807 53.0593L170.702 53.3221L168.933 48.2458L170.523 46.1295ZM154.156 42.7545C158.053 42.7686 161.851 44.3681 165.029 47.3329V48.2458C165.029 50.678 165.714 53.0241 166.952 54.8323C168.19 56.6403 169.893 57.7825 171.733 58.0388C173.301 62.7374 173.761 67.9465 173.051 72.9919C172.343 78.0375 170.497 82.6873 167.755 86.3389C165.982 88.6984 163.87 90.5715 161.542 91.8498C159.214 93.1281 156.716 93.7863 154.193 93.7863C151.67 93.7863 149.173 93.1281 146.844 91.8498C144.516 90.5715 142.405 88.6984 140.631 86.3389C137.045 81.5621 135.027 75.1278 135.009 68.4173C134.992 61.7068 136.976 55.2546 140.537 50.4451C142.301 48.0328 144.415 46.1094 146.754 44.7886C149.093 43.4675 151.611 42.7759 154.156 42.7545Z" fill="black"/>
<path fill-rule="evenodd" clip-rule="evenodd" d="M142.894 58.357L146.42 58.4815C146.483 59.1316 148.525 76.9194 148.525 76.9194C148.54 77.0527 148.591 77.1744 148.668 77.2632C148.745 77.352 148.844 77.4013 148.946 77.4035L161.176 77.0577C161.215 77.0449 161.249 77.0157 161.274 76.9742C161.299 76.933 161.312 76.8819 161.312 76.8294C161.312 76.7768 161.299 76.726 161.274 76.6845C161.249 76.643 161.215 76.6138 161.176 76.6013C161.176 76.6013 155.061 76.3385 153.809 76.3108H149.283C149.22 75.7437 149.093 74.7063 148.936 73.3923C149.988 73.3923 160.134 73.0603 160.134 73.0603C160.235 73.058 160.333 73.0077 160.408 72.9187C160.483 72.8299 160.533 72.7082 160.545 72.5762L161.597 62.7832C161.603 62.7037 161.598 62.6235 161.58 62.5473C161.561 62.4711 161.531 62.4007 161.492 62.3406C161.452 62.2795 161.401 62.2304 161.345 62.1972C161.289 62.1638 161.227 62.1467 161.166 62.1469C161.166 62.1469 148.536 62.5204 147.578 62.5757C146.936 57.8867 146.978 57.7622 146.641 57.7622L142.852 57.942C142.805 57.942 142.759 57.9667 142.726 58.0107C142.691 58.0549 142.673 58.1148 142.673 58.1772C142.673 58.2395 142.691 58.2994 142.726 58.3434C142.759 58.3874 142.805 58.4123 142.852 58.4123L142.894 58.357ZM156.503 71.6218V72.1474C156.166 72.1474 153.251 72.424 152.209 72.5347C152.212 71.1115 152.12 69.6906 151.935 68.2883L156.619 68.15C156.507 69.301 156.468 70.4622 156.503 71.6218ZM157.703 64.0142V63.2258H160.724L160.303 67.2371H159.419C158.913 67.2371 158.282 67.1679 157.587 67.1541C157.677 66.1116 157.715 65.0629 157.703 64.0142ZM157.503 68.1638C158.24 68.0946 158.903 68.0117 159.429 67.9425L160.24 67.8318L159.808 71.9814L156.977 72.1751C156.977 72.0506 156.977 71.9122 157.05 71.7601C157.274 70.5557 157.425 69.33 157.503 68.0946V68.1638ZM157.229 63.295C156.984 64.5484 156.811 65.8244 156.714 67.1126L151.819 67.2924C151.675 65.8876 151.446 64.5001 151.135 63.1428C153.398 63.1843 154.966 63.212 157.229 63.2258V63.295ZM151.788 72.6453L148.936 72.922C148.757 71.5388 148.557 69.8928 148.346 68.2191L149.493 68.3021H151.072C151.217 69.7509 151.456 71.1809 151.788 72.5762V72.6453ZM150.735 63.1705C150.743 64.5605 150.831 65.9474 150.998 67.3201L149.525 67.486L148.315 67.6382C148.23 66.9328 147.83 63.8482 147.725 63.046C148.251 63.0875 149.388 63.0875 150.693 63.0875L150.735 63.1705Z" fill="black"/>
<path fill-rule="evenodd" clip-rule="evenodd" d="M200.826 21.8544C200.782 21.8013 200.73 21.7609 200.674 21.7347C200.617 21.7085 200.558 21.6975 200.498 21.7023C186.668 22.878 170.891 24.9666 156.566 27.152C146.767 28.6459 112.813 34.6628 112.813 34.6628C112.645 34.6628 112.729 34.8841 112.729 35.1054V105.551C112.729 105.662 113.003 105.759 113.097 105.773C121.654 107.073 134.232 108.387 147.157 109.549C147.43 110.932 148.578 116.465 149.136 120.725C149.332 122.018 149.427 123.334 149.42 124.653C149.429 124.891 149.385 125.126 149.293 125.331C148.241 126.714 142.252 129.135 142.073 129.232C141.985 129.266 141.907 129.34 141.856 129.441C141.804 129.543 141.78 129.664 141.789 129.785L141.957 132.468C141.963 132.593 142.001 132.71 142.067 132.799C142.133 132.888 142.221 132.942 142.315 132.952C166.934 137.268 165.471 137.199 165.692 137.102C167.84 135.912 169.923 134.526 171.923 132.952C172.542 132.452 173.111 131.853 173.617 131.168C173.903 130.8 174.079 130.309 174.112 129.785C173.878 127.815 173.526 125.873 173.059 123.975C172.007 119.314 170.544 113.325 170.081 111.527L199.614 113.588C199.67 113.593 199.727 113.583 199.781 113.556C199.832 113.531 199.88 113.49 199.92 113.435C199.961 113.387 199.993 113.327 200.014 113.26C200.037 113.193 200.047 113.121 200.047 113.048C200.119 107.1 200.961 22.3662 200.961 22.3662C200.971 22.2729 200.961 22.1778 200.938 22.089C200.915 22.0003 200.877 21.92 200.826 21.8544ZM153.998 133.893L142.747 131.901L142.631 130.089H142.726C143.599 130.255 150.146 131.362 151.451 131.555C154.282 131.97 164.45 133.312 165.134 133.395C164.98 134.232 164.98 135.103 165.134 135.94L153.998 133.893ZM172.438 124.128C172.862 125.935 173.172 127.786 173.364 129.66C173.327 129.927 173.219 130.166 173.059 130.338C172.586 130.943 172.059 131.472 171.491 131.915C169.687 133.327 167.813 134.579 165.881 135.663C165.968 134.838 165.917 133.999 165.734 133.201C166.281 132.897 168.165 131.818 169.849 130.753C170.809 130.181 171.728 129.501 172.596 128.72C172.613 128.699 172.625 128.675 172.634 128.647C172.643 128.619 172.648 128.59 172.648 128.561C172.648 128.531 172.643 128.502 172.634 128.474C172.625 128.447 172.613 128.422 172.596 128.402C172.563 128.358 172.517 128.333 172.47 128.333C172.423 128.333 172.377 128.358 172.344 128.402C171.691 128.939 171.004 129.401 170.291 129.785C168.365 130.878 165.86 132.109 165.344 132.358C164.881 132.358 144.641 129.729 143.641 129.591C149.957 126.7 149.957 125.898 150.051 124.653C150.041 123.257 149.917 121.866 149.683 120.504C149.072 116.354 147.862 111.098 147.494 109.438L170.07 111.499H169.702C170.07 113.034 171.491 119.314 172.438 124.155V124.128ZM199.226 112.357C197.046 112.232 156.619 109.59 147.704 108.802C134.685 107.737 121.928 106.547 113.255 105.316V35.5065C115.097 35.1607 156.072 28.2862 165.428 26.9584C177.006 25.3124 189.164 23.8047 200.089 22.8918L199.226 112.357Z" fill="black"/>
<path fill-rule="evenodd" clip-rule="evenodd" d="M165.46 125.635C164.892 125.635 157.24 125.137 156.535 125.124C155.83 125.11 152.062 125.124 152.062 125.124C152.038 125.121 152.014 125.126 151.992 125.136C151.97 125.147 151.949 125.162 151.932 125.182C151.914 125.203 151.9 125.228 151.89 125.256C151.879 125.284 151.874 125.314 151.872 125.345C151.872 125.405 151.89 125.462 151.921 125.506C151.952 125.55 151.995 125.577 152.04 125.58C152.493 125.58 158.303 126.534 165.428 126.659H169.902C169.924 126.662 169.947 126.66 169.968 126.652C169.99 126.643 170.01 126.629 170.027 126.609C170.045 126.588 170.058 126.564 170.067 126.538C170.076 126.51 170.081 126.481 170.081 126.451C170.082 126.42 170.079 126.389 170.071 126.36C170.063 126.331 170.052 126.304 170.036 126.281C170.02 126.258 170.001 126.239 169.98 126.226C169.959 126.212 169.936 126.205 169.912 126.202C169.912 126.202 166.492 125.746 165.46 125.635ZM184.363 73.4614L185.51 76.2278L186.426 75.3564L185.321 72.8528L187.037 71.7601L182.448 66.4348L182.711 74.5126L184.363 73.4614ZM179.227 81.7052C179.216 81.7316 179.21 81.7618 179.209 81.7917C179.208 81.8226 179.211 81.8528 179.219 81.8815C179.227 81.9104 179.239 81.9358 179.255 81.9577C179.271 81.9806 179.29 81.9979 179.311 82.0095C179.677 82.3576 180.057 82.6815 180.448 82.9777C180.89 83.3097 181.9 83.9045 182.374 84.1535C182.658 84.3056 184.29 85.094 184.416 84.7344C184.426 84.708 184.433 84.6778 184.434 84.6479C184.435 84.6167 184.432 84.5868 184.424 84.5581C184.416 84.5292 184.404 84.5038 184.388 84.4819C184.372 84.459 184.353 84.4417 184.332 84.4301L183.879 84.0151C182.716 83.0388 181.45 82.2929 180.122 81.802C179.711 81.6499 179.459 81.5945 179.459 81.5945C179.416 81.5704 179.369 81.5681 179.326 81.5888C179.283 81.6096 179.247 81.6511 179.227 81.7052ZM175.101 93.739C174.494 92.4446 173.637 91.3853 172.617 90.6683C172.601 90.6474 172.582 90.6303 172.562 90.6197C172.541 90.6084 172.519 90.6026 172.496 90.6026C172.473 90.6026 172.451 90.6084 172.43 90.6197C172.41 90.6303 172.391 90.6474 172.375 90.6683C172.359 90.6889 172.347 90.7143 172.338 90.741C172.33 90.7686 172.325 90.7973 172.325 90.8272C172.325 90.8574 172.33 90.8861 172.338 90.9137C172.347 90.9404 172.359 90.9655 172.375 90.9864C172.445 91.1823 172.527 91.3725 172.617 91.5535C173.223 92.7961 174.06 93.8149 175.048 94.5135C175.063 94.5367 175.082 94.555 175.103 94.5689C175.124 94.5814 175.147 94.5872 175.17 94.5872C175.192 94.5872 175.215 94.5814 175.236 94.5689C175.257 94.555 175.276 94.5367 175.291 94.5135C175.321 94.4698 175.338 94.4132 175.338 94.3544C175.338 94.2958 175.321 94.2392 175.291 94.1954L175.101 93.739ZM130.727 76.2416C130.702 76.1916 130.662 76.1553 130.618 76.1402C130.574 76.1249 130.526 76.1314 130.485 76.1586C128.293 77.2325 126.249 78.7693 124.433 80.7093C124.395 80.7428 124.367 80.7946 124.356 80.8521C124.344 80.911 124.349 80.9734 124.37 81.0274C124.394 81.0805 124.433 81.1185 124.478 81.1336C124.523 81.1497 124.572 81.1404 124.612 81.1104C126.799 80.0222 128.842 78.4859 130.664 76.5597C130.703 76.5258 130.73 76.475 130.741 76.4164C130.753 76.3578 130.748 76.2957 130.727 76.2416ZM135.705 87.6253C134.695 88.4102 133.753 89.3382 132.895 90.3916C129.643 94.1124 130.485 94.1954 130.664 93.9741C130.664 93.9741 130.959 93.7528 131.411 93.3517C133.091 91.8231 134.615 90.0194 135.948 87.9849C135.965 87.9653 135.979 87.9421 135.99 87.9157C136 87.8903 136.006 87.8617 136.008 87.8315C136.01 87.8015 136.008 87.7729 136.001 87.744C135.994 87.715 135.984 87.6899 135.969 87.6668C135.955 87.6436 135.936 87.6253 135.916 87.6114C135.897 87.5976 135.875 87.5895 135.852 87.5873C135.829 87.585 135.807 87.5873 135.785 87.5963C135.764 87.6056 135.744 87.6195 135.727 87.6391L135.705 87.6253ZM152.135 150.56C151.293 149.805 150.366 149.227 149.388 148.845C149.351 148.612 149.28 148.391 149.178 148.195C148.991 147.864 148.755 147.587 148.483 147.379C147.557 146.69 146.532 146.261 145.473 146.12C144.154 145.905 142.814 146.128 141.578 146.771C139.6 147.849 134.748 151.764 129.338 154.309C126.563 155.723 123.62 156.482 120.644 156.55C116.587 156.577 112.541 157.147 108.572 158.251C103.404 159.634 98.7832 161.46 97.1308 162.802L93.8364 156.494H93.9311C94.6644 156.122 95.3696 155.659 96.0362 155.111C96.522 154.769 96.9484 154.299 97.2886 153.728C97.3124 153.678 97.3246 153.621 97.3246 153.562C97.3246 153.503 97.3124 153.446 97.2886 153.396C97.2527 153.309 97.1922 153.245 97.1202 153.216C97.0089 153.123 96.8879 153.049 96.7624 152.995C95.4643 152.928 94.1644 152.956 92.8681 153.078C90.0632 143.754 86.4766 134.869 82.1747 126.59C79.6318 121.682 76.8174 117.026 73.7546 112.661C74.9755 109.646 76.3543 106.063 78.6909 99.1887C79.5478 98.639 80.2861 97.8149 80.8378 96.7923C81.3895 95.771 81.7369 94.5827 81.8484 93.3378C83.1115 93.9741 83.9533 91.595 84.2164 89.6862C85.8373 90.5161 88.7633 91.9823 90.4157 92.6739C90.685 92.8029 90.964 92.8952 91.2472 92.9505C92.3734 92.9505 96.5098 84.9972 97.2465 83.2682C97.4614 82.8095 97.5983 82.2954 97.6465 81.7605C97.635 81.5807 97.5921 81.4077 97.5202 81.2545C97.4492 81.1011 97.3518 80.9709 97.236 80.8753C95.6151 79.2431 88.458 77.0853 85.732 76.5459C83.3746 76.0894 83.4481 76.2001 82.0063 78.6069C81.459 79.5198 80.8591 80.5986 80.3433 81.5392C79.3873 81.583 78.4379 81.764 77.5121 82.0787C74.2914 83.1852 73.302 84.7067 72.7547 87.2933C72.2991 89.3115 72.0895 91.4129 72.1337 93.5177C69.5235 96.9065 67.5868 99.5899 65.5134 102.536C60.1054 96.6079 54.1803 91.5477 47.8627 87.4593L48.4942 81.9265C52.1149 81.9265 57.1143 80.5433 58.3984 76.0756C58.9947 73.8716 59.4456 71.6039 59.7456 69.298C60.1561 66.2688 60.3245 63.6269 60.3771 62.714L62.419 61.4553C62.5072 61.401 62.578 61.3072 62.6186 61.1907C62.659 61.074 62.6666 60.9422 62.64 60.819C62.64 60.819 60.1035 48.3703 59.9456 47.5127C61.2612 47.1254 62.2401 46.7658 62.2401 46.7658C62.2401 24.6347 46.4523 20.001 46.4523 20.001C46.4523 20.001 51.4413 11.7019 52.0307 6.33512C52.6201 0.968341 47.6101 -0.829807 41.0319 1.48012C34.4537 3.79005 38.7479 19.0328 38.7479 19.0328C35.7483 18.1614 30.0857 22.6153 30.0857 22.6153C25.8757 -6.22425 14.3505 5.87867 13.2454 14.413C12.1403 22.9472 26.7703 24.8975 26.7703 24.8975C16.9714 30.292 13.5296 73.8072 13.5296 73.8072C15.782 76.0894 20.2658 77.4865 25.1073 78.3302C15.9732 86.7941 8.97271 98.6538 5.00421 112.384C3.26469 118.306 2.08065 124.483 1.47826 130.781C0.359497 143.379 1.07387 156.142 3.58329 168.39C5.17585 176.535 7.28834 184.489 9.89841 192.167C9.91655 192.222 9.95059 192.265 9.99304 192.287C10.014 192.298 10.0365 192.304 10.0591 192.303C10.0816 192.303 10.1039 192.296 10.1247 192.284C10.1454 192.273 10.1642 192.256 10.1798 192.234C10.1956 192.213 10.2079 192.187 10.2163 192.16C10.2246 192.132 10.2286 192.103 10.2283 192.074C10.2279 192.044 10.2231 192.015 10.2142 191.987C7.69716 184.293 5.66588 176.341 4.14113 168.21C1.74227 156.025 1.10676 143.356 2.26765 130.864C2.88534 124.656 4.06915 118.567 5.7936 112.73C9.76183 99.0839 16.7814 87.3371 25.9283 79.0356C43.0106 82.1893 66.3133 98.4003 81.6379 127.074C85.9839 135.28 89.6237 144.093 92.4892 153.354C88.6431 158.011 84.4059 162.076 79.8592 165.471C77.5789 167.184 75.2162 168.699 72.7863 170.008C70.3666 171.324 67.8668 172.37 65.3134 173.134C63.4189 169.593 54.2725 148.845 54.1989 148.735C54.1887 148.708 54.1747 148.684 54.1575 148.664C54.1403 148.645 54.1202 148.631 54.0988 148.622C54.077 148.612 54.0542 148.609 54.0316 148.612C54.009 148.615 53.9872 148.624 53.9673 148.638C53.9453 148.65 53.926 148.67 53.9101 148.693C53.8944 148.717 53.8825 148.745 53.8756 148.775C53.8686 148.805 53.8666 148.837 53.8697 148.868C53.8728 148.899 53.881 148.93 53.8936 148.956C53.8936 148.956 54.3146 150.173 55.0303 152.096C57.4511 158.583 61.4296 167.906 64.9977 173.411C63.9451 175.638 62.1138 180.603 64.1136 180.396C65.366 180.271 66.9343 178.169 67.2711 177.906C72.0507 184.579 77.5297 190.321 83.5428 194.961C87.816 198.087 92.4997 200.369 97.0781 200.494H97.1413C103.277 199.11 109.771 194.574 115.792 188.944C126.012 179.386 134.937 166.813 138.789 161.709C139.426 160.871 140.105 160.089 140.821 159.371C141.971 159.636 143.136 159.779 144.305 159.8C145.182 159.82 146.058 159.746 146.925 159.579C148.419 159.351 149.857 158.695 151.135 157.656C151.819 157.106 152.422 156.399 152.914 155.568C153.29 154.952 153.49 154.184 153.482 153.396C153.467 152.907 153.358 152.432 153.167 152.013C152.905 151.439 152.554 150.943 152.135 150.56ZM30.4541 79.0495C37.9901 79.8102 44.9683 79.5889 44.9683 79.5889C44.5894 76.2969 41.2003 60.5562 41.2003 60.5562C38.5585 60.8329 36.2429 58.3431 37.8743 53.5158C39.5057 48.6884 43.3158 52.1326 43.3158 52.1326C46.4828 50.7187 49.3376 48.3062 51.6307 45.106C51.9467 46.2658 52.4494 47.3226 53.1042 48.2043C53.7778 49.1034 57.1038 48.3288 59.5456 47.6234C59.714 48.8406 59.9982 50.6526 60.314 52.5337C60.5455 53.986 61.6086 59.9476 61.7349 60.6392L59.7561 61.7043C59.272 61.9947 59.7561 62.4788 58.851 68.966C58.5645 71.2043 58.1351 73.4068 57.5669 75.55C57.2929 76.3895 56.895 77.149 56.3965 77.785C55.8978 78.4213 55.3082 78.9215 54.662 79.2569C52.6096 80.3565 50.4251 80.9698 48.21 81.0689C48.1364 81.0654 48.0644 81.0989 48.0093 81.1635C47.9544 81.2279 47.9205 81.3179 47.9153 81.4147L46.8102 86.7953C41.6025 83.3962 36.1143 80.7968 30.4541 79.0495ZM82.0274 92.4111C81.5011 92.4111 82.2694 89.0638 82.301 88.8563L83.6586 89.5479C83.4586 90.5023 82.8483 92.3973 82.0274 92.4111ZM83.6375 77.279C86.1951 77.4311 95.4257 80.4742 96.5729 81.8988C96.3519 83.3512 92.9628 89.2159 91.6682 91.0556C90.8262 92.2313 92.7207 92.8399 79.9118 87.0997C80.5644 85.7995 81.5643 83.4757 80.4486 82.9501C80.2901 82.8925 80.1227 82.8925 79.9644 82.9501C81.0885 80.9351 82.3307 79.0392 83.6796 77.279H83.6375ZM81.459 88.3445C81.2801 89.1329 81.0064 91.4567 80.4696 91.1109C79.9329 90.7651 80.1539 88.7318 80.396 87.8051L81.459 88.3445ZM66.8606 104.071L65.8081 102.896C66.4186 102.176 70.0182 97.847 70.3444 97.3629C71.7338 95.6063 72.881 94.1263 72.881 94.1263C72.9264 94.0674 72.9612 93.996 72.983 93.9165C73.005 93.838 73.0132 93.7541 73.0073 93.6698C72.9114 91.6343 73.0532 89.5906 73.4283 87.6114C73.6275 86.3505 74.1702 85.2301 74.9545 84.4577C76.4693 83.2325 78.1606 82.4325 79.9223 82.1063L79.3434 83.1852C77.2384 84.6791 74.6282 89.6171 74.544 89.7554C74.5292 89.7785 74.5183 89.8037 74.5116 89.8326C74.5047 89.8615 74.5023 89.8902 74.5042 89.9201C74.5061 89.9503 74.5126 89.9789 74.5229 90.0043C74.5335 90.0308 74.5476 90.0539 74.565 90.0735C74.5822 90.0931 74.6022 90.107 74.6238 90.1163C74.6452 90.1253 74.6678 90.1276 74.6904 90.1253C74.7128 90.123 74.7346 90.115 74.7547 90.1012C74.7748 90.0873 74.7924 90.069 74.8071 90.0458C75.2071 89.5479 79.5855 83.6693 80.1644 83.9736C80.7433 84.2779 77.0069 90.6406 77.3542 91.0141C77.7015 91.3875 79.554 87.9019 79.7539 87.5008L80.1013 87.6806C79.5119 89.1883 79.0487 91.2492 80.1855 92.093C80.324 92.1933 80.4796 92.2464 80.638 92.2464C80.7961 92.2464 80.9519 92.1933 81.0906 92.093C81.1222 92.395 81.2049 92.6832 81.3327 92.9367C81.1256 94.5342 80.4909 95.981 79.5434 97.0171C77.4384 99.4654 78.7435 95.4126 74.9755 107.031C74.6387 108.055 74.3335 109.051 74.0703 109.908C73.8072 110.766 73.523 111.72 73.3757 112.232C71.3091 109.37 69.1346 106.646 66.8606 104.071ZM64.4504 179.11C64.3239 179.188 64.1888 179.239 64.0504 179.262C64.3759 177.452 64.9158 175.719 65.6502 174.13C68.1881 173.346 70.6734 172.292 73.081 170.976C75.5318 169.615 77.9092 168.034 80.196 166.246C84.7524 162.703 88.9747 158.463 92.7734 153.617C94.0635 153.515 95.3564 153.515 96.6466 153.617C96.3492 153.947 96.0283 154.238 95.6888 154.489C95.0495 154.981 94.3766 155.392 93.6785 155.72C93.482 155.775 93.2969 155.888 93.1383 156.052C92.9795 156.214 92.8514 156.423 92.7628 156.66C92.5207 157.476 93.0154 158.196 92.3944 159.427C91.5524 161.045 90.3841 160.16 88.9106 160.616C87.1529 161.156 87.8581 164.766 86.8056 165.955C85.7531 167.145 83.5849 165.042 82.5957 166.979C82.0484 168.072 82.3221 169.856 81.8379 170.852C81.3537 171.848 78.8382 169.081 77.3542 171.073C76.8658 172.048 76.4263 173.065 76.0385 174.116C75.3123 175.582 74.2493 173.784 72.881 173.687C70.355 173.521 72.3653 181.378 68.9762 177.837C68.6516 177.475 68.2987 177.16 67.9237 176.896C66.7027 175.997 66.3344 178.072 64.4504 179.11ZM138.126 160.838C134.295 165.872 125.412 178.446 115.266 188.017C109.361 193.55 103.025 198.128 96.9939 199.525C92.5313 199.525 87.9528 197.285 83.7743 194.297C77.9101 189.863 72.5406 184.384 67.8184 178.017C68.0861 178.239 68.3427 178.484 68.5867 178.75C72.6179 182.899 72.1442 174.752 72.9863 174.808C74.5229 174.905 75.7965 178.058 77.6489 172.83C77.7574 172.468 77.9103 172.131 78.1015 171.834C79.2277 170.312 81.6169 173.632 82.6799 171.419C83.3956 169.911 82.901 167.435 83.7322 167.269C84.5637 167.103 85.3215 167.657 86.2057 167.477C89.0053 166.937 87.7108 161.944 89.1001 161.515C89.6229 161.371 90.156 161.31 90.6894 161.336C91.1016 161.349 91.513 161.261 91.8998 161.073C92.334 160.832 92.7014 160.421 92.9523 159.897C93.6575 158.514 93.2049 157.49 93.3417 156.978C93.3628 156.909 93.3997 156.852 93.447 156.812L96.8887 163.659C96.9027 163.689 96.9212 163.713 96.9423 163.733C96.9641 163.753 96.9895 163.765 97.015 163.77C97.0659 163.796 97.122 163.796 97.1729 163.77C98.6359 162.47 103.362 160.464 108.656 159.164C112.588 158.07 116.593 157.495 120.612 157.449C123.674 157.423 126.707 156.678 129.569 155.249C135 152.746 139.884 148.873 141.873 147.808C142.98 147.239 144.178 147.044 145.357 147.241C146.178 147.364 146.978 147.663 147.725 148.126C148.002 148.279 148.247 148.517 148.441 148.818C148.479 148.895 148.507 148.979 148.525 149.067H148.315C147.98 148.861 147.626 148.713 147.262 148.624C145.829 148.277 144.359 148.277 142.926 148.624C142.87 148.634 142.817 148.66 142.77 148.698C142.721 148.736 142.68 148.785 142.647 148.844C142.613 148.904 142.589 148.971 142.576 149.042C142.563 149.114 142.56 149.188 142.568 149.26C142.577 149.333 142.595 149.403 142.624 149.465C142.653 149.529 142.691 149.583 142.736 149.627C142.781 149.671 142.832 149.703 142.886 149.72C142.941 149.737 142.997 149.741 143.052 149.731C144.067 149.544 145.092 149.484 146.115 149.551H146.662C146.876 149.596 147.087 149.66 147.294 149.744C147.841 149.903 148.327 150.316 148.662 150.906C146.956 150.56 145.213 150.687 143.547 151.28H143.42C143.321 151.331 143.239 151.426 143.189 151.551C143.139 151.674 143.125 151.818 143.149 151.954C143.174 152.091 143.234 152.211 143.321 152.293C143.408 152.375 143.514 152.413 143.62 152.4H143.768C144.844 152.092 145.94 151.917 147.041 151.874H147.809C148.138 151.912 148.463 151.995 148.778 152.123C148.889 152.175 148.995 152.246 149.093 152.331C149.145 152.372 149.202 152.401 149.262 152.414C149.37 152.489 149.464 152.592 149.538 152.719C149.613 152.845 149.665 152.991 149.693 153.147L149.557 153.23C149.369 153.325 149.175 153.4 148.978 153.451C147.168 153.874 145.403 154.57 143.715 155.526C141.632 156.837 139.749 158.637 138.158 160.838H138.126ZM152.209 154.752C151.764 155.512 151.214 156.154 150.588 156.646C149.416 157.589 148.108 158.201 146.746 158.445C145.915 158.635 145.075 158.755 144.231 158.804C143.246 158.873 142.258 158.873 141.273 158.804C141.842 158.279 142.389 157.836 142.926 157.421C145.083 156.007 147.383 155.006 149.757 154.447C150.399 154.171 150.63 153.714 150.588 153.175C150.554 152.833 150.46 152.507 150.314 152.222C150.168 151.936 149.974 151.699 149.746 151.529C149.662 150.865 149.419 150.255 149.051 149.786L149.178 149.62C149.236 149.519 149.282 149.407 149.314 149.288C149.862 149.614 150.39 149.992 150.893 150.422C151.51 150.916 152.029 151.593 152.409 152.4C152.566 152.768 152.634 153.19 152.604 153.61C152.574 154.03 152.448 154.429 152.24 154.752H152.209Z" fill="black"/>
<path fill-rule="evenodd" clip-rule="evenodd" d="M81.4908 84.8589C84.5506 86.5995 87.7204 87.9872 90.9631 89.0085C93.9522 89.9352 91.7946 88.2616 85.7005 85.758C83.5008 84.8589 81.8382 84.3748 81.6803 84.3748C81.657 84.3597 81.6315 84.3506 81.6055 84.3494C81.5796 84.3481 81.5536 84.3539 81.5297 84.3677C81.5058 84.3806 81.4841 84.4012 81.4667 84.4266C81.4493 84.452 81.4361 84.4819 81.4283 84.5141C81.4206 84.5465 81.4183 84.581 81.4218 84.6157C81.4252 84.6492 81.4342 84.6813 81.4482 84.7103C81.4621 84.7389 81.4807 84.7643 81.5025 84.7827C81.5245 84.8013 81.5492 84.8129 81.575 84.8174L81.4908 84.8589ZM86.1426 79.4506L83.9428 78.759L83.0065 80.0731L85.4374 80.9168L86.1426 79.4506ZM150.441 79.6858C149.893 79.6858 149.451 80.488 149.451 81.4839C149.451 82.4798 149.893 83.2682 150.441 83.2682C150.988 83.2682 151.42 82.466 151.42 81.4839C151.42 80.5018 151.02 79.6858 150.441 79.6858ZM159.998 79.6858C159.45 79.6858 159.008 80.488 159.008 81.4839C159.008 82.4798 159.45 83.2682 159.998 83.2682C160.545 83.2682 160.976 82.466 160.976 81.4839C160.976 80.5018 160.534 79.6858 159.998 79.6858ZM56.1147 57.2642C56.2081 57.2662 56.3009 57.2431 56.3872 57.1961C56.4735 57.1491 56.5518 57.0796 56.6168 56.9914C56.6819 56.9034 56.7326 56.7985 56.7657 56.6838C56.7988 56.5689 56.8136 56.4464 56.8094 56.3237C56.8094 55.6874 56.8094 55.065 56.862 54.4287C56.8807 54.1754 56.8262 53.9222 56.7091 53.7197C56.592 53.517 56.4211 53.38 56.2305 53.336C55.3043 53.17 55.42 54.8713 55.42 56.2407C55.4164 56.4947 55.4859 56.7414 55.6148 56.9313C55.7436 57.1209 55.922 57.2398 56.1147 57.2642Z" fill="black"/>
</svg>
