<svg width="201" height="201" viewBox="0 0 201 201" fill="none" xmlns="http://www.w3.org/2000/svg">
<path d="M132.756 30.1802C134.513 31.2252 136.439 29.6061 135.482 29.8128C134.695 29.932 133.893 29.7962 133.177 29.4224C133.523 27.9773 133.721 26.4945 133.766 25.0016C133.429 21.3846 132.135 29.7439 132.756 30.1802V30.1802ZM137.807 31.8108C136.755 32.959 135.45 33.7973 136.534 33.671C137.986 33.5102 138.965 31.9371 138.439 31.1103C138.018 31.4089 138.292 31.2711 137.807 31.8108ZM136.587 23.9337C136.271 24.3471 136.587 25.2772 136.66 25.6905C136.683 25.8036 136.744 25.9031 136.831 25.9692C136.918 26.0353 137.025 26.0632 137.13 26.0473C137.235 26.0313 137.33 25.9727 137.397 25.8831C137.465 25.7936 137.498 25.6797 137.492 25.5642C137.376 24.5308 137.144 23.2218 136.587 23.9337V23.9337ZM130.714 26.0465C130.367 23.4055 129.662 24.5423 129.725 24.9786C129.809 26.7469 130.83 26.9422 130.714 26.0465ZM135.955 22.108C141.722 22.7166 135.766 20.0067 135.45 22.0161L135.955 22.108ZM99.5841 69.3474C98.3844 69.8067 98.6265 71.1961 100.11 70.5875C103.145 69.2582 106.331 68.3889 109.582 68.0039C109.582 77.3278 109.15 80.9448 109.645 81.1974C110.182 80.9678 110.624 68.4632 110.592 67.4183C110.498 65.4892 101.468 68.6125 99.5841 69.3474ZM89.3969 82.2538C87.8498 85.8708 85.1136 90.8083 88.4708 92.0599C90.3546 92.7489 98.3318 92.0599 96.8058 87.3865C95.4587 83.2069 91.186 78.1775 89.3969 82.2538V82.2538ZM142.354 106.494C140.933 106.046 128.473 103.485 127.862 104.14C126.536 105.598 133.893 104.771 142.122 107.378C142.23 107.411 142.345 107.397 142.443 107.338C142.54 107.278 142.613 107.179 142.643 107.062C142.674 106.945 142.661 106.819 142.606 106.712C142.552 106.606 142.461 106.527 142.354 106.494ZM143.522 99.8681C139.915 98.9276 136.244 98.3055 132.545 98.0079C132.434 98.0231 132.332 98.0861 132.263 98.183C132.194 98.2799 132.163 98.4028 132.177 98.5246C132.191 98.6465 132.249 98.7572 132.338 98.8326C132.426 98.908 132.539 98.9418 132.651 98.9265C136.235 99.2382 139.792 99.8486 143.29 100.752C143.398 100.786 143.513 100.771 143.611 100.712C143.709 100.653 143.781 100.554 143.811 100.436C143.842 100.319 143.829 100.193 143.775 100.087C143.72 99.9803 143.629 99.9016 143.522 99.8681V99.8681ZM61.5292 34.0728C60.1927 34.2336 59.7822 33.8202 59.6665 34.1417C59.3823 36.266 64.476 33.981 61.5292 34.0728ZM57.1091 25.4264C57.1091 22.5673 56.2672 23.417 56.2672 25.4264C56.2672 25.5483 56.3116 25.6651 56.3905 25.7512C56.4695 25.8374 56.5765 25.8858 56.6882 25.8858C56.7998 25.8858 56.9069 25.8374 56.9858 25.7512C57.0648 25.6651 57.1091 25.5483 57.1091 25.4264V25.4264ZM64.5707 24.3471C64.5797 24.4066 64.5993 24.4637 64.6285 24.515C64.6577 24.5663 64.6958 24.6108 64.7408 24.6459C64.7858 24.6811 64.8366 24.7063 64.8905 24.72C64.9444 24.7338 65.0002 24.7358 65.0548 24.726C65.1094 24.7162 65.1617 24.6948 65.2087 24.6629C65.2557 24.6311 65.2964 24.5894 65.3287 24.5404C65.3609 24.4913 65.384 24.4358 65.3966 24.3771C65.4092 24.3183 65.4111 24.2574 65.4021 24.1978C65.0127 21.4305 64.2655 22.2573 64.5707 24.3471Z" fill="black"/>
<path d="M182.008 133.661C189.87 127.093 189.607 115.014 189.375 114.623C192.396 111.178 192.48 101.189 191.606 99.1332C190.428 96.3429 195.69 71.7472 187.102 64.8921C187.86 64.5247 189.302 63.5831 189.407 62.3545C189.596 59.9316 187.502 59.5412 185.902 58.5078C179.22 54.2248 178.799 44.7287 165.707 41.215C165.223 40.239 165.117 40.0668 164.728 39.3548C174.2 40.0668 172.979 34.4058 171.348 33.005C170.321 32.3571 169.22 31.8591 168.075 31.5237C172.063 29.698 171.947 24.2208 166.812 24.726C166.201 24.7834 168.18 23.0151 166.57 20.753C166.208 20.1429 165.697 19.6552 165.094 19.3448C164.492 19.0344 163.822 18.9137 163.16 18.9962C163.16 15.1495 161.466 13.5879 159.455 13.5879C162.413 8.85707 158.466 3.58656 152.93 6.51462C154.246 3.18467 150.742 -2.80924 142.712 4.13773C142.207 1.72638 135.219 -0.788307 134.461 2.73685C134.071 4.53962 131.304 -0.501243 126.252 3.63249C124.873 4.78075 124.147 6.67538 125.768 7.27247C120.748 7.67436 118.822 12.7726 122.716 13.875C123.558 14.1161 121.116 14.7362 121.506 18.158C121.8 20.776 123.926 22.2802 125.663 20.8449C126.242 20.3741 126.073 20.2708 126.021 20.7645C126.006 20.9583 126.028 21.1532 126.084 21.3376C126.14 21.5221 126.23 21.6923 126.348 21.838C126.466 21.9838 126.609 22.1021 126.77 22.186C126.931 22.2699 127.105 22.3175 127.283 22.3262C127.442 23.3319 127.686 24.3197 128.01 25.2772C124.2 25.2772 121.937 28.8597 122.948 30.6051C124.116 32.6031 126.168 31.2711 123.6 32.7179C118.622 35.5311 119.874 40.1931 122.926 40.1586C125.978 40.1242 123.979 38.8955 124.452 42.2255C124.747 44.4187 128.01 46.5659 130.767 43.8101C131.546 44.832 131.704 45.4865 132.651 46.0147C124.747 51.756 127.504 54.5463 117.254 65.8222C116.065 67.1427 115.718 66.649 115.149 67.2575C114.581 67.8661 115.36 71.5176 118.306 71.2535C115.076 81.5878 118.306 78.4071 113.634 78.9468C113.529 78.9468 114.865 63.8702 114.686 61.7918C114.581 60.7699 114.391 60.7928 103.825 63.4224C104.173 55.729 104.099 39.8256 103.489 39.6649C103.383 39.6649 95.7744 39.6649 95.7744 39.4467C95.6061 38.7118 96.1007 35.5541 95.9639 34.957C95.8376 34.5666 95.4166 34.5781 95.0799 34.3369C90.9965 31.3744 96.1323 32.9935 96.5217 32.5571C97.09 31.8682 96.5217 24.9212 97.5741 24.9212C98.6265 25.5298 97.7845 31.34 98.1845 31.8912C99.4789 33.1313 98.5949 26.5747 99.9946 26.7584C100.763 26.9192 99.8894 31.65 100.184 32.4308C101.142 33.9236 100.805 30.1343 101.942 28.9057C103.268 28.2052 101.878 39.24 101.731 39.4697C102.268 39.929 104.625 26.081 101.531 28.2627C100.626 28.9057 101.531 27.9871 100.868 26.4599C100.5 25.6676 99.4473 25.5413 98.858 26.6666C98.3002 22.6477 96.4585 23.6237 96.1744 26.4484C95.9007 31.7763 96.0165 30.9725 95.9323 31.9256C93.1434 30.7773 91.0597 33.4757 95.1535 35.0259C95.7955 35.267 95.1535 37.8162 95.3535 39.2745C95.3535 39.5156 95.4693 39.4352 94.922 39.3778C92.6699 39.1252 85.9345 60.1498 83.8612 63.1697C86.7343 67.7628 85.7766 68.4402 85.5135 67.6824C82.6615 61.2521 70.7799 47.7831 57.5722 42.9144C56.5198 42.547 56.7724 42.9144 56.5198 41.4217C55.7515 40.1931 66.9807 46.497 65.9914 28.01C70.7378 28.1823 70.0432 20.0756 66.0756 19.8459C68.6961 16.3437 67.8752 13.4616 65.2337 10.3957C64.0655 1.20966 55.0149 1.00298 46.964 4.35589C45.0591 5.14819 44.7224 6.38831 43.7436 8.22553C42.7965 8.38628 42.365 7.63992 40.5338 8.78817C34.9666 12.2904 36.3242 22.1884 40.9337 26.1843C40.1023 28.8138 40.8285 31.7304 43.9646 31.4893C43.9646 42.4896 44.8802 39.9405 40.0813 40.8476C5.87813 47.3123 -3.67769 92.5537 11.1507 107.573C11.9716 108.411 8.37233 114.026 14.792 118.011C14.9977 123.111 16.113 128.119 18.0755 132.754C19.5383 136.199 19.591 135.453 19.4436 135.958C13.1923 157.66 1.27913 196.402 1.0897 197.321C0.405634 200.639 3.39446 201.604 4.77311 199.055C5.3835 197.906 22.2325 148.187 24.4004 141.711C25.3817 142.562 26.404 143.355 27.4629 144.088C27.0104 152.918 24.4215 191.166 24.8845 193.371C24.971 193.907 25.2192 194.397 25.5896 194.762C25.96 195.127 26.4316 195.347 26.9295 195.386C27.4274 195.426 27.9231 195.283 28.3381 194.98C28.7531 194.678 29.0636 194.232 29.2204 193.715C29.3783 193.141 32.746 167.868 34.7877 148.095C46.8903 153.48 60.6031 154.135 63.0763 154.169C65.1811 199.996 64.8654 197.24 69.3065 195.84C70.0853 195.587 70.1063 195.84 70.2326 190.408C72.3374 192.383 81.5986 200.318 84.4085 200.915C85.2504 201.087 86.0292 199.25 84.9242 197.126C78.5045 184.805 77.7994 190.489 83.7034 182.348C84.3664 184.104 86.9343 191.247 87.913 191.419C90.3861 191.717 89.439 197.585 90.9544 197.642C93.6486 197.757 107.614 196.701 108.708 195.013C109.172 194.312 108.172 192.808 106.888 192.177C92.954 186.631 98.6265 196.965 97.5635 164.412C97.5635 163.585 103.573 155.995 106.435 146.35C108.024 140.987 106.435 138.668 107.225 136.015C108.961 129.757 105.888 131.066 112.213 130.71C113.56 133.558 114.56 131.859 115.297 135.303C116.043 138.991 117.604 142.425 119.843 145.305C120.253 140.047 121.315 134.875 123 129.93C124.053 129.826 122.863 128.712 120.464 146.005C120.559 146.12 120.159 177.513 121.411 178.156C122.396 178.501 123.419 178.694 124.452 178.731C124.2 178.949 124.368 186.516 124.252 186.516C124.252 186.803 115.728 189.823 114.781 194.496C114.655 195.518 114.634 195.943 115.612 195.943C118.864 195.748 129.799 192.774 130.514 192.774C130.514 194.048 130.335 194.152 131.44 194.14C132.377 194.14 133.545 194.14 133.85 193.669C134.135 192.9 133.482 180.579 133.65 179.144C133.65 179.029 133.472 179.144 136.039 179.144C136.145 195.53 136.26 193.979 137.313 194.312C141.807 195.151 140.986 196.23 142.575 167.501C146.637 171.519 144.827 171.565 149.942 167.983C150.636 168.936 154.151 173.472 154.151 173.506C152.467 177.089 149.542 183.978 152.11 186.975C152.836 187.653 153.688 186.412 160.918 175.998C163.76 171.887 162.276 175.791 163.97 174.206C167.033 171.347 166.075 173.058 157.656 162.379C162.592 158.487 162.055 159.589 158.15 155.57C136.871 133.604 144.553 148.807 171.505 139.081C172.158 146.476 177.104 192.326 178.104 193.118C178.788 193.658 181.051 193.348 181.756 193.003C182.966 192.406 181.461 175.963 179.251 146.177C188.144 172.679 197.026 198.033 197.026 198.148C198.205 200.869 201.141 200.329 200.983 197.631C200.952 197.677 185.029 144.294 182.008 133.661V133.661ZM163.381 173.598C162.886 173.035 162.77 172.61 162.328 172.771C161.497 173.23 153.615 185.402 152.478 186.183C150.142 182.416 154.972 173.873 154.73 173.345C154.583 173.127 157.698 172.197 161.213 167.799C165.233 172.874 165.17 171.99 163.37 173.598H163.381ZM160.781 167.191C159.048 169.572 156.903 171.558 154.467 173.035C151.31 169.223 150.878 168.66 150.257 167.834C158.919 161.851 156.203 161.334 160.771 167.191H160.781ZM189.07 115.324C188.891 124.154 185.85 129.792 181.83 133.041C178.051 119.756 179.062 123.786 179.598 119.434C190.122 116.346 189.081 114.049 189.06 115.324H189.07ZM190.68 97.5946C188.481 94.9191 185.092 94.1498 181.945 93.3575C184.566 91.8992 187.649 90.0849 188.428 87.8114C189.48 84.0451 187.87 74.9853 187.218 72.7807C184.513 63.5372 182.745 66.4767 186.165 65.294C193.09 70.3923 191.396 86.0431 190.67 97.5946H190.68ZM149.521 97.7783C143.396 98.5476 146.711 100.144 145.311 101.039C144.322 101.659 143.985 102.957 145.585 103.336C146.763 103.623 146.637 103.336 146.09 103.715C144.911 104.484 144.606 106.344 149.016 105.862C148.51 106.918 145.974 112.235 145.28 113.176C145.027 113.521 127.778 112.35 116.391 110.88C116.486 110.765 127.557 95.5506 130.241 92.9441C130.493 92.8178 149.184 95.2406 149.289 95.2406C149.081 96.088 149.16 96.9888 149.51 97.7783H149.521ZM146.29 105.001C145.501 103.853 150.805 104.117 149.605 102.865C149.5 102.796 139.376 102.256 150.026 100.97C150.123 100.946 150.209 100.885 150.267 100.797C150.326 100.709 150.353 100.601 150.344 100.493C150.335 100.385 150.29 100.284 150.218 100.209C150.146 100.135 150.052 100.091 149.952 100.086C148.058 100.144 146.879 100.523 146.5 100.086C145.879 98.7658 149.447 98.7773 150.047 98.5361C151.099 98.2261 149.194 96.2396 150.205 95.0913C150.731 94.5746 152.257 97.8701 152.478 98.0883C155.54 100.304 167.654 79.9573 175.052 79.1994C176.883 79.0042 171.895 78.7631 169.853 80.9103C165.644 67.9121 165.749 68.3714 165.78 67.8661C165.917 65.8681 167.98 65.0184 169.758 65.3399C171.537 65.6615 171.916 66.9245 173.831 66.936C174.811 66.9416 175.782 66.7319 176.686 66.3197C177.59 65.9074 178.409 65.3008 179.093 64.5362C180.448 65.152 181.89 65.5056 183.355 65.5811C185.734 71.1387 186.565 71.6783 187.47 78.0052C187.944 81.3007 188.912 86.8813 186.786 89.0285C182.314 93.5527 152.341 107.263 146.279 105.001H146.29ZM151.899 95.5507C154.004 95.8492 153.688 95.5506 153.278 96.5496C152.72 97.8242 153.109 97.4223 151.889 95.5507H151.899ZM129.388 35.2096C123.884 33.3494 129.641 26.2991 129.388 28.5382C129.388 28.6531 129.083 28.7564 128.999 28.8138C127.946 29.4683 126.62 34.5551 131.293 34.7618C133.819 34.8881 131.019 35.7723 129.388 35.2096ZM129.641 28.3201C128.062 23.727 127.999 24.4504 127.652 22.3491C129.757 22.085 132.03 22.2687 130.662 21.4075C129.914 20.9368 129.178 21.4879 129.515 21.1779C132.672 17.9054 131.546 14.6213 132.177 16.4011C132.481 17.1881 132.962 17.8785 133.576 18.4081C134.19 18.9377 134.917 19.2893 135.688 19.4302C136.46 19.5712 137.252 19.4969 137.991 19.2142C138.729 18.9315 139.39 18.4497 139.912 17.8135C140.796 20.3741 141.786 21.7061 144.574 22.0046C146.437 22.1998 146.142 21.9472 146.848 21.1779C149.552 18.2269 152.11 24.0485 148.826 25.7709C147.626 26.2302 149.342 32.1323 152.552 30.6281C154.951 29.4798 154.299 24.0485 151.626 23.8304C150.636 23.75 151.141 23.4744 151.299 23.4514C154.772 22.9118 156.246 29.4568 153.173 31.317C150.352 33.0279 146.974 29.4568 148.237 25.8858C145.974 26.2188 145.985 29.4454 147.184 31.5696C147.332 31.8223 142.459 32.0289 142.912 35.9101C143.217 37.5865 145.016 37.9654 146.563 37.931C143.269 46.3133 147.469 47.4845 151.11 43.5001C151.41 44.5584 151.842 45.5668 152.394 46.497C154.109 48.8739 135.692 54.8104 136.229 45.5554C137.267 44.9179 138.253 44.1841 139.176 43.3623C139.313 42.2167 139.288 41.0548 139.102 39.9175C138.628 36.9205 134.05 41.1576 129.599 28.2971L129.641 28.3201ZM142.68 67.7857C140.575 66.0174 137.418 52.7665 136.808 49.5858C144.838 54.753 152.078 47.9668 151.668 48.9428C150.436 51.7675 143.922 65.7763 142.638 67.7628L142.68 67.7857ZM143.49 75.6054C139.649 76.0762 138.66 70.4382 141.607 69.0603C147.353 66.7408 149.037 74.9049 143.49 75.6054ZM134.271 46.5889C134.271 46.5889 135.219 46.0607 135.861 45.6703C135.755 48.2768 136.881 48.7476 134.271 46.5659V46.5889ZM115.917 69.4163C114.486 67.0509 116.359 68.4632 121.043 62.7334C124.695 58.2782 128.515 48.7132 133.156 46.6578C133.419 46.9104 134.829 48.1161 136.176 49.138C136.966 54.7071 139.649 65.2136 141.628 67.9235C141.722 68.0498 136.944 69.7263 140.207 75.1805C145.932 80.1869 150.626 69.4392 144.206 68.0039C142.701 67.6824 143.533 69.91 150.752 52.3646C152.857 47.1974 151.752 48.9198 153.52 47.473C155.046 48.3802 159.287 48.6902 159.287 43.7297C162.865 46.9563 167.359 45.7277 166.18 42.2829C176.915 45.4636 178.209 52.4335 183.124 57.3481C186.281 60.5402 188.828 60.1957 188.575 62.2396C188.575 63.2386 185.523 65.8107 180.788 64.3639C179.167 63.8702 178.988 63.5027 178.683 63.9161C177.978 64.7483 177.102 65.3847 176.126 65.7722C175.15 66.1597 174.104 66.2871 173.074 66.1437C172.179 65.8911 171.674 65.3055 170.411 64.8117C168.696 64.2721 166.201 64.8118 165.433 66.7638C162.949 55.8553 163.633 54.4085 163.065 53.7885C160.855 56.2457 168.211 78.1545 169.211 81.4845C167.422 82.6327 162.792 87.6506 161.329 89.2467C160.96 89.6486 153.309 87.7425 127.894 87.6047C130.083 82.8394 133.735 79.808 133.924 79.2339C133.987 78.855 129.641 74.0897 130.441 68.8307C131.651 60.7928 134.808 56.3606 133.472 57.6811C130.946 61.9755 128.978 66.7868 129.957 71.8621C129.506 72.2157 128.984 72.447 128.435 72.5369C127.886 72.6267 127.325 72.5725 126.799 72.3788C124.695 71.5176 124.189 68.0269 118.591 70.5416C118.093 70.6907 117.565 70.6619 117.084 70.4594C116.603 70.2568 116.194 69.8912 115.917 69.4163V69.4163ZM118.959 71.1846C120.874 70.8286 122.348 70.0363 123.621 70.8975C124.673 71.6094 126.673 74.8935 130.041 72.8266C130.967 74.3079 130.641 76.547 132.977 79.1191C123.137 89.729 129.115 92.7604 112.413 92.4963C112.666 89.683 113.244 82.9542 113.529 79.3372C118.685 78.6712 115.349 82.426 118.959 71.1846V71.1846ZM113.802 62.1019C113.802 67.3609 111.603 92.9097 111.066 98.1342C106.088 99.9485 73.4004 109.973 62.066 111.913C62.2975 104.484 64.2971 82.5753 66.1282 75.4102C71.7691 72.3788 108.34 62.9745 113.802 62.1019V62.1019ZM39.0815 100.35C42.2387 98.0539 58.0879 94.2761 62.9395 93.0589C62.9395 93.3345 62.7606 94.7354 62.729 95.011C37.3345 100.672 42.4176 101.923 39.113 100.35H39.0815ZM67.4964 48.782C61.4977 63.9965 61.182 59.5068 66.5597 61.3325C67.1175 61.5277 58.8351 80.6233 58.8035 81.2548C57.5301 108.698 58.0247 75.3757 60.5084 47.9553C60.8557 44.1775 59.4665 43.4541 67.5069 48.782H67.4964ZM60.6768 88.5348C60.6768 88.6566 60.6324 88.7734 60.5535 88.8596C60.4746 88.9457 60.3675 88.9941 60.2558 88.9941C60.1442 88.9941 60.0371 88.9457 59.9582 88.8596C59.8792 88.7734 59.8349 88.6566 59.8349 88.5348C59.8243 85.9397 60.6768 84.5848 60.6768 88.5348ZM56.7724 43.0408C61.5819 44.8435 60.4453 43.2819 59.6981 51.6871C59.6981 51.446 58.7193 50.8145 56.4672 48.3113C57.4775 47.3123 57.0355 44.499 56.7724 43.0408ZM56.8987 54.7071C57.6143 54.5119 57.7195 52.4105 57.7827 50.9637C60.1611 53.3751 59.656 51.5838 59.1298 58.347C57.7195 54.3167 57.7301 54.5578 57.5406 54.4659C57.2775 55.0401 55.8778 55.752 55.1517 55.1204C55.078 55.9357 55.4779 65.3399 55.5411 67.9924C38.3343 35.0489 49.6371 59.6675 52.9521 53.0076C56.0146 55.0975 54.9307 55.2467 56.9197 54.7071H56.8987ZM66.1072 20.4889C69.2644 20.42 69.7485 26.9651 66.244 27.1144C62.7395 27.2637 62.6553 20.5578 66.1072 20.4889V20.4889ZM63.0868 16.0222C63.3394 16.9293 63.8024 18.778 64.1392 20.466C62.4659 21.9932 63.5078 23.2218 62.2659 23.4285C62.0344 22.7855 62.0344 22.418 61.7187 22.7855C61.7187 23.7385 62.0028 23.4744 60.8241 23.7155C58.8351 24.106 60.319 23.8763 59.1087 22.3606C58.6802 21.7729 58.1119 21.3249 57.4658 21.0656C56.8198 20.8063 56.1209 20.7456 55.4455 20.8901C54.77 21.0347 54.1439 21.3789 53.6356 21.8853C53.1272 22.3917 52.7561 23.0407 52.5628 23.7615C51.6472 23.7615 48.8162 23.6466 48.3531 23.5663C47.7217 21.5339 46.5851 14.2883 46.5746 14.1965C54.4571 19.5244 61.0767 17.8824 63.0868 16.0222ZM59.2981 26.3565C58.6457 28.4923 54.4676 29.2616 53.4152 25.8398C51.7419 20.4889 61.3082 19.6737 59.2771 26.3565H59.2981ZM42.2387 30.6166C40.8706 29.8472 40.5233 25.2198 42.9227 24.8753C44.4803 24.6686 45.3117 26.5517 45.9326 26.8618C47.5323 27.6426 48.5215 26.5517 48.5215 24.6227H52.4365C52.2155 30.5936 60.8557 30.364 59.9401 24.726C62.5711 24.5997 61.3819 22.7625 62.6658 28.9746C61.8239 29.4224 60.3926 29.6291 60.3295 29.8817C60.6242 30.3869 63.4867 30.0999 63.4867 28.8827C63.1605 26.8044 62.9184 25.5528 62.75 24.8638C62.9392 25.5063 63.2482 26.0991 63.6575 26.605C64.0668 27.1109 64.5676 27.5189 65.1285 27.8033C65.1916 28.6875 65.2021 29.3535 65.2232 30.5247C65.5494 44.5565 55.7515 39.2285 55.6253 40.8591C55.6253 41.4332 56.8776 46.6004 55.9936 47.5075C53.3836 46.8185 44.9644 40.9739 44.7013 40.216C44.6908 27.0225 44.6697 31.9715 42.2387 30.6166ZM54.2571 47.8405C53.4847 49.9202 52.5664 51.9318 51.5104 53.8574C44.5119 48.7476 43.712 45.7506 41.3126 41.1576C46.964 40.1012 41.302 41.261 54.2571 47.852V47.8405ZM40.5759 41.5021C60.2348 78.2464 58.2247 71.8276 57.8458 77.7871C55.2569 76.0417 41.3126 66.4652 39.5971 64.9495C40.0076 63.6176 44.133 59.5068 44.3645 58.7489C44.5961 57.9911 31.8515 44.166 31.8936 44.1546C34.7011 43.0251 37.5869 42.1419 40.5233 41.5136L40.5759 41.5021ZM25.3897 93.1738C27.1051 93.6216 26.7052 93.9316 27.0735 93.2771C31.6305 85.2393 33.7037 70.1741 33.9036 69.9904C34.514 70.8057 32.9565 84.4125 27.7366 92.9556C26.7473 94.5746 26.7368 92.9556 29.6098 96.6415C37.8291 94.4483 52.0471 92.8293 63.1499 91.5547C63.1499 91.8533 63.0658 92.3355 63.0342 92.703C55.8252 94.2761 33.4722 98.2146 38.1027 103.129C39.555 104.473 60.9399 113.463 61.9818 112.315C72.8321 110.8 108.919 100.132 111.571 98.9265C111.855 98.7198 111.824 99.2021 112.35 93.3115C118.58 93.5412 120.769 94.4598 124.673 91.348C125.807 90.4542 126.826 89.4 127.704 88.2133C138.071 88.3511 150.363 88.7989 160.697 90.0734C150.321 101.659 156.277 95.4243 153.541 95.0225C148.942 94.3335 130.062 92.4389 130.178 92.6341C129.883 92.1863 116.244 109.318 115.444 110.903C114.644 112.487 145.101 114.692 145.753 113.946C146.406 113.199 149.405 106.918 149.963 105.805C155.309 105.047 162.592 103.944 180.956 93.966C196.847 98.3065 191.827 106.379 184.113 109.536C181.419 110.685 155.562 118.837 120.716 121.674C57.0039 126.852 18.749 112.487 20.8117 112.487C21.3274 112.487 21.5589 111.753 22.4535 109.938C26.9578 114.267 38.3869 118.079 35.5559 114.084C36.1421 114.178 36.7378 114.178 37.324 114.084C38.4395 113.808 38.5132 112.648 37.6186 111.787C37.1661 111.362 37.1029 111.5 37.5029 111.466C39.2499 111.328 39.3551 109.846 37.9975 109.008C36.1663 107.86 32.946 107.986 32.0198 106.149C31.3463 104.817 33.7458 103.474 32.9144 102.015C32.3356 101.005 31.4094 101.418 30.5044 102.084C28.6732 103.474 29.3362 103.588 28.0207 102.268C30.4202 100.442 31.1779 101.338 30.7885 100.04C30.3383 98.6061 29.5827 97.3087 28.5838 96.2548C27.585 95.2009 26.3713 94.4205 25.0424 93.9775C16.2969 92.0255 13.2029 98.5706 12.9292 98.5706C12.3399 96.8367 17.6651 91.1987 25.3371 93.1508L25.3897 93.1738ZM31.8304 107.137C33.0828 108.847 38.2395 109.169 38.1448 110.409C37.7028 111.718 31.883 108.526 32.1461 110.214C32.3145 110.719 32.6513 110.455 34.714 111.236C38.7657 112.786 38.5447 114.394 32.4408 112.143C31.3147 111.73 31.1569 112.143 31.3358 112.591C31.5147 113.039 35.2928 113.923 35.0823 114.887C34.8613 115.634 26.0211 112.82 22.664 109.571C23.8914 106.858 25.6308 104.459 27.7681 102.532C28.6206 103.439 28.9784 103.853 29.1889 103.772C29.3994 103.692 32.4303 100.798 32.546 102.624C32.5671 103.864 30.136 104.886 31.7778 107.114L31.8304 107.137ZM15.2445 118.275C24.5162 123.867 24.8424 117.368 19.7593 135.051C17.0548 129.917 15.4905 124.164 15.1919 118.252L15.2445 118.275ZM3.97328 198.733C3.59442 199.537 1.86847 200.146 2.31048 197.585C4.23638 186.722 17.4967 148.21 23.6322 121.961C25.9475 122.753 27.505 123.224 29.8308 123.878C28.0944 129.149 4.40477 198.01 3.97328 198.733V198.733ZM28.789 191.212C28.3154 194.657 25.8843 194.852 25.6318 191.143C25.3371 186.217 26.8315 173.322 27.8418 144.375C29.9108 145.74 32.0708 146.933 34.3036 147.946C33.8931 151.448 30.1781 181.142 28.789 191.212V191.212ZM69.1802 194.932C65.5599 196.448 66.2966 197.918 63.6551 154.169C64.1497 154.169 67.1596 154.227 69.8327 153.974C69.5275 174.976 69.5906 192.039 69.1802 194.932V194.932ZM24.6109 141.114C29.231 127.334 24.2847 135.499 37.3345 142.4C48.9109 148.52 59.3508 149.289 72.2427 149.094C72.8531 150.977 73.2951 152.389 73.3898 152.539C61.0346 155.019 36.3557 151.391 24.6109 141.114V141.114ZM70.2852 188.02C70.9061 148.302 68.7277 154.364 73.674 153.434C75.642 159.371 76.6102 162.184 77.2942 164.194C70.4957 184.277 70.7272 183.278 71.4008 183.714C72.3585 184.403 72.1375 183.438 70.2852 188.02ZM83.314 181.475C81.9954 183.365 80.5904 185.182 79.1044 186.918C76.6586 185.84 74.291 184.561 72.0217 183.094C71.927 183.025 76.526 168.086 77.4942 164.722C82.7246 180.097 83.4298 181.314 83.314 181.475ZM96.3848 188.479C95.8586 188.652 90.1967 190.133 88.0814 190.512C61.8765 131.595 85.7345 153.021 53.9098 147.383C46.543 146.063 36.4505 142.698 30.7043 136.762C26.2842 132.169 27.1051 133.891 30.2413 124.016C31.9251 124.383 54.9938 131.239 92.2068 131.239C97.5846 146.292 97.1531 183.542 96.3848 188.479V188.479ZM97.4372 162.666C96.9216 154.227 96.4585 141.458 93.0277 131.227C105.078 131.296 103.646 130.768 104.141 131.445C110.55 140.206 103.257 153.687 97.4478 162.666H97.4372ZM106.435 135.487C104.951 129.964 102.394 131.296 107.109 131.02C106.991 132.525 106.77 134.019 106.446 135.487H106.435ZM114.739 132.41C112.108 130.331 113.507 130.722 114.634 130.653C114.718 132.49 114.865 132.502 114.749 132.41H114.739ZM133.008 193.268C130.83 193.268 131.251 193.819 131.198 192.475C131.125 190.81 119.233 195.151 115.412 195.151C115.77 191.706 121.727 188.629 124.631 187.239C124.631 187.239 125.294 187.239 127.536 187.503C134.798 188.341 133.019 184.828 133.019 193.268H133.008ZM124.589 178.857C129.536 179.316 133.208 179.098 133.198 179.213C133.019 180.648 133.198 186.619 132.987 186.665C130.276 187.225 127.491 187.197 124.789 186.585C124.631 178.432 124.716 179.339 124.589 178.857V178.857ZM14.2868 116.598C12.603 115.45 11.2243 114.428 12.0242 108.675C25.9369 121.536 107.793 133.627 181.956 111.098C190.375 108.537 191.617 103.83 191.606 104.209C191.333 114.669 188.533 116.277 180.093 118.745C109.729 139.288 31.0727 128.563 14.2868 116.598V116.598ZM137.113 193.394C136.839 191.476 136.755 181.429 136.734 179.178C138.944 179.109 138.281 181.107 139.449 164.71C139.523 164.779 140.502 145.58 141.144 140.367C141.228 139.644 141.501 139.472 141.48 140.367C141.48 140.941 141.48 141.699 141.428 142.664C140.554 169.338 139.323 164.481 141.743 166.777C139.912 194.818 140.754 194.91 137.113 193.394V193.394ZM144.943 142.124C144.69 142.124 145.122 142.48 141.638 139.012C143.901 138.679 163.739 138.553 173.81 129.998C174.663 132.605 174.463 131.996 175.989 136.578C167.012 140.7 154.404 142.606 144.943 142.124ZM178.546 192.418C178.388 192.211 172.853 148.887 171.821 139.024C177.441 137.072 175.589 135.395 178.493 144.076C181.24 190.075 183.061 194.887 178.546 192.418V192.418ZM197.984 198.251C197.721 197.746 173.231 127.059 171.569 121.662C173.673 121.111 176.357 120.376 177.957 119.917C183.829 146.327 198.363 187.974 199.689 197.608C200.015 199.95 198.763 199.824 197.984 198.251Z" fill="black"/>
</svg>
