<svg width="200" height="200" viewBox="0 0 200 200" fill="none" xmlns="http://www.w3.org/2000/svg">
<path fill-rule="evenodd" clip-rule="evenodd" d="M119.734 192.017C122.417 189.775 131.357 181.493 134.248 179.557C134.337 179.475 134.456 179.423 134.585 179.41C134.714 179.396 134.844 179.423 134.952 179.485C135.06 179.547 135.14 179.64 135.176 179.747C135.212 179.855 135.203 179.97 135.151 180.072C133.711 182.314 121.161 192.49 120.429 193.09C119.929 193.627 117.783 195.858 117.197 196.321C117.215 196.74 117.088 197.154 116.832 197.51C116.575 197.867 116.201 198.149 115.758 198.32C114.187 198.78 112.647 199.318 111.148 199.931C110.928 200.099 110.672 199.931 110.733 199.752C111.485 198.939 112.116 198.048 112.611 197.1C112.718 196.472 113.087 195.9 113.649 195.491C114.21 195.082 114.926 194.865 115.66 194.879C115.746 194.742 118.978 192.448 119.734 192.017ZM115.624 195.047C114.965 195.08 114.342 195.316 113.867 195.712C113.393 196.108 113.098 196.638 113.038 197.205C112.763 197.919 112.351 198.588 111.819 199.183C114.904 198.078 115.953 198.236 116.624 197.342C116.836 197.044 116.969 196.71 117.014 196.363C116.161 196.163 115.563 194.921 115.624 195.047ZM119.49 192.406C118.539 193.153 117.551 193.953 116.1 195.037C116.313 195.403 116.632 195.715 117.026 195.942L120.21 193.006C119.929 192.85 119.688 192.646 119.502 192.406H119.49ZM114.063 180.009C115.453 179.22 134.321 168.507 134.504 169.033C134.687 169.559 115.99 181.767 115.831 181.851C115.038 182.629 109.733 187.565 109.038 187.776C108.153 187.748 107.315 187.427 106.696 186.881C105.848 186.133 105.22 185.22 104.866 184.219C104.635 183.503 113.307 180.283 114.063 180.009ZM105.464 184.692C105.704 185.359 106.139 185.962 106.726 186.443C107.313 186.924 108.033 187.267 108.818 187.439C107.94 186.723 106.086 185.197 105.464 184.692ZM109.123 182.261C107.784 182.812 106.499 183.456 105.281 184.187C105.44 184.639 105.281 184.187 106.501 185.06C107.491 185.73 108.358 186.525 109.074 187.418C109.684 187.028 112.16 184.903 112.014 185.018C111.099 184.052 110.122 183.131 109.086 182.261H109.123ZM114.111 180.156C112.099 180.967 110.757 181.535 109.233 182.177C110.443 182.844 111.424 183.777 112.075 184.882C112.806 184.25 115.295 182.072 115.66 181.724C115.307 181.43 114.38 180.514 114.075 180.177L114.111 180.156ZM143.664 168.128C144.286 163.413 145.201 157.551 145.945 157.52C146.689 157.488 145.884 163.413 145.115 168.159C147.555 168.338 150.457 169.496 149.994 171.495C150.016 171.852 149.962 172.208 149.835 172.548C151.055 179.693 149.97 181.167 150.055 181.051C149.344 181.789 148.456 182.384 147.451 182.795C146.446 183.206 145.349 183.422 144.237 183.429C143.121 183.434 142.016 183.234 140.996 182.842C139.976 182.45 139.064 181.876 138.322 181.156C137.309 179.841 137.956 174.284 138.151 172.737C138.043 172.412 137.981 172.076 137.968 171.737C137.821 171.184 137.904 170.603 138.203 170.097C138.502 169.591 138.997 169.192 139.602 168.97C140.85 168.392 142.249 168.102 143.664 168.128ZM149.604 177.368C148.64 179.072 145.945 179.609 143.774 179.609C143.744 180.114 143.679 180.616 143.578 181.114C143.481 181.514 143.371 181.861 142.895 181.851C142.209 181.731 141.605 181.383 141.212 180.883C140.895 180.472 140.968 180.262 141.371 179.357C140.842 179.238 140.35 179.021 139.929 178.721C139.508 178.421 139.167 178.045 138.932 177.62C138.937 178.56 139.047 179.498 139.261 180.419C139.518 180.838 139.886 181.199 140.334 181.472C143.091 183.408 146.432 182.861 149.226 180.788C149.347 180.009 149.518 178.483 149.604 177.368ZM138.407 173.158C138.322 174.431 137.992 179.809 138.822 180.861C139.46 181.501 140.267 182 141.176 182.314C140.224 181.913 139.449 181.255 138.968 180.441C138.758 179.314 138.689 178.17 138.761 177.031C138.684 176.712 138.698 176.381 138.802 176.067C138.906 175.754 139.097 175.467 139.358 175.231C140.224 174.368 140.432 174.863 139.639 174.389C139.12 174.087 138.697 173.679 138.407 173.2V173.158ZM141.688 179.367C141.54 179.708 141.43 180.061 141.359 180.419C141.359 180.777 142.456 181.577 142.944 181.535C143.115 181.535 143.164 181.314 143.225 181.051C143.333 180.575 143.406 180.093 143.444 179.609C142.852 179.599 142.263 179.532 141.688 179.409V179.367ZM149.689 172.905C149.27 173.572 148.628 174.115 147.847 174.463C149.25 174.842 150.177 175.652 149.799 176.883C149.799 177.546 149.799 178.199 149.726 178.788C149.604 180.988 149.518 180.893 149.64 180.735C150.213 178.862 149.921 174.926 149.689 172.948V172.905ZM147.64 174.558C146.499 175.034 145.248 175.282 143.981 175.284C143.983 175.913 143.888 176.539 143.7 177.147C143.75 177.848 143.75 178.55 143.7 179.251C145.228 179.296 146.739 178.964 148.055 178.294C149.994 177.241 150.299 175.336 147.64 174.6V174.558ZM142.603 177.189C142.53 177.336 141.92 178.799 141.81 179.062C142.357 179.177 142.918 179.237 143.481 179.241C143.481 178.725 143.603 177.736 143.591 177.22C143.266 177.282 142.929 177.285 142.603 177.231V177.189ZM140.322 174.747C137.98 176.136 138.968 178.346 141.542 179.02C141.798 178.462 142.2 177.683 142.493 177.147C142.527 176.518 142.608 175.892 142.737 175.273C141.903 175.218 141.086 175.04 140.322 174.747ZM142.847 175.284L142.737 176.989C142.944 176.989 143.615 177.073 143.542 176.989C143.469 176.905 143.7 175.999 143.786 175.305C143.469 175.326 143.152 175.315 142.847 175.294V175.284ZM149.482 172.495C147.311 174.842 140.749 174.873 138.505 172.495C138.742 173.022 139.132 173.488 139.638 173.848C140.145 174.207 140.75 174.448 141.395 174.547C144.176 175.2 148.36 174.673 149.482 172.506V172.495ZM144.932 169.254C144.566 171.432 144.249 173.2 144.14 173.779C145.981 173.779 148.445 173.2 149.299 171.916C149.03 170.275 146.859 169.422 144.932 169.264V169.254ZM143.518 169.254C142.511 169.296 141.535 169.572 140.694 170.052C139.853 170.531 139.177 171.197 138.736 171.979C139.517 173.032 141.481 173.611 142.993 173.737C143.054 173.158 143.249 171.411 143.518 169.264V169.254ZM143.639 168.328C142.31 168.369 141.014 168.699 139.871 169.285C138.785 169.885 138.053 170.811 138.651 171.811C139.067 170.982 139.745 170.271 140.608 169.759C141.471 169.247 142.484 168.955 143.53 168.917L143.639 168.328ZM145.115 168.433C145.115 168.612 145.054 168.791 145.018 168.97C147.03 169.127 149.14 170.022 149.469 171.706C149.909 170.748 149.177 169.885 148.152 169.327C147.226 168.844 146.19 168.539 145.115 168.433ZM156.8 172.706C156.226 170.253 151.592 151.984 153.141 150.921C153.691 150.66 154.289 150.482 154.909 150.395C156.617 150.079 167.508 148.817 168.008 150.09C168.508 151.363 165.569 170.759 165.349 171.8C165.349 172.506 165.045 174.474 165.045 174.474C164.728 175.044 164.259 175.542 163.676 175.926C163.093 176.31 162.413 176.569 161.692 176.682C160.97 176.795 160.228 176.758 159.526 176.576C158.824 176.393 158.182 176.069 157.653 175.631C157.246 174.686 156.96 173.705 156.8 172.706ZM167.386 152.426C162.716 152.48 158.056 152.832 153.446 153.479C153.824 157.899 156.043 168.212 157.007 172.611C158.277 173.21 159.724 173.471 161.165 173.36C162.607 173.25 163.978 172.773 165.105 171.99C165.24 171.095 167.289 153.605 167.386 152.426ZM166.289 158.53C166.289 158.53 166.362 157.814 165.337 157.993C164.313 158.172 162.447 159.688 160.154 159.519C157.861 159.351 155.678 158.246 154.995 158.983C154.312 159.719 157.202 162.045 160.946 161.498C165.24 160.877 166.374 159.351 166.289 158.53ZM154.214 151.058C154.031 151.058 153.531 151.227 153.482 151.363C153.378 152.03 153.378 152.706 153.482 153.373L154.702 153.173C154.426 152.491 154.262 151.779 154.214 151.058ZM156.324 150.669C155.702 150.763 154.97 150.879 154.372 151.016C154.554 151.71 154.688 152.413 154.775 153.121C155.238 153.047 156.531 152.858 156.909 152.826C156.873 152.752 156.58 151.879 156.324 150.669ZM158.654 150.406C157.885 150.479 157.153 150.564 156.483 150.648C156.781 151.352 156.962 152.089 157.019 152.837L159.068 152.616C158.995 152.268 158.739 151.174 158.654 150.406ZM160.934 150.216C160.52 150.216 159.641 150.3 158.812 150.385C159.069 151.104 159.196 151.853 159.19 152.605L161.386 152.426C161.349 152.247 161.093 151.3 160.971 150.216H160.934ZM163.374 150.079L161.093 150.206C161.356 150.921 161.496 151.665 161.508 152.416C162.215 152.416 162.995 152.332 163.691 152.31C163.691 152.289 163.41 150.216 163.41 150.079H163.374ZM166.325 150.079C166.281 150.817 166.188 151.551 166.045 152.279H167.398C167.398 152.016 167.606 150.248 167.398 150.174C167.045 150.114 166.685 150.086 166.325 150.09V150.079ZM166.167 150.079H163.544C163.78 150.805 163.871 151.559 163.813 152.31H165.935C165.898 151.561 165.976 150.811 166.167 150.079ZM74.3749 164.571C75.9727 164.571 77.2777 165.076 77.2777 165.718C77.2777 166.36 75.9727 166.865 74.3749 166.865C72.7772 166.865 71.4843 166.349 71.4843 165.718C71.4843 165.086 72.7284 164.571 74.3749 164.571ZM43.5419 158.509C43.5419 158.74 43.0418 158.951 42.4076 158.972C41.7734 158.993 41.188 158.814 41.188 158.572C41.2124 158.014 43.5175 157.909 43.5419 158.509Z" fill="black"/>
<path d="M55.0921 185.071C55.8735 185.071 56.5069 184.746 56.5069 184.345C56.5069 183.944 55.8735 183.619 55.0921 183.619C54.3107 183.619 53.6773 183.944 53.6773 184.345C53.6773 184.746 54.3107 185.071 55.0921 185.071Z" fill="black"/>
<path fill-rule="evenodd" clip-rule="evenodd" d="M116.002 149.49C117.222 149.49 118.271 149.795 118.271 150.164C118.271 150.532 117.258 150.848 116.002 150.848C114.746 150.848 113.746 150.542 113.746 150.164C113.746 149.785 114.758 149.49 116.002 149.49ZM38.3461 122.623C38.3461 122.886 38.1632 124.875 38.2608 127.78C38.2608 128.169 38.3461 129.495 38.3461 129.495C38.3461 129.495 38.4925 129.569 38.4925 129.495C38.4925 129.421 38.5657 128.169 38.5779 127.78C38.6511 125.359 38.4925 122.518 38.4925 122.623C38.4925 122.606 38.4848 122.59 38.4711 122.578C38.4573 122.566 38.4387 122.56 38.4193 122.56C38.3999 122.56 38.3813 122.566 38.3676 122.578C38.3539 122.59 38.3461 122.606 38.3461 122.623ZM89.145 7.62966C90.6696 7.98747 93.3651 8.73466 94.3408 9.8186C94.3758 9.85839 94.395 9.90689 94.3955 9.95686C94.3959 10.0068 94.3776 10.0556 94.3433 10.0959C94.309 10.1361 94.2605 10.1657 94.2051 10.1802C94.1497 10.1948 94.0903 10.1934 94.0359 10.1764C89.1572 8.46104 81.388 10.65 76.4605 12.418C74.5091 13.1231 86.2178 1.72582 94.6335 3.51486C94.691 3.52999 94.7413 3.56066 94.7771 3.60234C94.8129 3.64402 94.8322 3.69452 94.8322 3.74639C94.8322 3.79826 94.8129 3.84875 94.7771 3.89043C94.7413 3.93212 94.691 3.96278 94.6335 3.97791C92.7207 4.365 90.8418 4.86787 89.0109 5.48281C90.4135 5.53543 93.6456 5.71433 94.7311 6.53519C94.7741 6.5673 94.8054 6.60953 94.821 6.65672C94.8367 6.70391 94.836 6.75401 94.8192 6.8009C94.8024 6.84779 94.7701 6.88943 94.7263 6.92074C94.6825 6.95205 94.629 6.97166 94.5725 6.97719C92.7515 7.11371 90.9399 7.33149 89.145 7.62966ZM93.1943 3.80953C90.7986 3.80197 88.4428 4.33917 86.3642 5.36705C82.6449 7.06965 79.3338 9.36587 76.6069 12.1338C81.2782 10.3869 87.9254 8.40842 92.9138 9.39765C91.3403 8.70419 89.6669 8.19457 87.9376 7.88223C87.8747 7.87073 87.8183 7.84093 87.7778 7.79782C87.7373 7.75472 87.7152 7.70092 87.7152 7.64545C87.7152 7.58997 87.7373 7.53617 87.7778 7.49307C87.8183 7.44996 87.8747 7.42017 87.9376 7.40866C89.7958 6.97664 91.693 6.68092 93.609 6.52466C91.7384 6.14407 89.8228 5.95335 87.901 5.95638C87.8384 5.95793 87.777 5.94135 87.7265 5.9093C87.6761 5.87724 87.6396 5.83155 87.6227 5.77949C87.6059 5.72744 87.6097 5.67203 87.6336 5.62207C87.6575 5.57212 87.7001 5.53051 87.7546 5.50386C89.4886 4.7651 91.3133 4.19676 93.1943 3.80953ZM10.8306 91.8409C9.6176 91.9781 8.39491 92.0414 7.17161 92.0303C7.10947 92.0325 7.04841 92.0159 6.99886 91.9835C6.94931 91.9511 6.91434 91.9048 6.89994 91.8526C6.88553 91.8004 6.89259 91.7455 6.91989 91.6973C6.9472 91.6491 6.99306 91.6106 7.04964 91.5883C8.56202 90.8832 12.1234 90.1887 13.9529 89.0942L18.4779 86.4843C18.487 86.4753 18.4983 86.4682 18.5109 86.4632C18.5235 86.4583 18.5372 86.4558 18.551 86.4558C18.5649 86.4558 18.5786 86.4583 18.5912 86.4632C18.6038 86.4682 18.6151 86.4753 18.6242 86.4843C18.7584 86.6211 18.4779 86.6316 16.9533 88.368C15.9412 89.4434 15.1192 90.6421 14.514 91.9251C13.8599 93.267 13.2859 94.6368 12.7942 96.0294C12.7942 96.3451 11.9161 96.5766 12.16 94.8507C12.261 94.2067 12.3994 93.5674 12.5747 92.9354C11.3093 93.7236 9.97603 94.4272 8.58642 95.0401C8.53636 95.0649 8.47865 95.0758 8.42116 95.0713C8.36367 95.0668 8.3092 95.047 8.26518 95.0148C8.22116 94.9826 8.18974 94.9394 8.1752 94.8912C8.16066 94.843 8.1637 94.7921 8.18393 94.7455C8.80773 93.621 9.71144 92.6293 10.8306 91.8409ZM17.7339 87.1789C11.7575 90.8096 14.4286 89.4941 8.46445 91.5462C9.60575 91.544 10.7403 91.395 11.8307 91.1042L11.9649 91.0095C12.2332 90.8306 12.7089 91.1884 12.1844 91.4831C11.012 92.2784 9.9771 93.2139 9.11087 94.2614C10.4616 93.665 11.7265 92.9339 12.8796 92.0829C12.9225 92.0399 12.9816 92.0112 13.0465 92.002C13.1115 91.9927 13.1781 92.0035 13.2348 92.0323C13.2915 92.0611 13.3346 92.1063 13.3566 92.1598C13.3787 92.2133 13.3782 92.2718 13.3553 92.325C13.103 93.1185 12.8995 93.9229 12.7455 94.7349C13.7096 91.9176 15.417 89.3313 17.7339 87.1789ZM18.5632 82.2643C20.6316 79.3726 23.5863 77.0307 27.1009 75.4975C31.8332 73.5716 33.5651 75.6238 31.4185 79.3071C29.5906 82.2495 26.9777 84.7746 23.7956 86.6737C24.1538 87.7536 24.2982 88.8779 24.2225 89.9992C23.9054 91.0516 17.9412 92.8196 17.124 92.7354C17.0621 92.7329 17.0022 92.7159 16.9506 92.6863C16.8991 92.6566 16.8578 92.6154 16.8313 92.567C16.7094 92.325 16.9899 92.104 17.2582 91.9251C18.7472 90.9866 20.3078 90.1357 21.9295 89.3783L21.8441 87.6314L21.1489 87.9261C21.1036 87.9368 21.0558 87.9366 21.0106 87.9255C20.9654 87.9143 20.9247 87.8927 20.8928 87.8629L17.0509 84.6321C17.0329 84.6148 17.0229 84.5923 17.0229 84.569C17.0229 84.5457 17.0329 84.5232 17.0509 84.5058C17.0509 84.5058 17.1728 84.2848 17.429 83.8954H15.2946C14.9774 84.4637 12.8552 88.1681 12.1722 88.4207C12.1231 88.4411 12.0691 88.4512 12.0146 88.4499C11.9601 88.4487 11.9068 88.4362 11.859 88.4136C11.8113 88.3909 11.7705 88.3587 11.7401 88.3197C11.7097 88.2806 11.6906 88.2359 11.6844 88.1891C11.538 87.3999 13.3431 82.2537 14.5384 81.9485C15.8655 81.8433 17.2036 81.9214 18.5023 82.1801C18.5215 82.1867 18.5377 82.1985 18.5487 82.2136C18.5596 82.2287 18.5647 82.2465 18.5632 82.2643ZM23.5273 86.7474C23.0431 87.0259 22.5424 87.2824 22.0271 87.5156L22.2832 89.5046C22.2832 89.6625 22.2832 89.5678 19.8439 90.9569C19.0999 91.3673 18.3437 91.7988 17.8314 92.125C19.6821 91.6851 21.4668 91.06 23.1492 90.2623C23.2833 90.1887 23.637 89.9782 23.6858 89.8414C23.8147 88.8091 23.7612 87.7659 23.5273 86.7474ZM18.1486 83.3061C17.6729 83.9165 17.3802 84.3585 17.2704 84.5374L21.0513 87.5577C21.4904 87.3683 21.9661 87.1368 22.4662 86.8737C20.8908 85.8135 19.4442 84.6182 18.1486 83.3061ZM18.4535 82.4116C17.1954 82.2576 15.9184 82.2576 14.6603 82.4116C14.2334 82.5379 13.5016 84.2112 13.3675 84.5164C12.9368 85.5071 12.5903 86.5236 12.3308 87.5577C13.0626 86.6211 15.0628 83.5587 14.9774 83.706C14.994 83.6766 15.0201 83.652 15.0526 83.6352C15.0851 83.6184 15.1225 83.6101 15.1604 83.6113L17.5387 83.7165C17.7827 83.3166 18.0754 82.9062 18.4535 82.4116ZM25.1738 76.9498C22.4092 78.5688 20.0595 80.6607 18.2705 83.0956C19.8901 84.1685 21.3704 85.3894 22.6857 86.7369C25.4689 85.1542 27.8574 83.1076 29.7109 80.7173L25.1738 76.9498ZM22.9906 79.5912C22.756 79.8034 22.572 80.0533 22.4493 80.3268C22.3266 80.6002 22.2676 80.8919 22.2755 81.1851C22.2834 81.4782 22.3582 81.7672 22.4955 82.0354C22.6329 82.3036 22.8301 82.5459 23.076 82.7484C23.3218 82.9508 23.6115 83.1095 23.9285 83.2154C24.2454 83.3213 24.5834 83.3722 24.9232 83.3654C25.2629 83.3586 25.5978 83.294 25.9087 83.1755C26.2196 83.057 26.5003 82.8868 26.735 82.6747C27.2089 82.2463 27.4661 81.673 27.4501 81.0809C27.4341 80.4888 27.1461 79.9265 26.6496 79.5176C26.1531 79.1087 25.4886 78.8867 24.8024 78.9005C24.1162 78.9143 23.4645 79.1628 22.9906 79.5912ZM26.3935 79.7596C26.7861 80.1074 27.0058 80.5738 27.0058 81.0593C27.0058 81.5448 26.7861 82.0112 26.3935 82.359C26.0085 82.6671 25.5018 82.8368 24.9768 82.8335C24.4517 82.8303 23.9479 82.6542 23.5682 82.3413C23.1884 82.0284 22.9614 81.6023 22.9334 81.1499C22.9054 80.6975 23.0785 80.2529 23.4175 79.9069C23.7949 79.5546 24.3159 79.3424 24.871 79.3149C25.4261 79.2874 25.9719 79.4468 26.3935 79.7596ZM25.7227 80.3595C25.8887 80.5081 26.0005 80.6957 26.0439 80.8987C26.0873 81.1018 26.0606 81.3114 25.967 81.5014C25.8734 81.6915 25.717 81.8536 25.5174 81.9675C25.3178 82.0814 25.0838 82.1422 24.8445 82.1422C24.6052 82.1422 24.3712 82.0814 24.1716 81.9675C23.972 81.8536 23.8156 81.6915 23.722 81.5014C23.6284 81.3114 23.6017 81.1018 23.6451 80.8987C23.6885 80.6957 23.8003 80.5081 23.9663 80.3595C24.0801 80.2576 24.2165 80.1766 24.3674 80.1213C24.5183 80.0659 24.6805 80.0374 24.8445 80.0374C25.0084 80.0374 25.1707 80.0659 25.3216 80.1213C25.4725 80.1766 25.6089 80.2576 25.7227 80.3595Z" fill="black"/>
<path fill-rule="evenodd" clip-rule="evenodd" d="M64.3371 8.88191C64.2256 8.80027 64.1381 8.69702 64.0817 8.5806C64.0253 8.46418 64.0016 8.3379 64.0126 8.21207C64.0235 8.08625 64.0689 7.96445 64.1448 7.85663C64.2208 7.74881 64.3252 7.65802 64.4496 7.5917C64.5741 7.52537 64.7149 7.48538 64.8606 7.475C65.0064 7.46462 65.1529 7.48414 65.2882 7.53197C65.4235 7.57979 65.5438 7.65457 65.6393 7.75018C65.7347 7.8458 65.8026 7.95953 65.8373 8.0821C65.8461 8.21456 65.8185 8.34694 65.7567 8.46844C65.6949 8.58995 65.6008 8.69713 65.4819 8.78126C65.3629 8.86539 65.2227 8.92408 65.0725 8.95254C64.9223 8.98101 64.7665 8.97844 64.6176 8.94505C64.6176 9.05029 64.4347 10.2184 64.0688 11.5865C65.7634 11.5921 67.3994 12.1224 68.6791 13.0809C68.6977 13.0516 68.728 13.0291 68.7645 13.0178C78.2778 11.8601 79.2658 14.5753 76.2044 16.7537C72.765 19.2057 62.2027 22.0156 56.3727 21.3526C54.8481 21.1947 52.482 20.5843 52.4576 19.3425C52.4576 17.7429 57.4216 15.9644 57.6168 15.8802C58.4119 14.1428 59.9482 12.7343 61.91 11.9443C61.044 11.134 60.1415 9.95534 59.9341 9.75538C58.8974 10.2395 57.9217 9.09239 58.7145 8.50305C58.8892 8.37095 59.1167 8.30297 59.3487 8.31363C59.5421 8.27985 59.743 8.30326 59.9191 8.38007C60.0952 8.45689 60.2362 8.58263 60.3193 8.73704C60.4025 8.89144 60.4229 9.0655 60.3774 9.23116C60.3318 9.39682 60.2229 9.54441 60.0683 9.65015C60.4787 9.9052 60.8443 10.21 61.1538 10.5552C62.9101 12.3863 61.4221 11.7549 63.5931 11.6076C63.6576 10.6689 63.9093 9.74679 64.3371 8.88191ZM57.4094 16.1749C56.3117 16.6379 52.7747 18.2796 52.8235 19.332C52.8235 19.6793 53.1772 20.0266 53.8236 20.3318C58.3608 22.4365 71.8624 19.1321 75.7775 16.3854C78.0095 14.8384 77.7778 13.3545 73.5334 13.0914C71.9058 13.0278 70.2749 13.07 68.6547 13.2177C68.3498 13.8281 65.4104 18.6269 57.4094 16.1749ZM56.1898 18.6795C56.1367 18.7769 56.1079 18.8828 56.1053 18.9904C56.1026 19.098 56.1262 19.2049 56.1745 19.3041C56.2228 19.4033 56.2947 19.4926 56.3856 19.5664C56.4765 19.6401 56.5843 19.6965 56.702 19.7319C56.819 19.7571 56.9405 19.762 57.0597 19.7465C57.1788 19.731 57.2933 19.6953 57.3964 19.6416C57.4995 19.5878 57.5893 19.5169 57.6606 19.4331C57.732 19.3493 57.7834 19.2541 57.8119 19.1531C57.8847 18.9675 57.8691 18.7646 57.7684 18.5889C57.6678 18.4133 57.4904 18.2793 57.2753 18.2165C57.0602 18.1537 56.825 18.1672 56.6214 18.254C56.4178 18.3409 56.2626 18.4939 56.1898 18.6795ZM57.1899 18.3849C57.7266 18.5954 57.3606 19.4373 56.8484 19.311C56.3361 19.1847 56.6045 18.2902 57.1899 18.3849ZM65.6056 17.785C65.5193 17.7296 65.4197 17.6915 65.3142 17.6737C65.2086 17.6558 65.0998 17.6586 64.9957 17.6818C64.8915 17.705 64.7947 17.7481 64.7124 17.8079C64.6301 17.8676 64.5644 17.9425 64.5201 18.0271C64.4265 18.2157 64.4171 18.4276 64.4936 18.6218C64.5702 18.8161 64.7273 18.9791 64.9347 19.0794C65.0338 19.1324 65.1454 19.1655 65.2612 19.1764C65.3771 19.1872 65.4943 19.1756 65.6042 19.1423C65.7142 19.109 65.8141 19.0549 65.8966 18.9839C65.9792 18.9129 66.0422 18.8269 66.0812 18.7322C66.1496 18.5514 66.139 18.3553 66.0514 18.1808C65.9638 18.0064 65.8052 17.8656 65.6056 17.785ZM65.508 17.9324C65.9959 18.2481 65.6787 18.9847 65.1665 18.7322C64.6542 18.4796 64.9226 17.7219 65.508 17.9429V17.9324ZM72.0332 14.9226C71.9623 14.8653 71.8773 14.8226 71.7847 14.7975C71.692 14.7725 71.594 14.7658 71.4979 14.7779C71.4018 14.79 71.3101 14.8207 71.2296 14.8676C71.1492 14.9145 71.082 14.9765 71.0331 15.0488C70.9387 15.2173 70.9189 15.4097 70.9773 15.5899C71.0356 15.7701 71.1682 15.9257 71.3502 16.0276C71.4314 16.0847 71.5264 16.1256 71.6282 16.1472C71.73 16.1688 71.8361 16.1706 71.9389 16.1524C72.0416 16.1343 72.1384 16.0967 72.2222 16.0423C72.306 15.988 72.3747 15.9182 72.4235 15.8381C72.4684 15.756 72.494 15.667 72.4987 15.5763C72.5033 15.4856 72.487 15.395 72.4507 15.3098C72.4144 15.2245 72.3588 15.1464 72.2871 15.0799C72.2154 15.0135 72.1291 14.96 72.0332 14.9226ZM71.9356 15.0594C72.3015 15.354 72.0454 15.9434 71.6185 15.6908C71.1916 15.4382 71.4355 14.8489 71.9356 15.0594ZM59.3487 8.47148C59.5065 8.4765 59.6565 8.53214 59.7693 8.62751C59.882 8.72287 59.9495 8.85112 59.9585 8.98715C59.9522 9.10906 59.8917 9.22418 59.7894 9.30849C59.6871 9.3928 59.5511 9.43979 59.4097 9.43967C59.336 9.44313 59.2623 9.43403 59.1927 9.41289C59.1231 9.39175 59.059 9.359 59.004 9.31649C58.8931 9.23064 58.8262 9.11028 58.8181 8.98189C58.8101 8.8535 58.8614 8.72759 58.9609 8.63188C59.0604 8.53616 59.1999 8.47846 59.3487 8.47148ZM64.7518 7.57696C64.9096 7.58198 65.0596 7.63762 65.1724 7.73299C65.2851 7.82835 65.3526 7.9566 65.3616 8.09263C65.3553 8.21454 65.2948 8.32966 65.1925 8.41397C65.0902 8.49828 64.9542 8.54527 64.8128 8.54515C64.7341 8.55834 64.6531 8.55684 64.5751 8.54073C64.4972 8.52463 64.4241 8.4943 64.3609 8.45179C64.2977 8.40928 64.2457 8.35557 64.2086 8.29429C64.1714 8.233 64.1499 8.16556 64.1455 8.09651C64.1412 8.02745 64.154 7.95838 64.1831 7.89396C64.2122 7.82953 64.257 7.77124 64.3145 7.72301C64.3719 7.67477 64.4407 7.63772 64.5161 7.61435C64.5915 7.59097 64.6719 7.58181 64.7518 7.58749V7.57696ZM124.942 59.8275C125.514 58.9124 126.453 58.2083 127.583 57.8463C128.712 57.4844 129.956 57.4894 131.082 57.8604C132.208 58.2314 133.138 58.9431 133.701 59.8627C134.263 60.7824 134.419 61.8471 134.138 62.8583C135.932 63.6115 137.646 64.4989 139.261 65.5103C139.968 66.0576 139.871 66.5627 138.614 66.489C136.433 66.3211 134.276 65.9686 132.175 65.4367C131.502 65.8604 130.717 66.1315 129.892 66.2248C129.066 66.3182 128.227 66.2309 127.451 65.971C126.674 65.711 125.986 65.2868 125.45 64.7374C124.914 64.188 124.546 63.5309 124.381 62.8268C123.161 62.3216 118.929 60.4379 118.673 59.375C118.588 58.9856 119.027 58.8067 119.49 58.7646C121.364 58.8497 123.208 59.2091 124.942 59.8275ZM134.041 63.0793C133.803 63.7944 133.353 64.4436 132.736 64.9631C134.809 65.4786 136.931 65.8309 139.078 66.0155C138.383 65.2367 135.041 63.574 134.041 63.0793ZM124.82 62.9846C125.018 63.5768 125.371 64.1216 125.853 64.5768C126.334 65.0319 126.931 65.3852 127.596 65.6092C128.262 65.8331 128.978 65.9217 129.69 65.8681C130.401 65.8144 131.089 65.62 131.699 65.2999C129.343 64.6762 127.043 63.9024 124.82 62.9846ZM132.358 64.8684C133.215 64.2094 133.761 63.3012 133.891 62.3171C134.022 61.3329 133.728 60.3418 133.065 59.5328C132.718 59.091 132.269 58.715 131.748 58.4279C131.226 58.1407 130.642 57.9484 130.031 57.8627C129.42 57.777 128.795 57.7997 128.195 57.9294C127.595 58.0592 127.032 58.2932 126.54 58.6173C125.877 59.038 125.355 59.6019 125.025 60.2522C124.695 60.9025 124.57 61.6162 124.662 62.3216C127.143 63.348 129.717 64.1997 132.358 64.8684ZM124.82 60.038C123.918 59.7854 119.941 58.7962 119.222 59.2803C119.502 60.038 123.466 61.8165 124.381 62.1427C124.312 61.4201 124.463 60.6944 124.82 60.038ZM36.3947 124.896C37.8672 125.731 39.4174 126.46 41.0294 127.074C41.0451 127.079 41.0619 127.078 41.0772 127.073C41.0926 127.068 41.1055 127.059 41.1139 127.047C41.1224 127.034 41.1259 127.02 41.1238 127.006C41.1217 126.992 41.1143 126.979 41.1026 126.969C39.6283 126.136 38.0783 125.408 36.4679 124.791C36.4522 124.787 36.4353 124.787 36.42 124.792C36.4047 124.797 36.3918 124.806 36.3833 124.819C36.3749 124.831 36.3714 124.845 36.3735 124.859C36.3755 124.873 36.383 124.886 36.3947 124.896ZM9.95243 32.4973C9.95243 29.9505 10.1232 27.5511 10.1232 27.6563C10.1312 27.6353 10.1467 27.6169 10.1675 27.6039C10.1883 27.5909 10.2134 27.5839 10.239 27.5839C10.2647 27.5839 10.2898 27.5909 10.3106 27.6039C10.3314 27.6169 10.3469 27.6353 10.3549 27.6563C10.3549 28.4246 10.5135 29.1086 10.5257 32.6656C11.427 32.1595 12.3593 31.6958 13.3187 31.2765C13.3315 31.2696 13.3458 31.2649 13.3607 31.2628C13.3756 31.2606 13.3908 31.261 13.4055 31.264C13.4203 31.2669 13.4342 31.2723 13.4465 31.2799C13.4588 31.2874 13.4692 31.297 13.4772 31.3081C13.4853 31.3191 13.4907 31.3314 13.4932 31.3443C13.4957 31.3572 13.4952 31.3703 13.4918 31.383C13.4884 31.3957 13.4821 31.4077 13.4734 31.4183C13.4646 31.4289 13.4535 31.438 13.4407 31.4449C12.6599 31.9975 11.8456 32.5139 11.0013 32.9919C12.7576 33.8233 13.1113 34.0443 13.9529 34.4863C14.7945 34.9283 14.8067 34.9283 14.7457 35.0335C14.6847 35.1387 14.6237 35.0966 13.7822 34.7599C12.9406 34.4231 12.3674 34.2126 10.5257 33.3392C10.5257 37.3698 10.3427 39.2114 10.3427 39.1062C10.3347 39.1272 10.3192 39.1456 10.2984 39.1586C10.2776 39.1716 10.2525 39.1786 10.2269 39.1786C10.2012 39.1786 10.1761 39.1716 10.1553 39.1586C10.1345 39.1456 10.119 39.1272 10.111 39.1062C10.111 38.3485 9.94023 37.6855 9.94023 33.5812C8.98854 34.1252 8.00322 34.6241 6.98865 35.0756C6.97584 35.0825 6.96157 35.0872 6.94667 35.0893C6.93177 35.0915 6.91652 35.0911 6.9018 35.0881C6.88707 35.0852 6.87316 35.0798 6.86086 35.0722C6.84856 35.0647 6.83811 35.0551 6.8301 35.044C6.82209 35.033 6.81668 35.0206 6.81418 35.0078C6.81169 34.9949 6.81215 34.9818 6.81555 34.9691C6.81895 34.9564 6.82522 34.9444 6.83399 34.9337C6.84276 34.9231 6.85387 34.9141 6.86669 34.9072C7.827 34.2286 8.83295 33.5996 9.87925 33.0234C8.89132 32.5499 8.57421 32.3815 7.79363 31.9711C7.01304 31.5606 6.75692 31.4344 6.8179 31.3186C6.8409 31.3041 6.86867 31.2962 6.89718 31.2962C6.92569 31.2962 6.95345 31.3041 6.97645 31.3186C8.51323 31.8132 9.42797 32.2657 9.95243 32.4973Z" fill="black"/>
<path fill-rule="evenodd" clip-rule="evenodd" d="M36.4679 127.074C37.8342 126.456 39.1289 125.727 40.3342 124.896C40.4196 124.896 40.3342 124.749 40.261 124.791C38.8956 125.41 37.6011 126.14 36.3947 126.969C36.3215 127.011 36.3947 127.117 36.4679 127.074ZM74.2773 63.6161C74.2773 66.5733 74.3993 67.0468 74.3993 67.5836C74.3941 67.5947 74.3922 67.6068 74.3937 67.6188C74.3952 67.6308 74.4001 67.6422 74.4079 67.6522C74.4157 67.6622 74.4263 67.6703 74.4386 67.676C74.4509 67.6816 74.4646 67.6846 74.4786 67.6846C74.4925 67.6846 74.5063 67.6816 74.5186 67.676C74.5309 67.6703 74.5415 67.6622 74.5493 67.6522C74.5571 67.6422 74.562 67.6308 74.5635 67.6188C74.565 67.6068 74.563 67.5947 74.5579 67.5836C74.5579 67.6888 74.692 65.9839 74.692 63.4372C75.6375 63.8986 76.6105 64.3166 77.607 64.6895C77.7046 64.6895 77.79 64.6053 77.6924 64.5632C76.8338 64.0682 75.9464 63.6116 75.0335 63.1951C75.6377 62.8733 76.22 62.5219 76.7777 62.1428C76.7942 62.1319 76.8055 62.1161 76.8096 62.0985C76.8136 62.0809 76.8101 62.0626 76.7996 62.0471C76.7891 62.0316 76.7724 62.0199 76.7526 62.0143C76.7329 62.0086 76.7114 62.0094 76.6923 62.0165C76.6923 62.0165 75.6922 62.4585 74.692 63.0162C74.692 60.3958 74.5701 59.8591 74.5701 59.4171C74.5701 59.3976 74.5611 59.3788 74.5451 59.365C74.529 59.3512 74.5073 59.3434 74.4847 59.3434C74.462 59.3434 74.4403 59.3512 74.4243 59.365C74.4083 59.3788 74.3993 59.3976 74.3993 59.4171C74.3993 59.3119 74.2895 61.1114 74.2773 62.9005C73.9236 62.7426 73.2162 62.4164 72.1429 62.0165C72.0454 62.0165 71.96 62.1007 72.0576 62.1428C72.1551 62.1849 72.9601 62.6795 74.2286 63.2793C73.4775 63.6718 72.7527 64.1004 72.0576 64.5632C71.96 64.5632 72.0576 64.7421 72.1429 64.6895C72.021 64.7421 72.9357 64.3528 74.2773 63.6161ZM104.94 137.977C103.61 137.504 89.5841 136.756 89.4621 136.746C89.084 136.746 86.352 137.219 86.169 137.261C85.9861 137.304 86.169 137.261 86.169 137.314C87.2352 137.734 88.3359 138.086 89.4621 138.366C90.6818 138.587 93.1211 138.609 104.683 139.682C104.903 139.682 105.367 139.029 105.098 138.082C105.086 138.051 105.001 138.009 104.94 137.977ZM89.4011 138.261L87.5595 137.703C87.6306 137.62 87.6768 137.522 87.6938 137.419C87.7108 137.317 87.6982 137.212 87.657 137.114C88.2532 137.01 88.856 136.937 89.4621 136.893C89.7548 137.146 88.9743 137.24 89.5597 137.567C89.6329 137.567 89.6451 137.567 89.5597 137.64C89.5287 137.654 89.5012 137.672 89.4787 137.695C89.4563 137.718 89.4395 137.744 89.4292 137.773C89.4189 137.801 89.4155 137.831 89.419 137.861C89.4226 137.891 89.4331 137.919 89.4499 137.946C89.5475 138.093 89.6573 138.156 89.4011 138.261ZM89.5475 138.261C89.889 138.103 89.4255 137.861 89.6573 137.735C90.1695 137.43 87.7302 137.514 103.842 138.787C103.808 139.004 103.864 139.224 104 139.408L89.5475 138.261ZM103.854 138.703C103.305 138.651 89.8036 137.546 89.7183 137.482C89.6329 137.419 89.4133 137.367 89.5231 137.24C89.6329 137.114 89.6939 136.998 89.5231 136.872C89.6451 136.872 101.61 137.693 104.159 138.061C103.981 138.25 103.875 138.482 103.854 138.724V138.703ZM104.635 139.429C104.549 139.356 104.537 139.377 104.452 139.166C104.366 138.956 104.452 138.24 104.842 138.24C104.902 138.444 104.914 138.655 104.879 138.863C104.843 139.071 104.76 139.271 104.635 139.45V139.429ZM113.111 108.374C113.098 108.335 113.074 108.299 113.043 108.269C113.012 108.239 112.973 108.216 112.929 108.2C112.886 108.185 112.839 108.178 112.793 108.18C112.746 108.182 112.7 108.192 112.659 108.211C112.617 108.23 112.581 108.257 112.553 108.29C112.525 108.322 112.506 108.36 112.497 108.399C112.488 108.439 112.489 108.48 112.5 108.519C112.511 108.558 112.533 108.595 112.562 108.626C112.684 108.795 112.806 108.963 112.941 109.131C112.959 109.168 112.987 109.2 113.021 109.226C113.056 109.253 113.096 109.272 113.14 109.283C113.184 109.295 113.231 109.298 113.276 109.292C113.322 109.286 113.365 109.272 113.404 109.251C113.442 109.229 113.475 109.2 113.5 109.167C113.524 109.133 113.54 109.095 113.545 109.056C113.551 109.016 113.547 108.976 113.533 108.939C113.519 108.901 113.496 108.866 113.465 108.837C113.404 108.689 113.221 108.532 113.111 108.374ZM97.9144 86.0212C97.9876 85.5266 98.6584 83.0114 98.4022 82.9588C98.3879 82.9539 98.3725 82.9516 98.3571 82.9522C98.3416 82.9528 98.3265 82.9562 98.3127 82.9621C98.2989 82.9681 98.2867 82.9765 98.2769 82.9868C98.2671 82.9971 98.2599 83.0091 98.2559 83.0219C97.9099 83.7566 97.6445 84.5177 97.4631 85.2951C97.3938 85.5688 97.3489 85.8468 97.3289 86.1264C97.3306 86.1694 97.3449 86.2112 97.3705 86.2481C97.3961 86.2849 97.4322 86.3155 97.4753 86.3369C97.781 86.4716 98.1109 86.5605 98.451 86.6C98.7193 86.6 99.6707 86.6632 99.5609 86.4422C99.4512 86.2212 99.3048 86.6211 97.9144 86.0212ZM103.391 84.4953V83.948C103.391 83.5692 102.781 83.5166 102.769 83.948V84.5479C102.765 84.5876 102.772 84.6276 102.788 84.6648C102.805 84.7021 102.83 84.7358 102.863 84.7637C102.897 84.7915 102.936 84.8128 102.98 84.826C103.023 84.8392 103.07 84.844 103.116 84.8401C103.162 84.8362 103.206 84.8237 103.246 84.8035C103.286 84.7832 103.32 84.7557 103.346 84.7228C103.372 84.69 103.39 84.6526 103.398 84.6133C103.405 84.574 103.403 84.5337 103.391 84.4953ZM104.196 87.3998C103.805 88.6627 103.281 88.8521 102.647 88.9153C102.517 88.9242 102.386 88.9242 102.256 88.9153C102.227 88.9069 102.195 88.9088 102.168 88.9207C102.141 88.9325 102.12 88.9533 102.11 88.9784C102.1 89.0035 102.103 89.0309 102.116 89.0546C102.13 89.0783 102.154 89.0963 102.183 89.1047C103.244 89.6309 104.696 88.9889 104.427 87.3998C104.419 87.3788 104.404 87.3604 104.383 87.3474C104.362 87.3344 104.337 87.3275 104.311 87.3275C104.286 87.3275 104.261 87.3344 104.24 87.3474C104.219 87.3604 104.204 87.3788 104.196 87.3998ZM108.782 100.555C108.774 100.52 108.759 100.487 108.737 100.457C108.715 100.428 108.687 100.402 108.653 100.382C108.62 100.362 108.582 100.348 108.543 100.341C108.503 100.333 108.462 100.333 108.422 100.339C108.382 100.345 108.343 100.358 108.309 100.377C108.275 100.396 108.245 100.421 108.222 100.449C108.199 100.478 108.183 100.511 108.174 100.545C108.165 100.579 108.165 100.615 108.172 100.649C108.224 100.845 108.289 101.039 108.367 101.228C108.371 101.268 108.385 101.308 108.408 101.343C108.431 101.378 108.463 101.408 108.502 101.431C108.541 101.455 108.585 101.47 108.631 101.477C108.677 101.483 108.725 101.481 108.77 101.47C108.815 101.459 108.857 101.439 108.892 101.412C108.928 101.385 108.956 101.352 108.974 101.315C108.993 101.278 109.002 101.237 109 101.197C108.998 101.156 108.986 101.117 108.965 101.081C108.891 100.902 108.83 100.723 108.782 100.555ZM96.7801 82.9272C96.7892 82.8875 96.7881 82.8466 96.7767 82.8073C96.7653 82.7681 96.744 82.7315 96.7142 82.7002C96.6845 82.669 96.6471 82.6438 96.6047 82.6265C96.5623 82.6092 96.516 82.6002 96.4691 82.6002C96.4222 82.6002 96.3759 82.6092 96.3335 82.6265C96.2911 82.6438 96.2537 82.669 96.2239 82.7002C96.1942 82.7315 96.1729 82.7681 96.1615 82.8073C96.1501 82.8466 96.1489 82.8875 96.1581 82.9272V83.5271C96.1489 83.5668 96.1501 83.6077 96.1615 83.6469C96.1729 83.6862 96.1942 83.7228 96.2239 83.754C96.2537 83.7853 96.2911 83.8105 96.3335 83.8278C96.3759 83.8451 96.4222 83.8541 96.4691 83.8541C96.516 83.8541 96.5623 83.8451 96.6047 83.8278C96.6471 83.8105 96.6845 83.7853 96.7142 83.754C96.744 83.7228 96.7653 83.6862 96.7767 83.6469C96.7881 83.6077 96.7892 83.5668 96.7801 83.5271C96.7655 83.3273 96.7655 83.127 96.7801 82.9272ZM193.194 127.011C193.121 127.022 193.194 127.011 193.194 127.011V127.011Z" fill="black"/>
<path fill-rule="evenodd" clip-rule="evenodd" d="M199.28 126.338C197.927 125.769 194.707 126.243 193.182 126.517C192.622 125.977 191.915 125.566 191.126 125.319C190.336 125.073 189.488 125 188.657 125.106C187.291 125.401 186.962 126.853 187.023 128.074C186.145 127.937 185.193 127.843 184.315 127.769C184.388 127.537 184.62 127.211 184.547 126.98C184.507 126.897 184.448 126.823 184.372 126.762C184.296 126.701 184.205 126.655 184.107 126.627C184.008 126.599 183.904 126.59 183.801 126.6C183.698 126.61 183.599 126.639 183.51 126.685C183.267 126.853 183.042 127.039 182.839 127.243C182.839 126.874 183.193 126.285 182.766 126.19C182.339 126.096 181.01 127.127 180.632 127.495C177.831 127.229 175.005 127.229 172.204 127.495C168.537 127.722 165.081 129.061 162.447 131.273C177.278 116.54 183.791 106.416 183.62 93.7983C183.449 81.1803 166.069 75.1607 158.922 75.0028C151.982 74.8555 144.823 78.1599 144.457 78.1599C138.188 79.2123 121.747 77.6443 118.295 78.8861C118.337 77.5526 118.06 76.226 117.481 74.9892C116.902 73.7524 116.033 72.6321 114.929 71.6983C112.953 69.8356 109.794 69.1411 106.586 69.2568C102.012 69.4357 97.4753 71.088 95.2067 74.5187C94.4547 75.6296 94.0121 76.8762 93.9139 78.1599C93.9139 78.4862 93.1333 83.8533 95.1336 87.9155C95.5847 88.944 96.3064 89.8681 97.2419 90.6151C98.1774 91.362 99.3011 91.9113 100.524 92.2197C98.5527 94.4751 96.7441 96.8334 95.1092 99.2812C94.7311 99.9652 95.0116 100.334 95.5604 100.334C96.1093 100.334 96.8411 100.207 97.3533 100.228C96.5484 102.133 94.4993 107.1 93.9993 109.068C91.4918 110.525 89.2337 112.279 87.2911 114.278C83.6321 117.898 81.9246 121.823 77.7778 123.917L76.5581 124.507C78.2169 120.16 81.3514 111.531 80.2171 111.52C79.0828 111.51 76.3264 119.813 74.5701 125.443C72.6918 126.338 71.7405 126.906 71.0818 128.674C70.8671 129.121 70.7566 129.6 70.7566 130.084C70.7566 130.568 70.8671 131.047 71.0818 131.494C71.1601 131.638 71.2796 131.762 71.4291 131.854C71.5786 131.946 71.753 132.003 71.9356 132.021C72.082 132.021 72.082 131.905 71.6795 132.673C71.4877 132.721 71.3063 132.795 71.1428 132.894L65.2763 129.811C65.1421 129.811 66.8252 129.611 31.1257 133.62C30.4549 133.189 29.7475 132.736 29.0157 132.242C11.477 120.466 68.7523 107.826 73.3382 91.7356C77.4485 77.3286 53.8236 74.424 59.0682 60.8904C64.3127 47.3569 98.6096 51.1454 130.894 49.5248C163.178 47.9041 176.021 19.7846 152.519 5.13548C129.016 -9.51361 104.866 11.2919 99.1584 16.6064C93.4504 21.9209 86.8643 28.8771 68.3742 28.1825C49.8841 27.488 25.6861 30.1926 16.8191 53.3238C12.5503 64.3948 16.38 72.1614 22.0759 78.3178C23.9835 76.6431 26.3429 75.4028 28.9426 74.7081C30.4549 74.3924 31.9551 74.5608 32.382 75.8552C33.187 78.2336 29.8451 81.9275 27.9058 83.7691C32.7845 87.8313 37.468 91.262 39.3097 94.8085C42.3832 100.765 27.6497 105.174 21.4294 108.658C15.2092 112.141 5.70801 122.918 11.538 133.378C11.9759 134.179 12.4645 134.959 13.0016 135.714C0.634223 137.093 0.207342 137.093 0.0853759 137.156C-0.0365902 137.219 -3.72574e-07 137.409 0.0853759 137.514H0C1.09769 138.566 33.4065 178.409 53.2382 198.657L53.5919 198.72C57.8851 196.942 135.797 164.308 131.65 162.298C131.65 162.298 74.692 134.862 73.3382 134.167C73.55 133.854 73.7334 133.527 73.8871 133.189C73.9545 133.184 74.0181 133.16 74.067 133.12C74.1159 133.079 74.1471 133.026 74.1554 132.968V132.399C74.9116 132.62 76.0947 131.989 76.7045 131.515C77.9241 130.547 79.7536 127.853 81.1075 127.495C83.8073 126.915 86.4699 126.213 89.084 125.391C99.9512 121.876 104.464 117.94 109.196 111.583C109.978 110.59 110.644 109.533 111.184 108.426C113.946 111 117.303 113.044 121.039 114.425C111.184 124.244 112.733 130.474 116.295 133.873C119.551 136.977 124.832 135.883 125.698 135.651C125.698 140.324 127.528 150.7 128.138 151.742C128.455 152.342 127.394 152.795 127.174 153.984C127.059 154.588 127.149 155.208 127.435 155.769C127.721 156.329 128.19 156.806 128.784 157.141C130.138 157.878 132.443 157.92 131.54 156.751C131.239 156.418 130.9 156.111 130.528 155.836C130.882 155.931 131.272 156.057 131.748 156.204C136.2 157.709 136.785 158.393 137.602 158.193C137.712 158.171 137.815 158.129 137.903 158.069C137.992 158.009 138.064 157.933 138.114 157.846C138.212 157.904 138.322 157.944 138.439 157.963C138.555 157.981 138.675 157.979 138.79 157.955C138.905 157.931 139.013 157.887 139.107 157.824C139.2 157.762 139.278 157.683 139.334 157.593C139.376 157.525 139.398 157.449 139.398 157.372C139.398 157.295 139.376 157.219 139.334 157.151C139.489 156.927 139.541 156.66 139.48 156.404C139.48 155.457 135.285 152.363 134.431 151.753C134.553 150.7 135.199 148.364 136.809 142.155C145.127 150.248 173.094 138.998 174.619 138.43C174.875 138.661 185.206 134.862 186.401 134.315C186.279 134.315 199.5 129.158 200 127.264C200 126.822 199.671 126.538 199.28 126.338ZM152.104 31.0555C152.306 31.061 152.497 31.1348 152.636 31.2608C152.775 31.3868 152.851 31.555 152.848 31.7291C152.851 31.8156 152.834 31.9019 152.799 31.9828C152.763 32.0637 152.709 32.1377 152.64 32.2003C152.57 32.263 152.487 32.3132 152.395 32.3479C152.303 32.3826 152.204 32.4012 152.104 32.4026C152.003 32.4012 151.903 32.3827 151.811 32.3481C151.718 32.3135 151.634 32.2635 151.564 32.201C151.494 32.1384 151.439 32.0646 151.402 31.9836C151.364 31.9026 151.346 31.8161 151.348 31.7291C151.346 31.642 151.364 31.5555 151.402 31.4745C151.439 31.3935 151.494 31.3197 151.564 31.2571C151.634 31.1946 151.718 31.1446 151.811 31.11C151.903 31.0754 152.003 31.0569 152.104 31.0555ZM145.213 12.681C145.312 12.681 145.409 12.698 145.5 12.7309C145.591 12.7638 145.674 12.812 145.743 12.8728C145.813 12.9335 145.867 13.0055 145.904 13.0846C145.94 13.1637 145.958 13.2483 145.957 13.3335C145.97 13.424 145.961 13.5159 145.93 13.6031C145.9 13.6904 145.847 13.771 145.778 13.8395C145.708 13.908 145.622 13.9628 145.526 14.0004C145.429 14.038 145.325 14.0575 145.219 14.0575C145.113 14.0575 145.009 14.038 144.912 14.0004C144.816 13.9628 144.73 13.908 144.66 13.8395C144.59 13.771 144.538 13.6904 144.507 13.6031C144.477 13.5159 144.468 13.424 144.481 13.3335C144.479 13.2492 144.497 13.1654 144.533 13.087C144.569 13.0086 144.622 12.9371 144.69 12.8765C144.758 12.8159 144.839 12.7674 144.929 12.7339C145.019 12.7004 145.115 12.6824 145.213 12.681ZM122.283 41.7161C122.196 41.7024 122.117 41.6628 122.061 41.6042C122.004 41.5455 121.973 41.4715 121.973 41.3951C121.973 41.3187 122.004 41.2448 122.061 41.1861C122.117 41.1274 122.196 41.0878 122.283 41.0742C122.385 41.0742 122.483 41.1091 122.555 41.1713C122.627 41.2334 122.667 41.3177 122.667 41.4057C122.667 41.4936 122.627 41.5779 122.555 41.6401C122.483 41.7022 122.385 41.7372 122.283 41.7372V41.7161ZM118.966 12.8073C118.966 12.3864 120.185 12.1759 120.722 12.1127C121.609 12.0117 122.507 12.0117 123.393 12.1127C123.943 11.2423 124.619 10.4359 125.406 9.71332C125.662 9.53442 125.893 9.47127 126.125 9.71332C126.677 10.6744 127.031 11.7104 127.174 12.7757C129.065 13.1967 131.699 13.9754 130.113 14.9542C129.626 15.2593 128.76 15.5751 127.82 16.0065C127.926 16.8558 127.958 17.7105 127.918 18.5638C127.918 18.9532 127.796 19.5425 127.345 19.6162C126.43 19.753 125.723 18.6585 124.283 17.5851C122.905 18.1744 120.149 19.4794 120.088 18.2271C120.237 17.1589 120.605 16.1221 121.173 15.1646C119.771 14.0175 118.88 13.4598 118.966 12.8284V12.8073ZM117.746 32.1605C117.743 32.8951 117.521 33.6166 117.101 34.2555C116.681 34.8943 116.077 35.4289 115.347 35.8076C114.618 36.1864 113.787 36.3964 112.936 36.4175C112.085 36.4386 111.243 36.27 110.489 35.928L117.588 31.0661C117.697 31.4306 117.754 31.8051 117.758 32.1816L117.746 32.1605ZM117.441 30.6767C115.49 31.9711 112.867 33.8338 110.245 35.8018C110.048 35.6991 109.86 35.583 109.684 35.4545C112.233 33.234 114.734 30.7293 116.282 29.1402C116.792 29.5846 117.191 30.1147 117.453 30.6977L117.441 30.6767ZM116.014 28.9192C115.526 29.3717 111.282 33.4971 109.452 35.2335C108.932 34.8209 108.516 34.3191 108.233 33.7601C110.087 32.6025 112.611 30.9924 115.417 29.0876L115.856 28.7824L116.014 28.9192ZM112.806 27.8668C113.785 27.866 114.741 28.119 115.551 28.593L113.831 29.6453C113.441 29.8979 110.477 31.908 108.135 33.4865C107.887 32.8451 107.818 32.1621 107.934 31.4933C108.05 30.8245 108.349 30.1889 108.804 29.6387C109.26 29.0884 109.86 28.6391 110.556 28.3275C111.251 28.0159 112.023 27.8508 112.806 27.8458V27.8668ZM101.049 26.1409C101.197 26.1367 101.343 26.1708 101.469 26.2387C101.594 26.3067 101.693 26.4054 101.753 26.5223C101.813 26.6392 101.832 26.7688 101.806 26.8947C101.78 27.0206 101.711 27.1369 101.608 27.2288C101.505 27.3207 101.373 27.384 101.228 27.4105C101.083 27.437 100.932 27.4256 100.795 27.3777C100.657 27.3298 100.539 27.2476 100.457 27.1416C100.374 27.0356 100.329 26.9107 100.329 26.7829C100.342 26.6228 100.424 26.4728 100.56 26.3634C100.696 26.2539 100.875 26.1932 101.061 26.1935L101.049 26.1409ZM94.3286 42.0739C94.6134 42.0822 94.889 42.1626 95.1212 42.3051C95.3534 42.4477 95.5318 42.646 95.6342 42.8755C95.7366 43.1049 95.7585 43.3553 95.6971 43.5954C95.6357 43.8354 95.4938 44.0546 95.289 44.2256C95.0842 44.3965 94.8256 44.5117 94.5455 44.5567C94.2654 44.6017 93.9761 44.5746 93.7137 44.4787C93.4513 44.3828 93.2274 44.2224 93.07 44.0174C92.9126 43.8125 92.8286 43.5721 92.8284 43.3263C92.838 42.9894 93.0007 42.6693 93.2813 42.435C93.562 42.2008 93.9381 42.0711 94.3286 42.0739ZM75.3507 39.1062C75.8751 39.1062 75.8751 39.9166 75.3507 39.9166C74.8262 39.9166 74.814 39.1062 75.3507 39.1062ZM25.747 62.3743C25.6892 62.3831 25.6298 62.3808 25.573 62.3677C25.5162 62.3546 25.4635 62.3309 25.4185 62.2983C25.3735 62.2657 25.3373 62.225 25.3125 62.179C25.2876 62.1331 25.2748 62.083 25.2748 62.0323C25.2748 61.9816 25.2876 61.9315 25.3125 61.8855C25.3373 61.8396 25.3735 61.7989 25.4185 61.7663C25.4635 61.7337 25.5162 61.71 25.573 61.6968C25.6298 61.6837 25.6892 61.6814 25.747 61.6902C25.8049 61.6814 25.8643 61.6837 25.9211 61.6968C25.9778 61.71 26.0306 61.7337 26.0756 61.7663C26.1206 61.7989 26.1568 61.8396 26.1816 61.8855C26.2065 61.9315 26.2193 61.9816 26.2193 62.0323C26.2193 62.083 26.2065 62.1331 26.1816 62.179C26.1568 62.225 26.1206 62.2657 26.0756 62.2983C26.0306 62.3309 25.9778 62.3546 25.9211 62.3677C25.8643 62.3808 25.8049 62.3831 25.747 62.3743ZM51.9698 103.691C51.8059 103.674 51.6509 103.617 51.5237 103.527C51.3965 103.436 51.3025 103.316 51.253 103.18C51.2034 103.044 51.2006 102.899 51.2447 102.762C51.2889 102.625 51.3781 102.501 51.5017 102.407C51.6252 102.313 51.7778 102.251 51.941 102.23C52.1041 102.209 52.2709 102.229 52.421 102.288C52.5712 102.347 52.6983 102.443 52.7871 102.563C52.8758 102.683 52.9224 102.822 52.9211 102.964C52.9054 103.169 52.7967 103.36 52.6185 103.496C52.4404 103.632 52.2072 103.702 51.9698 103.691ZM54.8604 33.3076C55.0273 33.3055 55.1912 33.3463 55.3312 33.4249C55.4712 33.5034 55.5809 33.616 55.6465 33.7485C55.7121 33.881 55.7305 34.0273 55.6994 34.1689C55.6683 34.3104 55.5891 34.4408 55.472 34.5434C55.3548 34.646 55.2048 34.7162 55.0413 34.7451C54.8777 34.774 54.7079 34.7602 54.5534 34.7056C54.3989 34.6509 54.2667 34.5579 54.1737 34.4383C54.0807 34.3186 54.031 34.1778 54.031 34.0338C54.031 33.843 54.1179 33.6599 54.2731 33.524C54.4283 33.3881 54.6393 33.3104 54.8604 33.3076ZM55.5678 71.0985C55.5666 71.2013 55.5313 71.3016 55.466 71.3876C55.4007 71.4736 55.3082 71.5415 55.1994 71.5835C55.0906 71.6254 54.9702 71.6395 54.8524 71.624C54.7346 71.6086 54.6245 71.5643 54.535 71.4965C54.4455 71.4286 54.3806 71.34 54.3478 71.2411C54.315 71.1423 54.3158 71.0375 54.35 70.939C54.3843 70.8406 54.4506 70.7527 54.5411 70.6858C54.6315 70.6189 54.7424 70.5759 54.8604 70.5618C54.946 70.556 55.0322 70.5655 55.1134 70.5899C55.1946 70.6142 55.2691 70.6528 55.3321 70.7033C55.3951 70.7537 55.4453 70.8149 55.4796 70.8829C55.5139 70.9509 55.5314 71.0243 55.5312 71.0985H55.5678ZM55.8483 86.6421C56.5801 86.1475 58.7389 84.611 59.3853 85.0951C60.0317 85.5792 59.4707 86.6 59.3853 88.0523C60.7391 88.61 63.5443 89.673 62.4466 90.3465C61.3717 90.7998 60.2182 91.0984 59.0316 91.2305C58.8242 92.7564 58.8364 93.5352 58.2388 93.7983C57.8241 93.9667 56.9094 93.3247 56.5679 93.0511C55.9117 92.5682 55.337 92.0085 54.8604 91.3883C53.7464 91.5043 52.6203 91.5043 51.5063 91.3883C51.2136 91.3252 50.994 91.2094 51.055 90.9568C51.1892 90.378 52.7015 89.1468 53.2016 88.7363C52.8845 88.1365 52.1405 86.6316 52.3966 86.0317C52.7625 85.2003 54.3359 86.1159 55.8117 86.6421H55.8483ZM51.8844 52.7345C52.1405 52.7345 52.2747 52.8924 52.2381 53.166C51.9828 53.9469 51.5965 54.6915 51.0916 55.376C51.6146 55.8485 52.0617 56.3794 52.421 56.9545C53.6407 58.9856 51.9454 58.47 49.4329 58.0069C48.8404 58.7669 48.0874 59.4238 47.2131 59.9433C46.0788 60.4274 45.8227 58.3647 45.6275 57.1966C43.9078 56.8072 42.5418 56.8598 42.1881 56.26C41.8344 55.6601 44.4688 54.7445 45.225 54.4499C45.1397 53.3975 44.6152 51.9873 45.6641 52.0294C46.7271 52.3065 47.7031 52.7888 48.5181 53.4396C49.5899 53.0523 50.7261 52.8143 51.8844 52.7345ZM36.3459 82.1379C36.2099 82.1569 36.0707 82.1502 35.938 82.1182C35.8053 82.0862 35.6823 82.0297 35.5774 81.9526C35.4725 81.8756 35.3882 81.7798 35.3304 81.6719C35.2726 81.5639 35.2427 81.4465 35.2427 81.3276C35.2427 81.2087 35.2726 81.0913 35.3304 80.9833C35.3882 80.8754 35.4725 80.7796 35.5774 80.7026C35.6823 80.6255 35.8053 80.569 35.938 80.537C36.0707 80.505 36.2099 80.4983 36.3459 80.5173C36.4819 80.4983 36.6211 80.505 36.7538 80.537C36.8865 80.569 37.0095 80.6255 37.1144 80.7026C37.2193 80.7796 37.3036 80.8754 37.3614 80.9833C37.4192 81.0913 37.4491 81.2087 37.4491 81.3276C37.4491 81.4465 37.4192 81.5639 37.3614 81.6719C37.3036 81.7798 37.2193 81.8756 37.1144 81.9526C37.0095 82.0297 36.8865 82.0862 36.7538 82.1182C36.6211 82.1502 36.4819 82.1569 36.3459 82.1379ZM29.467 50.3456C29.4221 50.336 29.3821 50.3137 29.3536 50.2822C29.3251 50.2507 29.3096 50.2119 29.3096 50.172C29.3096 50.132 29.3251 50.0932 29.3536 50.0617C29.3821 50.0303 29.4221 50.0079 29.467 49.9983C32.1381 49.8405 35.175 49.7668 37.8461 49.7668C35.62 48.4196 33.2368 47.2768 30.7355 46.3571C30.6825 46.343 30.6376 46.3122 30.6099 46.2708C30.5821 46.2294 30.5736 46.1805 30.586 46.1338C30.5983 46.0872 30.6306 46.0463 30.6765 46.0194C30.7223 45.9925 30.7782 45.9816 30.833 45.9888C33.6054 46.0143 36.3326 46.5981 38.7974 47.6936C37.1762 46.2997 35.4617 44.989 33.6626 43.7683C33.6241 43.7413 33.598 43.7033 33.5891 43.6612C33.5803 43.6191 33.5892 43.5757 33.6143 43.5388C33.6394 43.5018 33.6789 43.4739 33.7259 43.46C33.7728 43.4461 33.8239 43.4472 33.87 43.4631C36.9444 44.3185 39.8304 45.6134 42.4076 47.2937C44.9517 48.9022 47.1585 50.874 48.9328 53.1239C48.9328 53.2186 48.823 53.2923 48.7499 53.1976C46.9767 50.9623 44.774 49.0047 42.2369 47.4095C39.9767 45.9792 37.4868 44.8412 34.8457 44.0313C35.7361 44.6523 39.3463 47.1885 39.8219 48.1251C39.9195 48.2935 39.6756 48.4513 39.4682 48.3461C38.1656 47.7201 36.7819 47.2291 35.3458 46.8833C34.2265 46.5944 33.0724 46.4178 31.9063 46.3571C33.3089 46.9359 37.6631 48.7776 38.5535 49.872C38.5763 49.9013 38.5891 49.9355 38.5906 49.9708C38.5921 50.006 38.5821 50.041 38.5618 50.0716C38.5415 50.1022 38.5117 50.1273 38.4758 50.1442C38.4398 50.161 38.3992 50.1688 38.3583 50.1667C38.2242 50.1667 34.8579 50.1667 31.2843 50.2719C35.5043 50.9665 41.0416 52.303 44.5664 54.4815C44.664 54.5446 44.5664 54.6709 44.4444 54.6077C40.6147 52.303 33.992 50.8718 29.467 50.3456ZM98.5242 72.0772C102.683 69.3726 110.928 68.657 114.538 72.0772C115.602 72.9717 116.437 74.0475 116.992 75.2362C117.546 76.4249 117.807 77.7002 117.758 78.9808C117.474 81.3017 116.317 83.4786 114.465 85.1793C114.246 85.3687 114.246 85.1793 114.319 85.0846C114.529 84.8245 114.668 84.5269 114.726 84.214C114.783 83.9011 114.759 83.5809 114.653 83.2774C114.548 82.9739 114.364 82.6948 114.116 82.4611C113.868 82.2274 113.562 82.0449 113.221 81.9275C110.916 81.0224 110.221 84.3584 108.538 84.7689C107.074 85.1372 107.623 82.1905 107.733 80.2226C107.886 79.3574 107.655 78.4741 107.086 77.7495C106.073 76.8116 104.82 76.0908 103.427 75.6448C100.985 74.7961 98.3327 74.4955 95.719 74.7713C96.4325 73.7183 97.3869 72.8017 98.5242 72.0772ZM95.6336 87.7681C93.6212 83.6639 94.4993 78.2126 94.4993 78.2126C94.5977 77.1057 94.9677 76.0295 95.5848 75.0554C98.2205 74.8243 100.881 75.1869 103.305 76.1078C104.624 76.534 105.813 77.2143 106.781 78.0968C108.001 79.4859 106.781 82.1379 107.172 84.2111C107.318 85.0214 107.757 85.5371 108.672 85.2635C110.562 84.8004 111.196 81.7065 113.014 82.4221C114.831 83.1377 114.502 85.1898 112.355 85.9686C111.526 86.2738 111.599 86.9578 112.233 87.021C112.563 87.021 113.209 86.8631 114.197 86.1791C115.644 84.959 116.781 83.4934 117.539 81.8748C119.235 82.1838 120.875 82.6863 122.417 83.3692C124.588 84.2216 127.15 85.4108 129.174 86.4316C126.089 87.0664 123.276 88.4454 121.065 90.4075C118.853 92.3697 117.334 94.8341 116.685 97.5132C116.221 97.5132 116.258 96.9449 115.941 96.7344C115.624 96.5239 115.429 96.7344 115.051 96.8396C115.058 96.5805 114.991 96.3238 114.855 96.0925C114.855 95.4821 113.697 95.8399 113.026 96.0293C113.034 95.7684 112.989 95.5084 112.892 95.2611C113.172 94.4823 111.538 94.8717 110.623 95.0927C110.692 94.7939 110.692 94.4864 110.623 94.1876C110.709 93.5773 109.16 93.9666 108.513 94.1876C108.569 93.8361 108.544 93.4786 108.44 93.1353C108.099 92.7248 106.293 93.5878 106.22 93.1984C106.226 92.91 106.292 92.6248 106.415 92.3565C106.623 91.7146 105.61 92.1145 105.318 92.0724C105.307 92.0779 105.294 92.0808 105.281 92.0808C105.268 92.0808 105.256 92.0779 105.245 92.0724V91.9461C106.265 91.7048 107.244 91.3511 108.16 90.8937C108.625 91.4852 109.322 91.9114 110.123 92.0934C110.851 92.2805 111.625 92.2822 112.354 92.0983C113.083 91.9144 113.734 91.5528 114.23 91.057C114.726 90.5611 115.046 89.9522 115.15 89.3034C115.255 88.6545 115.14 87.9935 114.819 87.3998C114.819 87.284 114.551 87.3998 114.612 87.4735C114.769 87.8767 114.831 88.3033 114.793 88.7276C114.755 89.152 114.618 89.5653 114.39 89.9428C114.163 90.3203 113.849 90.6541 113.467 90.9242C113.086 91.1943 112.646 91.3951 112.172 91.5146L109.221 89.9466C109.111 89.8834 109.123 89.9466 108.477 90.3044C108.071 89.6136 107.962 88.821 108.17 88.0676C108.378 87.3142 108.888 86.6488 109.611 86.1896C110.463 85.6964 111.477 85.4529 112.502 85.495C112.526 85.4881 112.547 85.4747 112.562 85.4567C112.577 85.4388 112.585 85.4172 112.585 85.395C112.585 85.3729 112.577 85.3513 112.562 85.3333C112.547 85.3154 112.526 85.302 112.502 85.2951C111.403 85.1804 110.292 85.384 109.343 85.8739C108.481 86.3679 107.862 87.1207 107.607 87.9862C107.353 88.8517 107.48 89.7679 107.964 90.5569C105.802 91.6183 103.322 92.0983 100.842 91.9356C99.6525 91.6474 98.56 91.1191 97.6544 90.3945C96.7488 89.6698 96.0561 88.7696 95.6336 87.7681ZM114.624 97.1133C114.944 97.0541 115.255 96.9622 115.551 96.8396C116.087 96.6713 115.941 97.5973 116.624 97.6079C116.502 98.1025 116.429 98.4919 116.392 98.7339C115.819 98.555 115.282 98.3551 114.746 98.1656C114.769 97.8115 114.728 97.4564 114.624 97.1133ZM114.624 96.8817C114.624 96.8817 114.624 96.8291 114.746 96.4713C114.776 96.6038 114.838 96.7294 114.929 96.8396L114.624 96.8712V96.8817ZM114.502 97.0817C114.439 97.4304 114.439 97.7853 114.502 98.1341C113.648 97.8289 112.855 97.5132 112.062 97.1974C112.062 96.9988 112.016 96.8022 111.928 96.6186C112.489 96.6186 114.368 95.8399 114.453 96.0714C114.538 96.3029 114.099 96.8712 114.502 97.0817ZM111.806 96.545C111.804 96.7093 111.833 96.8728 111.892 97.0291C111.575 96.9028 110.27 96.3345 109.94 96.1872C109.934 95.9624 109.893 95.7394 109.818 95.5242C110.549 95.4371 111.271 95.2999 111.977 95.1137C112.062 95.1137 112.611 95.0506 112.563 95.1137C112.514 95.4189 111.27 96.3029 111.806 96.545ZM109.672 96.0609C109.05 95.7767 108.452 95.5031 107.989 95.2505C107.997 95.0274 107.951 94.8052 107.855 94.5981C108.051 94.627 108.253 94.5973 108.428 94.5139C108.989 94.2938 109.593 94.1687 110.209 94.1456C109.95 94.4022 109.729 94.6849 109.55 94.9874C109.502 95.3487 109.543 95.7146 109.672 96.0609ZM107.708 95.1137L106.354 94.4087C106.382 94.0968 106.345 93.7832 106.245 93.4826C106.635 93.5562 107.647 93.2089 108.111 93.2405C107.89 93.4985 107.691 93.7692 107.513 94.0508C107.513 94.4118 107.579 94.7705 107.708 95.1137ZM108.233 93.5878C108.202 93.7974 108.202 94.0096 108.233 94.2192C108.147 94.2192 107.867 94.335 107.842 94.2192C107.818 94.1035 108.086 93.7141 108.233 93.5878ZM110.379 94.4928C110.372 94.6988 110.401 94.9046 110.465 95.1032C110.277 95.1629 110.079 95.1949 109.879 95.1979C109.879 95.1979 109.83 95.0506 110.379 94.4928ZM112.721 95.5452C112.737 95.7183 112.782 95.8885 112.855 96.0504C112.612 96.1302 112.364 96.197 112.111 96.2503C112.258 96.0609 112.453 95.8188 112.721 95.5347V95.5452ZM106.001 93.3563C105.995 93.6723 106.04 93.9876 106.135 94.2929C105.927 94.1833 105.724 94.0674 105.525 93.9456L105.245 92.1776C105.549 92.1776 106.184 92.0198 106.184 92.1776C106.184 92.3355 105.671 93.03 106.001 93.3457V93.3563ZM108.611 90.5148C108.782 90.4201 108.965 90.3044 109.135 90.1886L111.819 91.6093C111.223 91.7127 110.606 91.6688 110.039 91.4826C109.471 91.2964 108.976 90.9755 108.611 90.5569V90.5148ZM95.5482 99.86C95.2555 99.7863 96.9387 97.5342 97.1338 97.2711C97.7314 96.4397 100.622 92.588 100.866 92.2723C101.874 92.3234 102.885 92.2704 103.879 92.1145C104.074 98.3445 105.379 100.933 106.964 103.364C106.147 103.143 105.318 103.47 104.598 103.249C103.586 102.954 103.622 101.691 102.159 101.617C101.203 101.715 100.283 101.991 99.4634 102.428C99.134 102.544 99.0609 102.428 98.9755 102.301C98.8548 101.59 98.6754 100.886 98.4389 100.197C97.8778 99.3653 96.1215 100.028 95.5482 99.86ZM65.1421 130.084L70.8989 133.084C70.5635 133.357 70.2002 133.603 69.8134 133.82C68.8743 134.252 67.8985 133.925 67.8863 134.567C62.6296 136.304 54.714 144.312 64.581 151.626C77.1923 160.961 91.5478 164.686 78.1925 173.59C74.5335 176.063 70.7647 175.694 66.4105 173.263C61.6295 170.559 61.6783 158.646 57.0923 151.29C49.4695 139.051 46.3227 143.176 31.5892 133.978L65.1421 130.084ZM82.0832 174.284C82.0672 174.284 82.0513 174.281 82.0365 174.276C82.0217 174.271 82.0083 174.263 81.9969 174.253C81.9856 174.243 81.9766 174.232 81.9705 174.219C81.9644 174.206 81.9612 174.193 81.9612 174.179C81.9612 174.165 81.9644 174.151 81.9705 174.139C81.9766 174.126 81.9856 174.114 81.9969 174.104C82.0083 174.095 82.0217 174.087 82.0365 174.082C82.0513 174.076 82.0672 174.074 82.0832 174.074C82.1076 174.081 82.1288 174.094 82.1439 174.112C82.159 174.13 82.1671 174.151 82.1671 174.174C82.1671 174.196 82.159 174.217 82.1439 174.235C82.1288 174.253 82.1076 174.267 82.0832 174.274V174.284ZM75.8385 177.441C75.7874 177.45 75.7348 177.448 75.6845 177.437C75.6342 177.426 75.5873 177.405 75.5473 177.376C75.5073 177.348 75.4751 177.312 75.453 177.271C75.4309 177.23 75.4194 177.186 75.4194 177.141C75.4194 177.096 75.4309 177.052 75.453 177.012C75.4751 176.971 75.5073 176.935 75.5473 176.906C75.5873 176.878 75.6342 176.857 75.6845 176.846C75.7348 176.835 75.7874 176.833 75.8385 176.841C75.9372 176.841 76.0318 176.875 76.1016 176.935C76.1713 176.996 76.2105 177.077 76.2105 177.162C76.2105 177.247 76.1713 177.329 76.1016 177.389C76.0318 177.449 75.9372 177.483 75.8385 177.483V177.441ZM60.1293 176.705C60.2542 176.392 60.4398 176.1 60.6781 175.842C60.1293 175.189 59.8 174.863 60.7513 174.905C61.0301 174.923 61.3048 174.972 61.5685 175.052C62.5442 174.126 62.715 174.189 62.6784 175.452C62.9223 175.557 63.4955 175.81 63.6053 176.021C63.7151 176.231 63.0931 176.357 62.654 176.473C62.654 176.726 62.5442 177.525 62.2637 177.525C61.9832 177.525 61.8246 177.136 61.4587 176.736C60.9587 176.852 60.0683 177.126 60.1293 176.747V176.705ZM59.9707 163.297C59.9196 163.306 59.8671 163.304 59.8167 163.293C59.7664 163.282 59.7196 163.261 59.6795 163.232C59.6395 163.204 59.6073 163.168 59.5852 163.127C59.5631 163.087 59.5516 163.042 59.5516 162.997C59.5516 162.952 59.5631 162.908 59.5852 162.868C59.6073 162.827 59.6395 162.791 59.6795 162.762C59.7196 162.734 59.7664 162.713 59.8167 162.702C59.8671 162.691 59.9196 162.689 59.9707 162.697C60.0694 162.697 60.164 162.731 60.2338 162.791C60.3035 162.852 60.3427 162.933 60.3427 163.018C60.3427 163.104 60.3035 163.185 60.2338 163.245C60.164 163.306 60.0694 163.339 59.9707 163.339V163.297ZM45.2372 148.038C45.1861 148.046 45.1335 148.045 45.0832 148.033C45.0329 148.022 44.986 148.001 44.946 147.973C44.906 147.944 44.8738 147.908 44.8517 147.868C44.8296 147.827 44.8181 147.783 44.8181 147.738C44.8181 147.693 44.8296 147.649 44.8517 147.608C44.8738 147.567 44.906 147.532 44.946 147.503C44.986 147.474 45.0329 147.454 45.0832 147.442C45.1335 147.431 45.1861 147.43 45.2372 147.438C45.2883 147.43 45.3409 147.431 45.3912 147.442C45.4416 147.454 45.4884 147.474 45.5284 147.503C45.5684 147.532 45.6007 147.567 45.6228 147.608C45.6449 147.649 45.6563 147.693 45.6563 147.738C45.6563 147.783 45.6449 147.827 45.6228 147.868C45.6007 147.908 45.5684 147.944 45.5284 147.973C45.4884 148.001 45.4416 148.022 45.3912 148.033C45.3409 148.045 45.2883 148.046 45.2372 148.038ZM40.3586 141.471C40.3075 141.479 40.2549 141.478 40.2046 141.466C40.1542 141.455 40.1074 141.435 40.0674 141.406C40.0274 141.377 39.9952 141.341 39.9731 141.301C39.9509 141.26 39.9395 141.216 39.9395 141.171C39.9395 141.126 39.9509 141.082 39.9731 141.041C39.9952 141.001 40.0274 140.965 40.0674 140.936C40.1074 140.907 40.1542 140.887 40.2046 140.876C40.2549 140.864 40.3075 140.863 40.3586 140.871C40.409 140.861 40.4613 140.86 40.512 140.869C40.5627 140.879 40.6104 140.897 40.6518 140.924C40.6932 140.951 40.7273 140.985 40.7517 141.025C40.776 141.064 40.7901 141.108 40.7928 141.152C40.7955 141.197 40.7869 141.241 40.7674 141.283C40.748 141.324 40.7183 141.361 40.6804 141.392C40.6424 141.422 40.5972 141.445 40.548 141.459C40.4987 141.472 40.4465 141.477 40.3952 141.471H40.3586ZM26.052 139.366C26.1031 139.358 26.1556 139.359 26.206 139.371C26.2563 139.382 26.3031 139.403 26.3432 139.431C26.3832 139.46 26.4154 139.496 26.4375 139.536C26.4596 139.577 26.4711 139.621 26.4711 139.666C26.4711 139.711 26.4596 139.755 26.4375 139.796C26.4154 139.837 26.3832 139.872 26.3432 139.901C26.3031 139.93 26.2563 139.95 26.206 139.962C26.1556 139.973 26.1031 139.974 26.052 139.966C26.0006 139.972 25.9484 139.967 25.8992 139.954C25.8499 139.94 25.8047 139.917 25.7668 139.887C25.7289 139.856 25.6991 139.819 25.6797 139.778C25.6603 139.736 25.6516 139.692 25.6543 139.647C25.6571 139.603 25.6711 139.559 25.6955 139.52C25.7198 139.48 25.7539 139.446 25.7953 139.419C25.8367 139.392 25.8844 139.374 25.9351 139.365C25.9858 139.355 26.0382 139.356 26.0885 139.366H26.052ZM18.0144 118.319C18.5188 117.968 19.0934 117.701 19.7097 117.529C19.7097 116.161 19.5878 115.425 20.844 116.235C21.2109 116.493 21.5387 116.79 21.8197 117.119C22.3859 116.971 22.9725 116.89 23.5639 116.877C23.7346 116.877 23.8444 116.961 23.8322 117.108C23.6238 117.652 23.3104 118.16 22.9052 118.613C23.2571 119.086 23.4744 119.623 23.5395 120.181C23.4297 120.697 22.4905 120.245 21.7344 120.055C21.4051 120.392 20.3927 121.507 20.0146 121.255C19.6365 121.002 19.8439 120.35 19.7951 119.466C19.0511 119.234 17.5387 118.813 18.051 118.319H18.0144ZM13.526 127.601C13.5771 127.592 13.6297 127.594 13.68 127.605C13.7304 127.616 13.7772 127.637 13.8172 127.666C13.8573 127.694 13.8895 127.73 13.9116 127.771C13.9337 127.811 13.9451 127.856 13.9451 127.901C13.9451 127.945 13.9337 127.99 13.9116 128.03C13.8895 128.071 13.8573 128.107 13.8172 128.135C13.7772 128.164 13.7304 128.185 13.68 128.196C13.6297 128.207 13.5771 128.209 13.526 128.2C13.4747 128.206 13.4225 128.202 13.3733 128.188C13.324 128.175 13.2788 128.152 13.2409 128.121C13.2029 128.091 13.1732 128.054 13.1538 128.012C13.1344 127.971 13.1257 127.926 13.1284 127.882C13.1311 127.837 13.1452 127.794 13.1695 127.754C13.1939 127.715 13.228 127.68 13.2694 127.654C13.3108 127.627 13.3585 127.608 13.4092 127.599C13.4599 127.59 13.5122 127.59 13.5626 127.601H13.526ZM131.162 162.55C126.698 167.57 60.0439 195.479 53.5553 198.184C38.3217 182.577 14.6115 154.121 0.707403 137.514L13.2699 136.093C21.1001 146.754 33.1016 144.281 39.5414 147.669C46.7862 151.49 50.5184 154.373 52.7137 161.782C55.7019 171.853 51.9332 176.199 60.6659 179.409C69.0328 182.472 85.6446 181.24 92.3771 171.274C99.1097 161.308 85.9251 156.951 74.0822 152.331C62.2393 147.712 64.3249 141.313 65.9349 139.503C67.1642 138.126 68.5903 136.888 70.1793 135.82C70.7802 135.821 71.3712 135.687 71.8933 135.431C72.4155 135.174 72.8505 134.804 73.1553 134.357C74.5823 135.02 128.711 161.34 131.199 162.55H131.162ZM86.0349 174.958C86.0509 174.958 86.0668 174.96 86.0816 174.966C86.0964 174.971 86.1098 174.979 86.1211 174.988C86.1325 174.998 86.1414 175.01 86.1476 175.023C86.1537 175.035 86.1569 175.049 86.1569 175.063C86.1569 175.077 86.1537 175.09 86.1476 175.103C86.1414 175.116 86.1325 175.127 86.1211 175.137C86.1098 175.147 86.0964 175.155 86.0816 175.16C86.0668 175.165 86.0509 175.168 86.0349 175.168C86.0189 175.167 86.0032 175.164 85.9887 175.158C85.9742 175.152 85.9612 175.144 85.9504 175.134C85.9397 175.123 85.9314 175.111 85.926 175.098C85.9206 175.085 85.9182 175.071 85.919 175.058C85.9198 175.044 85.9238 175.03 85.9306 175.018C85.9375 175.005 85.9472 174.994 85.9591 174.985C85.9709 174.975 85.9848 174.968 85.9999 174.964C86.0151 174.959 86.0311 174.957 86.0471 174.958H86.0349ZM89.1572 164.297C89.0109 164.381 88.7913 164.297 88.4498 164.15C87.9132 164.665 87.657 164.813 87.718 163.939C87.1936 163.792 86.9008 163.718 87.3887 163.476C87.5351 163.407 87.6908 163.354 87.8522 163.318C87.9863 162.592 88.0961 162.582 88.5596 163.192C88.7839 163.144 89.0183 163.144 89.2426 163.192C89.4133 163.276 89.1328 163.476 88.9377 163.676C89.0109 163.823 89.3036 164.223 89.1694 164.297H89.1572ZM71.155 135.188C70.6845 135.322 70.1797 135.339 69.6986 135.237C69.2174 135.134 68.7796 134.917 68.4352 134.609H68.545C70.8501 134.304 70.5086 133.483 71.7039 132.978C71.8136 133.084 71.7039 133.052 73.6431 133.178C73.1534 134.105 72.2592 134.828 71.155 135.188ZM73.9724 130.979C73.7959 131.262 73.7276 131.586 73.7773 131.905C73.7773 131.979 73.6919 132.315 73.6431 132.631L72.3259 132.536C72.3259 132.484 73.1919 130.705 73.2528 130.537H74.0822L73.9724 130.979ZM73.7285 128.022C72.8869 129.379 72.5089 131.905 71.7649 131.463C71.5049 131.231 71.3567 130.923 71.3502 130.6C71.311 129.993 71.4104 129.385 71.6429 128.811C71.8417 128.208 72.1917 127.651 72.6681 127.178C73.1444 126.705 73.7355 126.328 74.3993 126.075C73.7529 128.222 73.9359 127.737 73.7285 128.064V128.022ZM74.6067 129.611C74.8018 129.116 75.0701 128.39 75.4482 127.443C75.6068 127.369 75.6434 127.443 75.8507 127.885C76.18 128.621 74.253 130.495 74.253 130.495C74.3749 130.189 74.5091 129.895 74.6067 129.653V129.611ZM109.05 111.373C104.744 116.961 101.549 119.466 96.524 121.897C91.6255 124.145 86.4167 125.85 81.0221 126.969C78.8511 127.548 77.0338 131.705 74.6555 131.894C74.3871 131.894 74.2042 131.894 74.4237 131.368C74.9726 130.053 76.9606 128.958 76.3874 127.706C76.3146 127.518 76.2163 127.338 76.0947 127.169C75.9958 127.032 75.845 126.928 75.6678 126.874C75.7409 126.664 75.9849 126.054 76.3142 125.191C76.5947 125.022 76.7898 124.97 78.0705 124.317C82.3637 122.128 84.0468 118.203 87.657 114.53C89.5638 112.517 91.7891 110.746 94.2676 109.268C94.4505 109.174 94.1456 109.331 95.5604 105.48C96.3776 103.259 97.3289 100.912 97.6095 100.218C97.6623 100.224 97.7127 100.241 97.7571 100.266C97.8014 100.292 97.8385 100.325 97.8656 100.365C98.1827 100.881 98.1217 101.87 98.3901 102.47C99.0243 103.796 100.598 102.017 102.049 102.049C103.269 102.049 103.269 103.259 104.488 103.564C105.403 103.796 106.318 103.312 107.172 103.659C108.29 105.3 109.606 106.835 111.099 108.237C110.545 109.354 109.858 110.419 109.05 111.415V111.373ZM116.539 111.71C112.847 109.433 109.761 106.501 107.489 103.112C105.989 100.86 104.598 98.3445 104.122 92.0303C104.41 91.9869 104.695 91.9307 104.976 91.8619L105.232 93.9666C106.576 94.8442 107.995 95.6322 109.477 96.324C109.477 96.324 108.44 101.386 113.136 107.9C115.392 111.099 116.539 111.752 116.539 111.752V111.71ZM139.212 125.285C139.432 127.58 137.017 140.103 136.687 141.808C136.668 141.814 136.65 141.824 136.635 141.837C136.621 141.849 136.609 141.865 136.602 141.881C136.761 141.366 134.016 149.332 133.809 151.826C133.809 152.026 133.809 151.932 135.895 153.489C136.602 154.026 139.029 155.804 139.151 156.425C139.207 156.587 139.207 156.759 139.151 156.92C138.062 155.924 136.762 155.117 135.321 154.541C135.296 154.528 135.264 154.523 135.235 154.529C135.205 154.535 135.179 154.551 135.163 154.573C135.147 154.595 135.141 154.622 135.148 154.648C135.155 154.674 135.174 154.696 135.199 154.71L136.187 155.404C137.176 155.983 138.084 156.658 138.895 157.414C138.773 157.678 138.505 157.699 138.188 157.625C138.188 157.078 135.407 155.752 134.529 155.299C134.394 155.236 134.272 155.404 134.407 155.468C135.632 156.078 136.773 156.805 137.809 157.635C137.419 158.393 136.236 157.309 131.931 155.783C131.155 155.482 130.334 155.277 129.491 155.173C129.434 155.17 129.377 155.182 129.329 155.209C129.281 155.235 129.244 155.274 129.223 155.32C129.113 155.594 129.455 155.583 130.553 156.541C130.786 156.718 130.987 156.923 131.15 157.151C130.419 157.226 129.681 157.077 129.065 156.73C128.576 156.449 128.19 156.052 127.953 155.588C127.715 155.124 127.635 154.612 127.723 154.11C127.93 153.058 129.138 152.521 128.638 151.584C128.138 150.648 127.113 144.565 126.967 143.691C125.613 135.788 126.125 135.62 125.869 135.557C125.869 124.591 126.271 124.549 126.174 123.98C126.174 123.865 123.442 107.679 123.417 107.553C124.222 107.553 124.796 108.321 125.247 108.953C125.906 109.858 126.467 110.447 127.784 110.1C129.101 109.752 130.223 108.795 131.443 108.416C132.663 108.037 133.309 108.416 134.638 108.784C135.151 108.995 135.729 109.055 136.285 108.954C136.84 108.853 137.342 108.598 137.712 108.226C139.834 106.7 138.834 106.322 143.176 107.795C142.334 110.626 140.444 118.624 140.407 118.75C139.637 120.866 139.234 123.068 139.212 125.285ZM123.271 107.037C122.315 107.335 121.382 107.687 120.478 108.09C120.271 108.09 120.185 108.09 120.124 107.879C119.746 106.374 124.186 88.5574 135.248 87.8839C140.298 87.5892 143.786 95.4084 145.31 99.5758C146.313 102.225 147.092 104.933 147.64 107.679C147.86 109.584 141.42 106.016 139.566 106.385C138.834 106.532 138.505 107.069 137.456 107.826C136.407 108.584 135.87 108.584 134.943 108.3C133.848 107.782 132.565 107.647 131.357 107.921C130.065 108.321 128.991 109.258 127.699 109.605C126.601 109.91 126.259 109.258 125.637 108.416C125.015 107.574 124.381 106.858 123.271 106.995V107.037ZM141.444 116.972C141.956 115.225 142.859 111.604 143.53 107.816C144.652 108.195 147.103 109.121 147.92 108.447C148.042 108.335 148.13 108.198 148.177 108.05C148.224 107.901 148.228 107.745 148.189 107.595C147.747 105.374 147.136 103.18 146.359 101.028C144.725 96.345 140.907 87.3472 135.224 87.6524C123.686 88.3469 119.185 106.311 119.576 107.932C119.587 108.036 119.626 108.136 119.689 108.226C119.753 108.315 119.839 108.39 119.941 108.446C120.044 108.502 120.16 108.537 120.28 108.548C120.401 108.559 120.523 108.546 120.637 108.51C121.332 108.363 122.32 107.711 123.222 107.532C123.357 109.447 123.613 111.994 124.149 115.288C122.092 114.589 120.105 113.745 118.21 112.762C114.383 109.555 111.685 105.48 110.428 101.007C109.999 99.5431 109.754 98.0436 109.696 96.5344C111.911 97.6016 114.21 98.5335 116.575 99.3232C116.614 99.3366 116.657 99.3417 116.699 99.3383C116.741 99.3348 116.781 99.3229 116.817 99.3034C116.853 99.2839 116.882 99.2574 116.904 99.2262C116.926 99.1949 116.938 99.1596 116.941 99.1233C117.387 96.1504 118.847 93.359 121.137 91.1042C123.469 88.8741 126.568 87.3473 129.979 86.7473C130.034 86.7395 130.085 86.7171 130.125 86.6831C130.164 86.6491 130.191 86.6053 130.2 86.5579C130.21 86.5104 130.202 86.4615 130.177 86.4182C130.153 86.3748 130.114 86.339 130.065 86.3159C127.649 85.1129 125.157 84.0273 122.6 83.064C121.017 82.4291 119.356 81.9491 117.649 81.6328C117.979 80.8479 118.2 80.0318 118.307 79.2018C120.746 78.3073 133.053 79.6227 141.347 78.8756C142.603 78.8085 143.849 78.6358 145.066 78.3599C152.543 78.181 163.8 86.1159 165.874 89.694C167.947 93.2721 167.618 97.7447 163.02 103.312C158.69 108.521 143.127 116.119 141.456 116.93L141.444 116.972ZM174.631 138.219C176.326 133.61 173.643 129.295 172.68 127.958L180.754 127.769C181.793 128.3 182.586 129.126 182.998 130.105C183.66 131.572 184.011 133.13 184.035 134.704C181.62 135.641 177.144 137.409 174.631 138.177V138.219ZM184.559 134.42C184.492 132.878 184.078 131.363 183.339 129.958C182.85 128.967 181.992 128.145 180.9 127.622C181.387 127.171 181.976 126.813 182.632 126.569C182.632 126.906 182.156 127.622 182.73 127.695C183.303 127.769 183.364 127.285 183.718 127.127C183.864 127.064 184.157 127.053 184.035 127.327C183.913 127.601 183.644 128.011 183.925 128.379C184.132 128.589 184.416 128.73 184.73 128.779C184.803 128.779 184.315 129.074 184.181 129.411C184.149 129.49 184.154 129.578 184.195 129.654C184.236 129.731 184.31 129.79 184.401 129.821C184.815 129.958 185.535 129.6 185.986 129.99C186.169 130.158 186.071 130.316 185.84 130.432C185.279 130.737 185.206 131.095 185.73 131.484C185.993 131.642 186.228 131.834 186.425 132.052C186.042 132.05 185.669 132.157 185.364 132.357C185.306 132.396 185.259 132.445 185.226 132.502C185.194 132.558 185.177 132.62 185.177 132.684C185.177 132.747 185.194 132.809 185.226 132.866C185.259 132.922 185.306 132.972 185.364 133.01C185.632 133.21 186.291 133.42 186.437 133.599C185.856 133.933 185.224 134.195 184.559 134.378V134.42ZM199.354 127.138C198.854 128.895 187.877 133.136 187.096 133.452C186.962 133.041 186.193 132.841 185.876 132.642C186.218 132.484 186.901 132.547 187.035 132.178C187.169 131.81 186.218 131.2 185.998 130.958C186.206 130.789 186.95 130.484 186.62 129.905C186.47 129.688 186.245 129.517 185.975 129.416C185.706 129.316 185.406 129.292 185.12 129.348H184.937C185.206 129.053 185.645 128.674 185.242 128.421C184.84 128.169 184.571 128.421 184.364 128.074C185.523 128.2 186.474 128.337 187.206 128.474C187.23 128.477 187.255 128.476 187.279 128.47C187.302 128.464 187.324 128.453 187.343 128.439C187.361 128.425 187.376 128.408 187.386 128.388C187.396 128.369 187.401 128.348 187.401 128.327C187.401 128.748 187.059 125.896 188.791 125.559C189.565 125.489 190.346 125.583 191.067 125.835C191.788 126.086 192.426 126.486 192.926 127.001C192.955 127.032 192.993 127.055 193.036 127.068C193.079 127.081 193.125 127.083 193.17 127.074C193.621 127.001 197.366 126.338 198.866 126.811C199.036 126.801 199.39 126.948 199.354 127.095V127.138Z" fill="black"/>
</svg>
